G04 EAGLE Gerber RS-274X export*
G75*
%MOMM*%
%FSLAX34Y34*%
%LPD*%
%INBottom Copper*%
%IPPOS*%
%AMOC8*
5,1,8,0,0,1.08239X$1,22.5*%
G01*
%ADD10C,2.032000*%
%ADD11P,1.935489X8X202.500000*%
%ADD12P,1.935489X8X22.500000*%
%ADD13C,2.133600*%
%ADD14P,2.089446X8X112.500000*%
%ADD15C,1.930400*%
%ADD16C,1.270000*%
%ADD17C,1.500000*%
%ADD18C,2.016000*%
%ADD19C,0.254000*%

G36*
X406192Y10934D02*
X406192Y10934D01*
X406264Y10936D01*
X406313Y10954D01*
X406364Y10962D01*
X406427Y10996D01*
X406495Y11021D01*
X406535Y11053D01*
X406581Y11078D01*
X406631Y11130D01*
X406687Y11174D01*
X406715Y11218D01*
X406751Y11256D01*
X406781Y11321D01*
X406820Y11381D01*
X406832Y11432D01*
X406854Y11479D01*
X406862Y11550D01*
X406880Y11620D01*
X406876Y11672D01*
X406881Y11723D01*
X406866Y11794D01*
X406861Y11865D01*
X406840Y11913D01*
X406829Y11964D01*
X406792Y12025D01*
X406764Y12091D01*
X406720Y12147D01*
X406703Y12175D01*
X406685Y12190D01*
X406660Y12222D01*
X404366Y14516D01*
X400724Y20823D01*
X398839Y27858D01*
X398839Y35142D01*
X400724Y42177D01*
X404366Y48484D01*
X409516Y53634D01*
X415823Y57276D01*
X422858Y59161D01*
X430142Y59161D01*
X437177Y57276D01*
X443484Y53634D01*
X448634Y48484D01*
X452276Y42177D01*
X454161Y35142D01*
X454161Y27858D01*
X452276Y20823D01*
X448634Y14516D01*
X446340Y12222D01*
X446299Y12164D01*
X446249Y12112D01*
X446227Y12065D01*
X446197Y12023D01*
X446176Y11954D01*
X446146Y11889D01*
X446140Y11837D01*
X446125Y11787D01*
X446126Y11716D01*
X446119Y11645D01*
X446130Y11594D01*
X446131Y11542D01*
X446156Y11474D01*
X446171Y11404D01*
X446197Y11359D01*
X446215Y11311D01*
X446260Y11255D01*
X446297Y11193D01*
X446337Y11159D01*
X446369Y11119D01*
X446429Y11080D01*
X446484Y11033D01*
X446532Y11014D01*
X446576Y10986D01*
X446645Y10968D01*
X446712Y10941D01*
X446783Y10933D01*
X446815Y10925D01*
X446838Y10927D01*
X446879Y10923D01*
X979621Y10923D01*
X979692Y10934D01*
X979764Y10936D01*
X979813Y10954D01*
X979864Y10962D01*
X979927Y10996D01*
X979995Y11021D01*
X980035Y11053D01*
X980081Y11078D01*
X980131Y11130D01*
X980187Y11174D01*
X980215Y11218D01*
X980251Y11256D01*
X980281Y11321D01*
X980320Y11381D01*
X980332Y11432D01*
X980354Y11479D01*
X980362Y11550D01*
X980380Y11620D01*
X980376Y11672D01*
X980381Y11723D01*
X980366Y11794D01*
X980361Y11865D01*
X980340Y11913D01*
X980329Y11964D01*
X980292Y12025D01*
X980264Y12091D01*
X980220Y12147D01*
X980203Y12175D01*
X980185Y12190D01*
X980160Y12222D01*
X977866Y14516D01*
X974224Y20823D01*
X972339Y27858D01*
X972339Y35142D01*
X974224Y42177D01*
X977866Y48484D01*
X983016Y53634D01*
X989323Y57276D01*
X996358Y59161D01*
X1003642Y59161D01*
X1010677Y57276D01*
X1016984Y53634D01*
X1022134Y48484D01*
X1025776Y42177D01*
X1027661Y35142D01*
X1027661Y27858D01*
X1025776Y20823D01*
X1022134Y14516D01*
X1019840Y12222D01*
X1019799Y12164D01*
X1019749Y12112D01*
X1019727Y12065D01*
X1019697Y12023D01*
X1019676Y11954D01*
X1019646Y11889D01*
X1019640Y11837D01*
X1019625Y11787D01*
X1019626Y11716D01*
X1019619Y11645D01*
X1019630Y11594D01*
X1019631Y11542D01*
X1019656Y11474D01*
X1019671Y11404D01*
X1019697Y11359D01*
X1019715Y11311D01*
X1019760Y11255D01*
X1019797Y11193D01*
X1019837Y11159D01*
X1019869Y11119D01*
X1019929Y11080D01*
X1019984Y11033D01*
X1020032Y11014D01*
X1020076Y10986D01*
X1020145Y10968D01*
X1020212Y10941D01*
X1020283Y10933D01*
X1020315Y10925D01*
X1020338Y10927D01*
X1020379Y10923D01*
X1038316Y10923D01*
X1038336Y10926D01*
X1038355Y10924D01*
X1038457Y10946D01*
X1038559Y10962D01*
X1038576Y10972D01*
X1038596Y10976D01*
X1038685Y11029D01*
X1038776Y11078D01*
X1038790Y11092D01*
X1038807Y11102D01*
X1038874Y11181D01*
X1038946Y11256D01*
X1038954Y11274D01*
X1038967Y11289D01*
X1039006Y11385D01*
X1039049Y11479D01*
X1039051Y11499D01*
X1039059Y11517D01*
X1039077Y11684D01*
X1039077Y538316D01*
X1039074Y538336D01*
X1039076Y538355D01*
X1039054Y538457D01*
X1039038Y538559D01*
X1039028Y538576D01*
X1039024Y538596D01*
X1038971Y538685D01*
X1038922Y538776D01*
X1038908Y538790D01*
X1038898Y538807D01*
X1038819Y538874D01*
X1038744Y538946D01*
X1038726Y538954D01*
X1038711Y538967D01*
X1038615Y539006D01*
X1038521Y539049D01*
X1038501Y539051D01*
X1038483Y539059D01*
X1038316Y539077D01*
X1020379Y539077D01*
X1020308Y539066D01*
X1020236Y539064D01*
X1020187Y539046D01*
X1020136Y539038D01*
X1020073Y539004D01*
X1020005Y538979D01*
X1019965Y538947D01*
X1019919Y538922D01*
X1019869Y538870D01*
X1019813Y538826D01*
X1019785Y538782D01*
X1019749Y538744D01*
X1019719Y538679D01*
X1019680Y538619D01*
X1019668Y538568D01*
X1019646Y538521D01*
X1019638Y538450D01*
X1019620Y538380D01*
X1019624Y538328D01*
X1019619Y538277D01*
X1019634Y538206D01*
X1019639Y538135D01*
X1019660Y538087D01*
X1019671Y538036D01*
X1019708Y537975D01*
X1019736Y537909D01*
X1019780Y537853D01*
X1019797Y537825D01*
X1019815Y537810D01*
X1019840Y537778D01*
X1022134Y535484D01*
X1025776Y529177D01*
X1027661Y522142D01*
X1027661Y514858D01*
X1025776Y507823D01*
X1022134Y501516D01*
X1016984Y496366D01*
X1010677Y492724D01*
X1003642Y490839D01*
X996358Y490839D01*
X989323Y492724D01*
X983016Y496366D01*
X977866Y501516D01*
X974224Y507823D01*
X972339Y514858D01*
X972339Y522142D01*
X974224Y529177D01*
X977866Y535484D01*
X980160Y537778D01*
X980201Y537836D01*
X980251Y537888D01*
X980273Y537935D01*
X980303Y537977D01*
X980324Y538046D01*
X980354Y538111D01*
X980360Y538163D01*
X980375Y538213D01*
X980374Y538284D01*
X980381Y538355D01*
X980370Y538406D01*
X980369Y538458D01*
X980344Y538526D01*
X980329Y538596D01*
X980303Y538641D01*
X980285Y538689D01*
X980240Y538745D01*
X980203Y538807D01*
X980163Y538841D01*
X980131Y538881D01*
X980071Y538920D01*
X980016Y538967D01*
X979968Y538986D01*
X979924Y539014D01*
X979855Y539032D01*
X979788Y539059D01*
X979717Y539067D01*
X979685Y539075D01*
X979662Y539073D01*
X979621Y539077D01*
X446879Y539077D01*
X446808Y539066D01*
X446736Y539064D01*
X446687Y539046D01*
X446636Y539038D01*
X446573Y539004D01*
X446505Y538979D01*
X446465Y538947D01*
X446419Y538922D01*
X446369Y538870D01*
X446313Y538826D01*
X446285Y538782D01*
X446249Y538744D01*
X446219Y538679D01*
X446180Y538619D01*
X446168Y538568D01*
X446146Y538521D01*
X446138Y538450D01*
X446120Y538380D01*
X446124Y538328D01*
X446119Y538277D01*
X446134Y538206D01*
X446139Y538135D01*
X446160Y538087D01*
X446171Y538036D01*
X446208Y537975D01*
X446236Y537909D01*
X446280Y537853D01*
X446297Y537825D01*
X446315Y537810D01*
X446340Y537778D01*
X448634Y535484D01*
X452276Y529177D01*
X454161Y522142D01*
X454161Y514858D01*
X452276Y507823D01*
X448634Y501516D01*
X443484Y496366D01*
X437177Y492724D01*
X430142Y490839D01*
X422858Y490839D01*
X415823Y492724D01*
X409516Y496366D01*
X404366Y501516D01*
X400724Y507823D01*
X398839Y514858D01*
X398839Y522142D01*
X400724Y529177D01*
X404366Y535484D01*
X406660Y537778D01*
X406701Y537836D01*
X406751Y537888D01*
X406773Y537935D01*
X406803Y537977D01*
X406824Y538046D01*
X406854Y538111D01*
X406860Y538163D01*
X406875Y538213D01*
X406874Y538284D01*
X406881Y538355D01*
X406870Y538406D01*
X406869Y538458D01*
X406844Y538526D01*
X406829Y538596D01*
X406803Y538641D01*
X406785Y538689D01*
X406740Y538745D01*
X406703Y538807D01*
X406663Y538841D01*
X406631Y538881D01*
X406571Y538920D01*
X406516Y538967D01*
X406468Y538986D01*
X406424Y539014D01*
X406355Y539032D01*
X406288Y539059D01*
X406217Y539067D01*
X406185Y539075D01*
X406162Y539073D01*
X406121Y539077D01*
X61684Y539077D01*
X61664Y539074D01*
X61645Y539076D01*
X61543Y539054D01*
X61441Y539038D01*
X61424Y539028D01*
X61404Y539024D01*
X61315Y538971D01*
X61224Y538922D01*
X61210Y538908D01*
X61193Y538898D01*
X61126Y538819D01*
X61054Y538744D01*
X61046Y538726D01*
X61033Y538711D01*
X60994Y538615D01*
X60951Y538521D01*
X60949Y538501D01*
X60941Y538483D01*
X60923Y538316D01*
X60923Y447737D01*
X60934Y447666D01*
X60936Y447594D01*
X60954Y447545D01*
X60962Y447494D01*
X60996Y447431D01*
X61021Y447363D01*
X61053Y447323D01*
X61078Y447276D01*
X61130Y447227D01*
X61174Y447171D01*
X61218Y447143D01*
X61256Y447107D01*
X61321Y447077D01*
X61381Y447038D01*
X61432Y447025D01*
X61479Y447003D01*
X61550Y446996D01*
X61620Y446978D01*
X61672Y446982D01*
X61723Y446976D01*
X61794Y446992D01*
X61865Y446997D01*
X61913Y447018D01*
X61964Y447029D01*
X62025Y447065D01*
X62091Y447094D01*
X62147Y447138D01*
X62175Y447155D01*
X62190Y447173D01*
X62222Y447198D01*
X68396Y453372D01*
X74887Y456061D01*
X111226Y456061D01*
X111246Y456064D01*
X111265Y456062D01*
X111367Y456084D01*
X111469Y456100D01*
X111486Y456110D01*
X111506Y456114D01*
X111595Y456167D01*
X111686Y456216D01*
X111700Y456230D01*
X111717Y456240D01*
X111784Y456319D01*
X111856Y456394D01*
X111864Y456412D01*
X111877Y456427D01*
X111916Y456523D01*
X111959Y456617D01*
X111961Y456637D01*
X111969Y456655D01*
X111987Y456822D01*
X111987Y472007D01*
X123593Y483613D01*
X125925Y483613D01*
X125995Y483624D01*
X126067Y483626D01*
X126116Y483644D01*
X126167Y483652D01*
X126231Y483686D01*
X126298Y483711D01*
X126339Y483743D01*
X126385Y483768D01*
X126434Y483820D01*
X126490Y483864D01*
X126518Y483908D01*
X126554Y483946D01*
X126584Y484011D01*
X126623Y484071D01*
X126636Y484122D01*
X126658Y484169D01*
X126666Y484240D01*
X126683Y484310D01*
X126679Y484362D01*
X126685Y484413D01*
X126670Y484484D01*
X126664Y484555D01*
X126644Y484603D01*
X126633Y484654D01*
X126596Y484715D01*
X126568Y484781D01*
X126523Y484837D01*
X126507Y484865D01*
X126489Y484880D01*
X126463Y484912D01*
X122841Y488535D01*
X119759Y495974D01*
X119759Y504026D01*
X122841Y511465D01*
X128535Y517159D01*
X135974Y520241D01*
X144026Y520241D01*
X150115Y517719D01*
X150179Y517704D01*
X150240Y517679D01*
X150322Y517670D01*
X150354Y517663D01*
X150374Y517664D01*
X150406Y517661D01*
X173513Y517661D01*
X180004Y514972D01*
X209972Y485004D01*
X212661Y478513D01*
X212661Y451487D01*
X209972Y444996D01*
X196936Y431960D01*
X196895Y431902D01*
X196845Y431850D01*
X196823Y431803D01*
X196793Y431761D01*
X196772Y431692D01*
X196741Y431627D01*
X196736Y431575D01*
X196720Y431525D01*
X196722Y431454D01*
X196714Y431383D01*
X196725Y431332D01*
X196727Y431280D01*
X196751Y431212D01*
X196767Y431142D01*
X196793Y431097D01*
X196811Y431049D01*
X196856Y430993D01*
X196893Y430931D01*
X196932Y430897D01*
X196965Y430857D01*
X197025Y430818D01*
X197080Y430771D01*
X197128Y430752D01*
X197172Y430724D01*
X197241Y430706D01*
X197308Y430679D01*
X197379Y430671D01*
X197410Y430663D01*
X197434Y430665D01*
X197475Y430661D01*
X205369Y430661D01*
X205459Y430675D01*
X205550Y430683D01*
X205580Y430695D01*
X205612Y430700D01*
X205693Y430743D01*
X205777Y430779D01*
X205809Y430805D01*
X205829Y430816D01*
X205852Y430839D01*
X205908Y430884D01*
X229421Y454397D01*
X234496Y459472D01*
X240987Y462161D01*
X263387Y462161D01*
X263451Y462171D01*
X263517Y462172D01*
X263597Y462195D01*
X263629Y462200D01*
X263647Y462210D01*
X263678Y462219D01*
X270974Y465241D01*
X279026Y465241D01*
X286465Y462159D01*
X292159Y456465D01*
X295241Y449026D01*
X295241Y440974D01*
X292159Y433535D01*
X286465Y427841D01*
X279026Y424759D01*
X270974Y424759D01*
X266092Y426781D01*
X266028Y426796D01*
X265968Y426821D01*
X265885Y426830D01*
X265853Y426837D01*
X265833Y426836D01*
X265801Y426839D01*
X252131Y426839D01*
X252041Y426825D01*
X251950Y426817D01*
X251920Y426805D01*
X251888Y426800D01*
X251807Y426757D01*
X251723Y426721D01*
X251691Y426695D01*
X251671Y426684D01*
X251648Y426661D01*
X251592Y426616D01*
X228936Y403960D01*
X228895Y403902D01*
X228845Y403850D01*
X228823Y403803D01*
X228793Y403761D01*
X228772Y403692D01*
X228741Y403627D01*
X228736Y403575D01*
X228720Y403525D01*
X228722Y403454D01*
X228714Y403383D01*
X228725Y403332D01*
X228727Y403280D01*
X228751Y403212D01*
X228767Y403142D01*
X228793Y403098D01*
X228811Y403049D01*
X228856Y402993D01*
X228893Y402931D01*
X228932Y402897D01*
X228965Y402857D01*
X229025Y402818D01*
X229080Y402771D01*
X229128Y402752D01*
X229172Y402724D01*
X229241Y402706D01*
X229308Y402679D01*
X229379Y402671D01*
X229410Y402663D01*
X229434Y402665D01*
X229475Y402661D01*
X264594Y402661D01*
X264658Y402671D01*
X264724Y402672D01*
X264804Y402695D01*
X264836Y402700D01*
X264854Y402710D01*
X264885Y402719D01*
X270974Y405241D01*
X279026Y405241D01*
X286465Y402159D01*
X292159Y396465D01*
X295241Y389026D01*
X295241Y380974D01*
X292159Y373535D01*
X286465Y367841D01*
X279026Y364759D01*
X270974Y364759D01*
X264885Y367281D01*
X264821Y367296D01*
X264760Y367321D01*
X264678Y367330D01*
X264646Y367337D01*
X264626Y367336D01*
X264594Y367339D01*
X170154Y367339D01*
X170134Y367336D01*
X170115Y367338D01*
X170013Y367316D01*
X169911Y367300D01*
X169894Y367290D01*
X169874Y367286D01*
X169785Y367233D01*
X169694Y367184D01*
X169680Y367170D01*
X169663Y367160D01*
X169596Y367081D01*
X169524Y367006D01*
X169516Y366988D01*
X169503Y366973D01*
X169464Y366877D01*
X169421Y366783D01*
X169419Y366763D01*
X169411Y366745D01*
X169393Y366578D01*
X169393Y363723D01*
X157962Y363723D01*
X157942Y363720D01*
X157923Y363722D01*
X157821Y363700D01*
X157719Y363683D01*
X157702Y363674D01*
X157682Y363670D01*
X157593Y363617D01*
X157502Y363568D01*
X157488Y363554D01*
X157471Y363544D01*
X157404Y363465D01*
X157333Y363390D01*
X157324Y363372D01*
X157311Y363357D01*
X157273Y363261D01*
X157229Y363167D01*
X157227Y363147D01*
X157219Y363129D01*
X157201Y362962D01*
X157201Y361438D01*
X157204Y361418D01*
X157202Y361399D01*
X157224Y361297D01*
X157241Y361195D01*
X157250Y361178D01*
X157254Y361158D01*
X157307Y361069D01*
X157356Y360978D01*
X157370Y360964D01*
X157380Y360947D01*
X157459Y360880D01*
X157534Y360809D01*
X157552Y360800D01*
X157567Y360787D01*
X157663Y360748D01*
X157757Y360705D01*
X157777Y360703D01*
X157795Y360695D01*
X157962Y360677D01*
X169393Y360677D01*
X169393Y358422D01*
X169396Y358402D01*
X169394Y358383D01*
X169416Y358281D01*
X169432Y358179D01*
X169442Y358162D01*
X169446Y358142D01*
X169499Y358053D01*
X169548Y357962D01*
X169562Y357948D01*
X169572Y357931D01*
X169651Y357864D01*
X169726Y357792D01*
X169744Y357784D01*
X169759Y357771D01*
X169855Y357732D01*
X169949Y357689D01*
X169969Y357687D01*
X169987Y357679D01*
X170154Y357661D01*
X174594Y357661D01*
X174658Y357671D01*
X174724Y357672D01*
X174804Y357695D01*
X174836Y357700D01*
X174854Y357710D01*
X174885Y357719D01*
X180974Y360241D01*
X189026Y360241D01*
X196465Y357159D01*
X202159Y351465D01*
X205241Y344026D01*
X205241Y335974D01*
X202233Y328713D01*
X202223Y328669D01*
X202203Y328627D01*
X202195Y328550D01*
X202177Y328474D01*
X202181Y328428D01*
X202176Y328383D01*
X202193Y328306D01*
X202200Y328229D01*
X202219Y328187D01*
X202229Y328142D01*
X202269Y328075D01*
X202300Y328004D01*
X202331Y327970D01*
X202355Y327931D01*
X202414Y327880D01*
X202467Y327823D01*
X202507Y327801D01*
X202542Y327771D01*
X202614Y327742D01*
X202682Y327705D01*
X202727Y327696D01*
X202770Y327679D01*
X202906Y327664D01*
X202924Y327661D01*
X202929Y327662D01*
X202937Y327661D01*
X264594Y327661D01*
X264658Y327671D01*
X264724Y327672D01*
X264804Y327695D01*
X264836Y327700D01*
X264854Y327710D01*
X264885Y327719D01*
X270974Y330241D01*
X279026Y330241D01*
X286465Y327159D01*
X292159Y321465D01*
X295241Y314026D01*
X295241Y305974D01*
X294304Y303713D01*
X294294Y303669D01*
X294275Y303627D01*
X294266Y303550D01*
X294248Y303474D01*
X294253Y303428D01*
X294247Y303383D01*
X294264Y303306D01*
X294271Y303229D01*
X294290Y303187D01*
X294300Y303142D01*
X294340Y303075D01*
X294371Y303004D01*
X294402Y302970D01*
X294426Y302931D01*
X294485Y302880D01*
X294538Y302823D01*
X294578Y302801D01*
X294613Y302771D01*
X294685Y302742D01*
X294753Y302705D01*
X294798Y302696D01*
X294841Y302679D01*
X294977Y302664D01*
X294995Y302661D01*
X295000Y302662D01*
X295008Y302661D01*
X362369Y302661D01*
X362459Y302675D01*
X362550Y302683D01*
X362580Y302695D01*
X362612Y302700D01*
X362693Y302743D01*
X362777Y302779D01*
X362809Y302805D01*
X362829Y302816D01*
X362852Y302839D01*
X362908Y302884D01*
X402116Y342092D01*
X402169Y342166D01*
X402229Y342236D01*
X402241Y342266D01*
X402260Y342292D01*
X402287Y342379D01*
X402321Y342464D01*
X402325Y342505D01*
X402332Y342527D01*
X402331Y342559D01*
X402339Y342631D01*
X402339Y369594D01*
X402329Y369658D01*
X402328Y369724D01*
X402305Y369804D01*
X402300Y369836D01*
X402290Y369854D01*
X402281Y369885D01*
X399759Y375974D01*
X399759Y384026D01*
X402841Y391465D01*
X408535Y397159D01*
X415974Y400241D01*
X424026Y400241D01*
X431465Y397159D01*
X437159Y391465D01*
X440241Y384026D01*
X440241Y375974D01*
X437719Y369885D01*
X437704Y369821D01*
X437679Y369760D01*
X437670Y369678D01*
X437663Y369646D01*
X437664Y369626D01*
X437661Y369594D01*
X437661Y331487D01*
X434972Y324996D01*
X380004Y270028D01*
X373513Y267339D01*
X86487Y267339D01*
X79996Y270028D01*
X74921Y275103D01*
X62222Y287802D01*
X62164Y287843D01*
X62112Y287893D01*
X62091Y287902D01*
X62086Y287907D01*
X62062Y287917D01*
X62023Y287945D01*
X61954Y287966D01*
X61889Y287997D01*
X61837Y288002D01*
X61787Y288018D01*
X61716Y288016D01*
X61645Y288024D01*
X61594Y288013D01*
X61542Y288011D01*
X61474Y287987D01*
X61404Y287971D01*
X61359Y287945D01*
X61311Y287927D01*
X61255Y287882D01*
X61193Y287845D01*
X61159Y287806D01*
X61119Y287773D01*
X61080Y287713D01*
X61066Y287697D01*
X61054Y287685D01*
X61053Y287682D01*
X61033Y287658D01*
X61014Y287610D01*
X60986Y287566D01*
X60969Y287501D01*
X60951Y287461D01*
X60950Y287451D01*
X60941Y287430D01*
X60933Y287359D01*
X60925Y287328D01*
X60927Y287304D01*
X60923Y287263D01*
X60923Y223684D01*
X60926Y223664D01*
X60924Y223645D01*
X60946Y223543D01*
X60962Y223441D01*
X60972Y223424D01*
X60976Y223404D01*
X61029Y223315D01*
X61078Y223224D01*
X61092Y223210D01*
X61102Y223193D01*
X61181Y223126D01*
X61256Y223054D01*
X61274Y223046D01*
X61289Y223033D01*
X61385Y222994D01*
X61479Y222951D01*
X61499Y222949D01*
X61517Y222941D01*
X61684Y222923D01*
X353687Y222923D01*
X353714Y222927D01*
X356013Y222923D01*
X356014Y222923D01*
X358183Y222923D01*
X360190Y222087D01*
X360191Y222087D01*
X362197Y221256D01*
X363734Y219713D01*
X363735Y219713D01*
X363735Y219712D01*
X365267Y218180D01*
X366096Y216169D01*
X366096Y216168D01*
X366096Y216167D01*
X366927Y214163D01*
X366923Y211985D01*
X366923Y211984D01*
X366923Y211983D01*
X366923Y209729D01*
X366920Y209718D01*
X366922Y209699D01*
X366918Y209667D01*
X366545Y11685D01*
X366548Y11665D01*
X366546Y11645D01*
X366568Y11544D01*
X366584Y11443D01*
X366594Y11424D01*
X366598Y11404D01*
X366651Y11316D01*
X366699Y11225D01*
X366714Y11211D01*
X366724Y11193D01*
X366802Y11126D01*
X366877Y11055D01*
X366895Y11047D01*
X366911Y11033D01*
X367007Y10995D01*
X367100Y10951D01*
X367120Y10949D01*
X367139Y10941D01*
X367306Y10923D01*
X406121Y10923D01*
X406192Y10934D01*
G37*
%LPC*%
G36*
X471288Y102098D02*
X471288Y102098D01*
X460098Y113288D01*
X460098Y129112D01*
X461316Y130330D01*
X461369Y130404D01*
X461429Y130473D01*
X461441Y130503D01*
X461460Y130530D01*
X461487Y130617D01*
X461521Y130701D01*
X461525Y130742D01*
X461532Y130765D01*
X461531Y130797D01*
X461539Y130868D01*
X461539Y162732D01*
X461525Y162822D01*
X461517Y162913D01*
X461505Y162943D01*
X461500Y162975D01*
X461457Y163055D01*
X461421Y163139D01*
X461395Y163171D01*
X461384Y163192D01*
X461361Y163214D01*
X461316Y163270D01*
X460098Y164488D01*
X460098Y180312D01*
X461316Y181530D01*
X461369Y181604D01*
X461429Y181673D01*
X461441Y181703D01*
X461460Y181730D01*
X461487Y181817D01*
X461521Y181901D01*
X461525Y181942D01*
X461532Y181965D01*
X461531Y181997D01*
X461539Y182068D01*
X461539Y213532D01*
X461525Y213622D01*
X461517Y213713D01*
X461505Y213743D01*
X461500Y213775D01*
X461457Y213855D01*
X461421Y213939D01*
X461395Y213971D01*
X461384Y213992D01*
X461361Y214014D01*
X461316Y214070D01*
X460098Y215288D01*
X460098Y231112D01*
X461316Y232330D01*
X461369Y232404D01*
X461429Y232473D01*
X461441Y232503D01*
X461460Y232530D01*
X461487Y232617D01*
X461521Y232701D01*
X461525Y232742D01*
X461532Y232765D01*
X461531Y232797D01*
X461539Y232868D01*
X461539Y265332D01*
X461525Y265422D01*
X461517Y265513D01*
X461505Y265543D01*
X461500Y265575D01*
X461457Y265655D01*
X461421Y265739D01*
X461395Y265771D01*
X461384Y265792D01*
X461361Y265814D01*
X461316Y265870D01*
X460098Y267088D01*
X460098Y282912D01*
X461316Y284130D01*
X461369Y284204D01*
X461429Y284273D01*
X461441Y284304D01*
X461460Y284330D01*
X461487Y284416D01*
X461521Y284502D01*
X461525Y284542D01*
X461532Y284565D01*
X461531Y284597D01*
X461539Y284668D01*
X461539Y320232D01*
X461525Y320322D01*
X461517Y320413D01*
X461505Y320443D01*
X461500Y320475D01*
X461457Y320555D01*
X461421Y320639D01*
X461395Y320671D01*
X461384Y320692D01*
X461361Y320714D01*
X461316Y320770D01*
X460098Y321988D01*
X460098Y337812D01*
X461316Y339030D01*
X461369Y339104D01*
X461429Y339173D01*
X461441Y339204D01*
X461460Y339230D01*
X461487Y339317D01*
X461521Y339402D01*
X461525Y339442D01*
X461532Y339465D01*
X461531Y339497D01*
X461539Y339568D01*
X461539Y374432D01*
X461525Y374522D01*
X461517Y374613D01*
X461505Y374643D01*
X461500Y374675D01*
X461457Y374755D01*
X461421Y374839D01*
X461395Y374871D01*
X461384Y374892D01*
X461361Y374914D01*
X461316Y374970D01*
X460098Y376188D01*
X460098Y384610D01*
X460084Y384700D01*
X460077Y384791D01*
X460064Y384821D01*
X460059Y384853D01*
X460016Y384934D01*
X459980Y385017D01*
X459955Y385050D01*
X459944Y385070D01*
X459920Y385092D01*
X459875Y385148D01*
X437908Y407116D01*
X437834Y407169D01*
X437764Y407229D01*
X437734Y407241D01*
X437708Y407260D01*
X437621Y407287D01*
X437536Y407321D01*
X437495Y407325D01*
X437473Y407332D01*
X437441Y407331D01*
X437369Y407339D01*
X430406Y407339D01*
X430342Y407329D01*
X430276Y407328D01*
X430196Y407305D01*
X430164Y407300D01*
X430146Y407290D01*
X430115Y407281D01*
X424026Y404759D01*
X415974Y404759D01*
X408535Y407841D01*
X402841Y413535D01*
X399759Y420974D01*
X399759Y429026D01*
X402841Y436465D01*
X408535Y442159D01*
X413695Y444297D01*
X413756Y444334D01*
X413821Y444364D01*
X413860Y444399D01*
X413904Y444426D01*
X413950Y444481D01*
X414002Y444530D01*
X414027Y444576D01*
X414061Y444616D01*
X414086Y444683D01*
X414121Y444746D01*
X414130Y444797D01*
X414149Y444845D01*
X414152Y444917D01*
X414165Y444988D01*
X414157Y445039D01*
X414159Y445091D01*
X414139Y445160D01*
X414129Y445231D01*
X414105Y445277D01*
X414091Y445327D01*
X414050Y445386D01*
X414017Y445450D01*
X413980Y445487D01*
X413950Y445529D01*
X413893Y445572D01*
X413842Y445622D01*
X413779Y445657D01*
X413753Y445676D01*
X413731Y445683D01*
X413695Y445703D01*
X408535Y447841D01*
X402841Y453535D01*
X399759Y460974D01*
X399759Y469026D01*
X402841Y476465D01*
X408535Y482159D01*
X415974Y485241D01*
X424026Y485241D01*
X430356Y482619D01*
X430420Y482604D01*
X430481Y482579D01*
X430564Y482570D01*
X430596Y482563D01*
X430615Y482564D01*
X430648Y482561D01*
X457713Y482561D01*
X464204Y479872D01*
X484852Y459225D01*
X484926Y459171D01*
X484995Y459112D01*
X485025Y459100D01*
X485051Y459081D01*
X485138Y459054D01*
X485223Y459020D01*
X485264Y459015D01*
X485286Y459009D01*
X485319Y459009D01*
X485390Y459002D01*
X487112Y459002D01*
X498302Y447812D01*
X498302Y431988D01*
X487112Y420798D01*
X476015Y420798D01*
X475945Y420787D01*
X475873Y420785D01*
X475824Y420767D01*
X475773Y420759D01*
X475709Y420725D01*
X475642Y420701D01*
X475601Y420668D01*
X475555Y420644D01*
X475506Y420592D01*
X475450Y420547D01*
X475422Y420503D01*
X475386Y420465D01*
X475356Y420400D01*
X475317Y420340D01*
X475304Y420289D01*
X475282Y420242D01*
X475274Y420171D01*
X475257Y420101D01*
X475261Y420049D01*
X475255Y419998D01*
X475270Y419928D01*
X475276Y419856D01*
X475296Y419808D01*
X475307Y419757D01*
X475344Y419696D01*
X475372Y419630D01*
X475417Y419574D01*
X475434Y419546D01*
X475451Y419531D01*
X475477Y419499D01*
X494172Y400804D01*
X496861Y394313D01*
X496861Y393768D01*
X496875Y393678D01*
X496883Y393587D01*
X496895Y393557D01*
X496900Y393525D01*
X496943Y393445D01*
X496979Y393361D01*
X497005Y393329D01*
X497016Y393308D01*
X497039Y393286D01*
X497084Y393230D01*
X498302Y392012D01*
X498302Y376188D01*
X497084Y374970D01*
X497031Y374896D01*
X496971Y374827D01*
X496959Y374796D01*
X496940Y374770D01*
X496913Y374683D01*
X496879Y374598D01*
X496875Y374558D01*
X496868Y374535D01*
X496869Y374503D01*
X496861Y374432D01*
X496861Y339568D01*
X496875Y339478D01*
X496883Y339387D01*
X496895Y339357D01*
X496900Y339325D01*
X496943Y339245D01*
X496979Y339161D01*
X497005Y339129D01*
X497016Y339108D01*
X497039Y339086D01*
X497084Y339030D01*
X498302Y337812D01*
X498302Y321988D01*
X497084Y320770D01*
X497031Y320696D01*
X496971Y320627D01*
X496959Y320596D01*
X496940Y320570D01*
X496913Y320483D01*
X496879Y320398D01*
X496875Y320358D01*
X496868Y320335D01*
X496869Y320303D01*
X496861Y320232D01*
X496861Y284668D01*
X496875Y284578D01*
X496883Y284487D01*
X496895Y284457D01*
X496900Y284425D01*
X496943Y284345D01*
X496979Y284261D01*
X497005Y284229D01*
X497016Y284208D01*
X497039Y284186D01*
X497084Y284130D01*
X498302Y282912D01*
X498302Y267088D01*
X497084Y265870D01*
X497031Y265796D01*
X496971Y265727D01*
X496959Y265697D01*
X496940Y265670D01*
X496913Y265583D01*
X496879Y265499D01*
X496875Y265458D01*
X496868Y265435D01*
X496869Y265403D01*
X496861Y265332D01*
X496861Y232868D01*
X496875Y232778D01*
X496883Y232687D01*
X496895Y232657D01*
X496900Y232625D01*
X496943Y232545D01*
X496979Y232461D01*
X497005Y232429D01*
X497016Y232408D01*
X497039Y232386D01*
X497084Y232330D01*
X498302Y231112D01*
X498302Y215288D01*
X497084Y214070D01*
X497031Y213996D01*
X496971Y213927D01*
X496959Y213897D01*
X496940Y213870D01*
X496913Y213783D01*
X496879Y213699D01*
X496875Y213658D01*
X496868Y213635D01*
X496869Y213603D01*
X496861Y213532D01*
X496861Y182068D01*
X496875Y181978D01*
X496883Y181887D01*
X496895Y181857D01*
X496900Y181825D01*
X496943Y181745D01*
X496979Y181661D01*
X497005Y181629D01*
X497016Y181608D01*
X497039Y181586D01*
X497084Y181530D01*
X498302Y180312D01*
X498302Y164488D01*
X497084Y163270D01*
X497031Y163196D01*
X496971Y163127D01*
X496959Y163097D01*
X496940Y163070D01*
X496913Y162983D01*
X496879Y162899D01*
X496875Y162858D01*
X496868Y162835D01*
X496869Y162803D01*
X496861Y162732D01*
X496861Y130868D01*
X496875Y130778D01*
X496883Y130687D01*
X496895Y130657D01*
X496900Y130625D01*
X496943Y130545D01*
X496979Y130461D01*
X497005Y130429D01*
X497016Y130408D01*
X497039Y130386D01*
X497084Y130330D01*
X498302Y129112D01*
X498302Y113288D01*
X487112Y102098D01*
X471288Y102098D01*
G37*
%LPD*%
%LPC*%
G36*
X572888Y153298D02*
X572888Y153298D01*
X561698Y164488D01*
X561698Y180312D01*
X572888Y191502D01*
X588712Y191502D01*
X589930Y190284D01*
X590004Y190231D01*
X590073Y190171D01*
X590103Y190159D01*
X590130Y190140D01*
X590217Y190113D01*
X590301Y190079D01*
X590342Y190075D01*
X590365Y190068D01*
X590397Y190069D01*
X590468Y190061D01*
X882281Y190061D01*
X882371Y190075D01*
X882462Y190083D01*
X882492Y190095D01*
X882524Y190100D01*
X882605Y190143D01*
X882689Y190179D01*
X882721Y190205D01*
X882741Y190216D01*
X882764Y190239D01*
X882820Y190284D01*
X928848Y236312D01*
X928866Y236337D01*
X928936Y236418D01*
X929692Y237510D01*
X929702Y237531D01*
X929717Y237548D01*
X929754Y237642D01*
X929797Y237732D01*
X929800Y237755D01*
X929809Y237776D01*
X929827Y237943D01*
X929827Y255603D01*
X929808Y255718D01*
X929791Y255834D01*
X929789Y255840D01*
X929788Y255846D01*
X929733Y255949D01*
X929680Y256053D01*
X929675Y256058D01*
X929672Y256063D01*
X929588Y256143D01*
X929504Y256226D01*
X929498Y256229D01*
X929494Y256233D01*
X929477Y256241D01*
X929357Y256307D01*
X925817Y257773D01*
X920101Y263489D01*
X917007Y270958D01*
X917007Y279042D01*
X920101Y286511D01*
X925817Y292227D01*
X933286Y295321D01*
X961690Y295321D01*
X969159Y292227D01*
X974875Y286511D01*
X977969Y279042D01*
X977969Y270958D01*
X974875Y263489D01*
X969159Y257773D01*
X965619Y256307D01*
X965519Y256245D01*
X965419Y256185D01*
X965415Y256180D01*
X965410Y256177D01*
X965335Y256087D01*
X965259Y255998D01*
X965257Y255992D01*
X965253Y255987D01*
X965211Y255879D01*
X965167Y255770D01*
X965166Y255762D01*
X965165Y255758D01*
X965164Y255740D01*
X965149Y255603D01*
X965149Y233853D01*
X965154Y233823D01*
X965161Y233717D01*
X965492Y231896D01*
X965166Y230385D01*
X965165Y230374D01*
X965149Y230224D01*
X965149Y228677D01*
X964441Y226968D01*
X964434Y226938D01*
X964400Y226837D01*
X964009Y225029D01*
X963129Y223757D01*
X963124Y223747D01*
X963052Y223615D01*
X962460Y222186D01*
X961152Y220878D01*
X961134Y220853D01*
X961064Y220773D01*
X958153Y216567D01*
X958149Y216557D01*
X958076Y216425D01*
X957484Y214996D01*
X956176Y213688D01*
X956158Y213663D01*
X956088Y213582D01*
X955035Y212061D01*
X953735Y211223D01*
X953727Y211216D01*
X953610Y211122D01*
X899916Y157428D01*
X893425Y154739D01*
X590468Y154739D01*
X590378Y154725D01*
X590287Y154717D01*
X590257Y154705D01*
X590225Y154700D01*
X590145Y154657D01*
X590061Y154621D01*
X590029Y154595D01*
X590008Y154584D01*
X589986Y154561D01*
X589930Y154516D01*
X588712Y153298D01*
X572888Y153298D01*
G37*
%LPD*%
%LPC*%
G36*
X572888Y310798D02*
X572888Y310798D01*
X561698Y321988D01*
X561698Y337812D01*
X572888Y349002D01*
X588712Y349002D01*
X589930Y347784D01*
X590004Y347731D01*
X590073Y347671D01*
X590103Y347659D01*
X590130Y347640D01*
X590217Y347613D01*
X590301Y347579D01*
X590342Y347575D01*
X590365Y347568D01*
X590397Y347569D01*
X590468Y347561D01*
X739369Y347561D01*
X739459Y347575D01*
X739550Y347583D01*
X739580Y347595D01*
X739612Y347600D01*
X739693Y347643D01*
X739777Y347679D01*
X739809Y347705D01*
X739829Y347716D01*
X739852Y347739D01*
X739908Y347784D01*
X779604Y387480D01*
X779657Y387554D01*
X779717Y387624D01*
X779729Y387654D01*
X779748Y387680D01*
X779775Y387767D01*
X779809Y387852D01*
X779813Y387893D01*
X779820Y387915D01*
X779819Y387947D01*
X779827Y388019D01*
X779827Y405603D01*
X779808Y405718D01*
X779791Y405834D01*
X779789Y405840D01*
X779788Y405846D01*
X779733Y405949D01*
X779680Y406053D01*
X779675Y406058D01*
X779672Y406063D01*
X779588Y406143D01*
X779504Y406226D01*
X779498Y406229D01*
X779494Y406233D01*
X779477Y406241D01*
X779357Y406307D01*
X775817Y407773D01*
X770101Y413489D01*
X767007Y420958D01*
X767007Y429042D01*
X770101Y436511D01*
X775817Y442227D01*
X783286Y445321D01*
X811690Y445321D01*
X819159Y442227D01*
X824875Y436511D01*
X827969Y429042D01*
X827969Y420958D01*
X824875Y413489D01*
X819159Y407773D01*
X815619Y406307D01*
X815519Y406245D01*
X815419Y406185D01*
X815415Y406180D01*
X815410Y406177D01*
X815335Y406087D01*
X815259Y405998D01*
X815257Y405992D01*
X815253Y405987D01*
X815211Y405879D01*
X815167Y405770D01*
X815166Y405762D01*
X815165Y405758D01*
X815164Y405740D01*
X815149Y405603D01*
X815149Y376875D01*
X812460Y370384D01*
X757004Y314928D01*
X750513Y312239D01*
X590468Y312239D01*
X590378Y312225D01*
X590287Y312217D01*
X590257Y312205D01*
X590225Y312200D01*
X590145Y312157D01*
X590061Y312121D01*
X590029Y312095D01*
X590008Y312084D01*
X589986Y312061D01*
X589930Y312016D01*
X588712Y310798D01*
X572888Y310798D01*
G37*
%LPD*%
%LPC*%
G36*
X572888Y204098D02*
X572888Y204098D01*
X561698Y215288D01*
X561698Y231112D01*
X572888Y242302D01*
X588712Y242302D01*
X589930Y241084D01*
X590004Y241031D01*
X590073Y240971D01*
X590103Y240959D01*
X590130Y240940D01*
X590217Y240913D01*
X590301Y240879D01*
X590342Y240875D01*
X590365Y240868D01*
X590397Y240869D01*
X590468Y240861D01*
X758057Y240861D01*
X758147Y240875D01*
X758238Y240883D01*
X758268Y240895D01*
X758300Y240900D01*
X758381Y240943D01*
X758465Y240979D01*
X758497Y241005D01*
X758517Y241016D01*
X758540Y241039D01*
X758596Y241084D01*
X775013Y257501D01*
X775024Y257517D01*
X775040Y257529D01*
X775096Y257617D01*
X775156Y257701D01*
X775162Y257720D01*
X775173Y257736D01*
X775198Y257837D01*
X775229Y257936D01*
X775228Y257956D01*
X775233Y257975D01*
X775225Y258078D01*
X775222Y258182D01*
X775215Y258200D01*
X775214Y258220D01*
X775174Y258315D01*
X775138Y258413D01*
X775125Y258428D01*
X775118Y258446D01*
X775013Y258577D01*
X770101Y263489D01*
X767007Y270958D01*
X767007Y279042D01*
X770101Y286511D01*
X775817Y292227D01*
X783286Y295321D01*
X811690Y295321D01*
X819159Y292227D01*
X824875Y286511D01*
X827969Y279042D01*
X827969Y270958D01*
X824875Y263489D01*
X819159Y257773D01*
X815619Y256307D01*
X815519Y256245D01*
X815419Y256185D01*
X815415Y256180D01*
X815410Y256177D01*
X815335Y256087D01*
X815259Y255998D01*
X815257Y255992D01*
X815253Y255987D01*
X815211Y255879D01*
X815167Y255770D01*
X815166Y255762D01*
X815165Y255758D01*
X815164Y255740D01*
X815149Y255603D01*
X815149Y251487D01*
X812460Y244996D01*
X775692Y208228D01*
X769201Y205539D01*
X590468Y205539D01*
X590378Y205525D01*
X590287Y205517D01*
X590257Y205505D01*
X590225Y205500D01*
X590145Y205457D01*
X590061Y205421D01*
X590029Y205395D01*
X590008Y205384D01*
X589986Y205361D01*
X589930Y205316D01*
X588712Y204098D01*
X572888Y204098D01*
G37*
%LPD*%
%LPC*%
G36*
X572888Y102098D02*
X572888Y102098D01*
X561698Y113288D01*
X561698Y129112D01*
X572888Y140302D01*
X588712Y140302D01*
X589930Y139084D01*
X590004Y139031D01*
X590073Y138971D01*
X590103Y138959D01*
X590130Y138940D01*
X590217Y138913D01*
X590301Y138879D01*
X590342Y138875D01*
X590365Y138868D01*
X590397Y138869D01*
X590468Y138861D01*
X772136Y138861D01*
X772226Y138875D01*
X772317Y138883D01*
X772346Y138895D01*
X772378Y138900D01*
X772459Y138943D01*
X772543Y138979D01*
X772575Y139005D01*
X772596Y139016D01*
X772618Y139039D01*
X772674Y139084D01*
X775817Y142227D01*
X783286Y145321D01*
X811690Y145321D01*
X819159Y142227D01*
X824875Y136511D01*
X827969Y129042D01*
X827969Y120958D01*
X824875Y113489D01*
X819159Y107773D01*
X811690Y104679D01*
X800105Y104679D01*
X800040Y104669D01*
X799974Y104668D01*
X799894Y104645D01*
X799862Y104640D01*
X799845Y104630D01*
X799813Y104621D01*
X797201Y103539D01*
X590468Y103539D01*
X590378Y103525D01*
X590287Y103517D01*
X590257Y103505D01*
X590225Y103500D01*
X590145Y103457D01*
X590061Y103421D01*
X590029Y103395D01*
X590008Y103384D01*
X589986Y103361D01*
X589930Y103316D01*
X588712Y102098D01*
X572888Y102098D01*
G37*
%LPD*%
%LPC*%
G36*
X321993Y348487D02*
X321993Y348487D01*
X310387Y360093D01*
X310387Y376507D01*
X314342Y380462D01*
X314354Y380478D01*
X314369Y380490D01*
X314426Y380578D01*
X314486Y380661D01*
X314492Y380680D01*
X314502Y380697D01*
X314528Y380798D01*
X314558Y380897D01*
X314558Y380916D01*
X314563Y380936D01*
X314555Y381039D01*
X314552Y381142D01*
X314545Y381161D01*
X314543Y381181D01*
X314503Y381276D01*
X314467Y381373D01*
X314455Y381389D01*
X314447Y381407D01*
X314342Y381538D01*
X310387Y385493D01*
X310387Y401907D01*
X314342Y405862D01*
X314354Y405878D01*
X314369Y405890D01*
X314426Y405978D01*
X314486Y406061D01*
X314492Y406080D01*
X314502Y406097D01*
X314528Y406198D01*
X314558Y406297D01*
X314558Y406316D01*
X314563Y406336D01*
X314555Y406439D01*
X314552Y406542D01*
X314545Y406561D01*
X314543Y406581D01*
X314503Y406676D01*
X314467Y406773D01*
X314455Y406789D01*
X314447Y406807D01*
X314342Y406938D01*
X310387Y410893D01*
X310387Y427307D01*
X314342Y431262D01*
X314354Y431278D01*
X314369Y431290D01*
X314426Y431378D01*
X314486Y431461D01*
X314492Y431480D01*
X314502Y431497D01*
X314528Y431598D01*
X314558Y431697D01*
X314558Y431716D01*
X314563Y431736D01*
X314555Y431839D01*
X314552Y431942D01*
X314545Y431961D01*
X314543Y431981D01*
X314503Y432076D01*
X314467Y432173D01*
X314455Y432189D01*
X314447Y432207D01*
X314342Y432338D01*
X310387Y436293D01*
X310387Y452707D01*
X319730Y462050D01*
X319742Y462066D01*
X319758Y462078D01*
X319814Y462166D01*
X319874Y462250D01*
X319880Y462269D01*
X319891Y462285D01*
X319916Y462386D01*
X319946Y462485D01*
X319946Y462505D01*
X319951Y462524D01*
X319943Y462627D01*
X319940Y462731D01*
X319933Y462749D01*
X319932Y462769D01*
X319891Y462864D01*
X319856Y462962D01*
X319843Y462977D01*
X319835Y462995D01*
X319730Y463126D01*
X318007Y464850D01*
X318007Y468377D01*
X329438Y468377D01*
X329458Y468380D01*
X329477Y468378D01*
X329579Y468400D01*
X329681Y468417D01*
X329698Y468426D01*
X329718Y468430D01*
X329807Y468483D01*
X329898Y468532D01*
X329912Y468546D01*
X329929Y468556D01*
X329996Y468635D01*
X330067Y468710D01*
X330076Y468728D01*
X330089Y468743D01*
X330127Y468839D01*
X330171Y468933D01*
X330173Y468953D01*
X330181Y468971D01*
X330199Y469138D01*
X330199Y469901D01*
X330962Y469901D01*
X330982Y469904D01*
X331001Y469902D01*
X331103Y469924D01*
X331205Y469941D01*
X331222Y469950D01*
X331242Y469954D01*
X331331Y470007D01*
X331422Y470056D01*
X331436Y470070D01*
X331453Y470080D01*
X331520Y470159D01*
X331591Y470234D01*
X331600Y470252D01*
X331613Y470267D01*
X331652Y470363D01*
X331695Y470457D01*
X331697Y470477D01*
X331705Y470495D01*
X331723Y470662D01*
X331723Y482093D01*
X335250Y482093D01*
X336974Y480370D01*
X336990Y480358D01*
X337002Y480342D01*
X337090Y480286D01*
X337173Y480226D01*
X337192Y480220D01*
X337209Y480209D01*
X337310Y480184D01*
X337408Y480154D01*
X337428Y480154D01*
X337448Y480149D01*
X337551Y480157D01*
X337654Y480160D01*
X337673Y480167D01*
X337693Y480168D01*
X337788Y480209D01*
X337885Y480244D01*
X337901Y480257D01*
X337919Y480265D01*
X338050Y480370D01*
X347393Y489713D01*
X363807Y489713D01*
X375413Y478107D01*
X375413Y461693D01*
X371458Y457738D01*
X371446Y457722D01*
X371431Y457710D01*
X371374Y457622D01*
X371314Y457539D01*
X371308Y457520D01*
X371298Y457503D01*
X371272Y457402D01*
X371242Y457303D01*
X371242Y457284D01*
X371237Y457264D01*
X371245Y457161D01*
X371248Y457058D01*
X371255Y457039D01*
X371257Y457019D01*
X371297Y456924D01*
X371333Y456827D01*
X371345Y456811D01*
X371353Y456793D01*
X371458Y456662D01*
X375413Y452707D01*
X375413Y436293D01*
X371458Y432338D01*
X371446Y432322D01*
X371431Y432310D01*
X371374Y432222D01*
X371314Y432139D01*
X371308Y432120D01*
X371298Y432103D01*
X371272Y432002D01*
X371242Y431903D01*
X371242Y431884D01*
X371237Y431864D01*
X371245Y431761D01*
X371248Y431658D01*
X371255Y431639D01*
X371257Y431619D01*
X371297Y431524D01*
X371333Y431427D01*
X371345Y431411D01*
X371353Y431393D01*
X371458Y431262D01*
X375413Y427307D01*
X375413Y410893D01*
X371458Y406938D01*
X371446Y406922D01*
X371431Y406910D01*
X371374Y406822D01*
X371314Y406739D01*
X371308Y406720D01*
X371298Y406703D01*
X371272Y406602D01*
X371242Y406503D01*
X371242Y406484D01*
X371237Y406464D01*
X371245Y406361D01*
X371248Y406258D01*
X371255Y406239D01*
X371257Y406219D01*
X371297Y406124D01*
X371333Y406027D01*
X371345Y406011D01*
X371353Y405993D01*
X371458Y405862D01*
X375413Y401907D01*
X375413Y385493D01*
X371458Y381538D01*
X371446Y381522D01*
X371431Y381510D01*
X371374Y381422D01*
X371314Y381339D01*
X371308Y381320D01*
X371298Y381303D01*
X371272Y381202D01*
X371242Y381103D01*
X371242Y381084D01*
X371237Y381064D01*
X371245Y380961D01*
X371248Y380858D01*
X371255Y380839D01*
X371257Y380819D01*
X371297Y380724D01*
X371333Y380627D01*
X371345Y380611D01*
X371353Y380593D01*
X371458Y380462D01*
X375413Y376507D01*
X375413Y360093D01*
X363807Y348487D01*
X347393Y348487D01*
X343438Y352442D01*
X343422Y352454D01*
X343410Y352469D01*
X343322Y352526D01*
X343239Y352586D01*
X343220Y352592D01*
X343203Y352602D01*
X343102Y352628D01*
X343003Y352658D01*
X342984Y352658D01*
X342964Y352663D01*
X342861Y352655D01*
X342758Y352652D01*
X342739Y352645D01*
X342719Y352643D01*
X342624Y352603D01*
X342527Y352567D01*
X342511Y352555D01*
X342493Y352547D01*
X342362Y352442D01*
X338407Y348487D01*
X321993Y348487D01*
G37*
%LPD*%
%LPC*%
G36*
X572888Y364998D02*
X572888Y364998D01*
X561698Y376188D01*
X561698Y392012D01*
X562916Y393230D01*
X562969Y393304D01*
X563029Y393373D01*
X563041Y393403D01*
X563060Y393430D01*
X563087Y393517D01*
X563121Y393601D01*
X563125Y393642D01*
X563132Y393665D01*
X563131Y393697D01*
X563139Y393768D01*
X563139Y430232D01*
X563125Y430322D01*
X563117Y430413D01*
X563105Y430443D01*
X563100Y430475D01*
X563057Y430555D01*
X563021Y430639D01*
X562995Y430671D01*
X562984Y430692D01*
X562961Y430714D01*
X562916Y430770D01*
X561698Y431988D01*
X561698Y447812D01*
X562916Y449030D01*
X562969Y449104D01*
X563029Y449173D01*
X563041Y449203D01*
X563060Y449230D01*
X563087Y449317D01*
X563121Y449401D01*
X563125Y449442D01*
X563132Y449465D01*
X563131Y449497D01*
X563139Y449568D01*
X563139Y478657D01*
X563129Y478722D01*
X563128Y478787D01*
X563105Y478867D01*
X563100Y478900D01*
X563090Y478917D01*
X563081Y478949D01*
X559971Y486457D01*
X559971Y494743D01*
X563142Y502399D01*
X569001Y508258D01*
X576657Y511429D01*
X584943Y511429D01*
X592599Y508258D01*
X598458Y502399D01*
X601629Y494743D01*
X601629Y486457D01*
X598519Y478949D01*
X598504Y478885D01*
X598479Y478824D01*
X598470Y478741D01*
X598463Y478709D01*
X598464Y478690D01*
X598461Y478657D01*
X598461Y449568D01*
X598475Y449478D01*
X598483Y449387D01*
X598495Y449357D01*
X598500Y449325D01*
X598543Y449245D01*
X598579Y449161D01*
X598605Y449129D01*
X598616Y449108D01*
X598639Y449086D01*
X598684Y449030D01*
X599902Y447812D01*
X599902Y431988D01*
X598684Y430770D01*
X598631Y430696D01*
X598571Y430627D01*
X598559Y430597D01*
X598540Y430570D01*
X598513Y430483D01*
X598479Y430399D01*
X598475Y430358D01*
X598468Y430335D01*
X598469Y430303D01*
X598461Y430232D01*
X598461Y393768D01*
X598475Y393678D01*
X598483Y393587D01*
X598495Y393557D01*
X598500Y393525D01*
X598543Y393445D01*
X598579Y393361D01*
X598605Y393329D01*
X598616Y393308D01*
X598639Y393286D01*
X598684Y393230D01*
X599902Y392012D01*
X599902Y376188D01*
X588712Y364998D01*
X572888Y364998D01*
G37*
%LPD*%
%LPC*%
G36*
X633286Y254679D02*
X633286Y254679D01*
X627004Y257281D01*
X626940Y257296D01*
X626879Y257321D01*
X626797Y257330D01*
X626765Y257337D01*
X626745Y257336D01*
X626713Y257339D01*
X590468Y257339D01*
X590378Y257325D01*
X590287Y257317D01*
X590257Y257305D01*
X590225Y257300D01*
X590145Y257257D01*
X590061Y257221D01*
X590029Y257195D01*
X590008Y257184D01*
X589986Y257161D01*
X589930Y257116D01*
X588712Y255898D01*
X572888Y255898D01*
X561698Y267088D01*
X561698Y282912D01*
X572888Y294102D01*
X588712Y294102D01*
X589930Y292884D01*
X590004Y292831D01*
X590073Y292771D01*
X590103Y292759D01*
X590130Y292740D01*
X590217Y292713D01*
X590301Y292679D01*
X590342Y292675D01*
X590365Y292668D01*
X590397Y292669D01*
X590468Y292661D01*
X626713Y292661D01*
X626777Y292671D01*
X626843Y292672D01*
X626923Y292695D01*
X626955Y292700D01*
X626973Y292710D01*
X627004Y292719D01*
X633286Y295321D01*
X661690Y295321D01*
X669159Y292227D01*
X674875Y286511D01*
X677969Y279042D01*
X677969Y270958D01*
X674875Y263489D01*
X669159Y257773D01*
X661690Y254679D01*
X633286Y254679D01*
G37*
%LPD*%
%LPC*%
G36*
X714035Y276523D02*
X714035Y276523D01*
X714035Y287701D01*
X723672Y287701D01*
X725646Y287388D01*
X727547Y286770D01*
X729329Y285863D01*
X730946Y284687D01*
X732359Y283274D01*
X733535Y281657D01*
X734442Y279875D01*
X735060Y277974D01*
X735290Y276523D01*
X714035Y276523D01*
G37*
%LPD*%
%LPC*%
G36*
X864035Y276523D02*
X864035Y276523D01*
X864035Y287701D01*
X873672Y287701D01*
X875646Y287388D01*
X877547Y286770D01*
X879329Y285863D01*
X880946Y284687D01*
X882359Y283274D01*
X883535Y281657D01*
X884442Y279875D01*
X885060Y277974D01*
X885290Y276523D01*
X864035Y276523D01*
G37*
%LPD*%
%LPC*%
G36*
X864035Y126523D02*
X864035Y126523D01*
X864035Y137701D01*
X873672Y137701D01*
X875646Y137388D01*
X877547Y136770D01*
X879329Y135863D01*
X880946Y134687D01*
X882359Y133274D01*
X883535Y131657D01*
X884442Y129875D01*
X885060Y127974D01*
X885290Y126523D01*
X864035Y126523D01*
G37*
%LPD*%
%LPC*%
G36*
X864035Y426523D02*
X864035Y426523D01*
X864035Y437701D01*
X873672Y437701D01*
X875646Y437388D01*
X877547Y436770D01*
X879329Y435863D01*
X880946Y434687D01*
X882359Y433274D01*
X883535Y431657D01*
X884442Y429875D01*
X885060Y427974D01*
X885290Y426523D01*
X864035Y426523D01*
G37*
%LPD*%
%LPC*%
G36*
X1014035Y276523D02*
X1014035Y276523D01*
X1014035Y287701D01*
X1023672Y287701D01*
X1025646Y287388D01*
X1027547Y286770D01*
X1029329Y285863D01*
X1030946Y284687D01*
X1032359Y283274D01*
X1033535Y281657D01*
X1034442Y279875D01*
X1035060Y277974D01*
X1035290Y276523D01*
X1014035Y276523D01*
G37*
%LPD*%
%LPC*%
G36*
X839734Y426523D02*
X839734Y426523D01*
X839964Y427974D01*
X840582Y429875D01*
X841489Y431657D01*
X842665Y433274D01*
X844078Y434687D01*
X845695Y435863D01*
X847477Y436770D01*
X849378Y437388D01*
X851352Y437701D01*
X860989Y437701D01*
X860989Y426523D01*
X839734Y426523D01*
G37*
%LPD*%
%LPC*%
G36*
X989734Y276523D02*
X989734Y276523D01*
X989964Y277974D01*
X990582Y279875D01*
X991489Y281657D01*
X992665Y283274D01*
X994078Y284687D01*
X995695Y285863D01*
X997477Y286770D01*
X999378Y287388D01*
X1001352Y287701D01*
X1010989Y287701D01*
X1010989Y276523D01*
X989734Y276523D01*
G37*
%LPD*%
%LPC*%
G36*
X689734Y276523D02*
X689734Y276523D01*
X689964Y277974D01*
X690582Y279875D01*
X691489Y281657D01*
X692665Y283274D01*
X694078Y284687D01*
X695695Y285863D01*
X697477Y286770D01*
X699378Y287388D01*
X701352Y287701D01*
X710989Y287701D01*
X710989Y276523D01*
X689734Y276523D01*
G37*
%LPD*%
%LPC*%
G36*
X839734Y276523D02*
X839734Y276523D01*
X839964Y277974D01*
X840582Y279875D01*
X841489Y281657D01*
X842665Y283274D01*
X844078Y284687D01*
X845695Y285863D01*
X847477Y286770D01*
X849378Y287388D01*
X851352Y287701D01*
X860989Y287701D01*
X860989Y276523D01*
X839734Y276523D01*
G37*
%LPD*%
%LPC*%
G36*
X839734Y126523D02*
X839734Y126523D01*
X839964Y127974D01*
X840582Y129875D01*
X841489Y131657D01*
X842665Y133274D01*
X844078Y134687D01*
X845695Y135863D01*
X847477Y136770D01*
X849378Y137388D01*
X851352Y137701D01*
X860989Y137701D01*
X860989Y126523D01*
X839734Y126523D01*
G37*
%LPD*%
%LPC*%
G36*
X864035Y412299D02*
X864035Y412299D01*
X864035Y423477D01*
X885290Y423477D01*
X885060Y422026D01*
X884442Y420125D01*
X883535Y418343D01*
X882359Y416726D01*
X880946Y415313D01*
X879329Y414137D01*
X877547Y413230D01*
X875646Y412612D01*
X873672Y412299D01*
X864035Y412299D01*
G37*
%LPD*%
%LPC*%
G36*
X1014035Y262299D02*
X1014035Y262299D01*
X1014035Y273477D01*
X1035290Y273477D01*
X1035060Y272026D01*
X1034442Y270125D01*
X1033535Y268343D01*
X1032359Y266726D01*
X1030946Y265313D01*
X1029329Y264137D01*
X1027547Y263230D01*
X1025646Y262612D01*
X1023672Y262299D01*
X1014035Y262299D01*
G37*
%LPD*%
%LPC*%
G36*
X864035Y262299D02*
X864035Y262299D01*
X864035Y273477D01*
X885290Y273477D01*
X885060Y272026D01*
X884442Y270125D01*
X883535Y268343D01*
X882359Y266726D01*
X880946Y265313D01*
X879329Y264137D01*
X877547Y263230D01*
X875646Y262612D01*
X873672Y262299D01*
X864035Y262299D01*
G37*
%LPD*%
%LPC*%
G36*
X714035Y262299D02*
X714035Y262299D01*
X714035Y273477D01*
X735290Y273477D01*
X735060Y272026D01*
X734442Y270125D01*
X733535Y268343D01*
X732359Y266726D01*
X730946Y265313D01*
X729329Y264137D01*
X727547Y263230D01*
X725646Y262612D01*
X723672Y262299D01*
X714035Y262299D01*
G37*
%LPD*%
%LPC*%
G36*
X864035Y112299D02*
X864035Y112299D01*
X864035Y123477D01*
X885290Y123477D01*
X885060Y122026D01*
X884442Y120125D01*
X883535Y118343D01*
X882359Y116726D01*
X880946Y115313D01*
X879329Y114137D01*
X877547Y113230D01*
X875646Y112612D01*
X873672Y112299D01*
X864035Y112299D01*
G37*
%LPD*%
%LPC*%
G36*
X1001352Y262299D02*
X1001352Y262299D01*
X999378Y262612D01*
X997477Y263230D01*
X995695Y264137D01*
X994078Y265313D01*
X992665Y266726D01*
X991489Y268343D01*
X990582Y270125D01*
X989964Y272026D01*
X989734Y273477D01*
X1010989Y273477D01*
X1010989Y262299D01*
X1001352Y262299D01*
G37*
%LPD*%
%LPC*%
G36*
X851352Y262299D02*
X851352Y262299D01*
X849378Y262612D01*
X847477Y263230D01*
X845695Y264137D01*
X844078Y265313D01*
X842665Y266726D01*
X841489Y268343D01*
X840582Y270125D01*
X839964Y272026D01*
X839734Y273477D01*
X860989Y273477D01*
X860989Y262299D01*
X851352Y262299D01*
G37*
%LPD*%
%LPC*%
G36*
X701352Y262299D02*
X701352Y262299D01*
X699378Y262612D01*
X697477Y263230D01*
X695695Y264137D01*
X694078Y265313D01*
X692665Y266726D01*
X691489Y268343D01*
X690582Y270125D01*
X689964Y272026D01*
X689734Y273477D01*
X710989Y273477D01*
X710989Y262299D01*
X701352Y262299D01*
G37*
%LPD*%
%LPC*%
G36*
X851352Y412299D02*
X851352Y412299D01*
X849378Y412612D01*
X847477Y413230D01*
X845695Y414137D01*
X844078Y415313D01*
X842665Y416726D01*
X841489Y418343D01*
X840582Y420125D01*
X839964Y422026D01*
X839734Y423477D01*
X860989Y423477D01*
X860989Y412299D01*
X851352Y412299D01*
G37*
%LPD*%
%LPC*%
G36*
X851352Y112299D02*
X851352Y112299D01*
X849378Y112612D01*
X847477Y113230D01*
X845695Y114137D01*
X844078Y115313D01*
X842665Y116726D01*
X841489Y118343D01*
X840582Y120125D01*
X839964Y122026D01*
X839734Y123477D01*
X860989Y123477D01*
X860989Y112299D01*
X851352Y112299D01*
G37*
%LPD*%
%LPC*%
G36*
X480723Y492123D02*
X480723Y492123D01*
X480723Y503732D01*
X482293Y503483D01*
X484270Y502841D01*
X486123Y501897D01*
X487805Y500675D01*
X489275Y499205D01*
X490497Y497523D01*
X491441Y495670D01*
X492083Y493693D01*
X492332Y492123D01*
X480723Y492123D01*
G37*
%LPD*%
%LPC*%
G36*
X466068Y492123D02*
X466068Y492123D01*
X466317Y493693D01*
X466959Y495670D01*
X467903Y497523D01*
X469125Y499205D01*
X470595Y500675D01*
X472277Y501897D01*
X474130Y502841D01*
X476107Y503483D01*
X477677Y503732D01*
X477677Y492123D01*
X466068Y492123D01*
G37*
%LPD*%
%LPC*%
G36*
X480723Y489077D02*
X480723Y489077D01*
X492332Y489077D01*
X492083Y487507D01*
X491441Y485530D01*
X490497Y483677D01*
X489275Y481995D01*
X487805Y480525D01*
X486123Y479303D01*
X484270Y478359D01*
X482293Y477717D01*
X480723Y477468D01*
X480723Y489077D01*
G37*
%LPD*%
%LPC*%
G36*
X476107Y477717D02*
X476107Y477717D01*
X474130Y478359D01*
X472277Y479303D01*
X470595Y480525D01*
X469125Y481995D01*
X467903Y483677D01*
X466959Y485530D01*
X466317Y487507D01*
X466068Y489077D01*
X477677Y489077D01*
X477677Y477468D01*
X476107Y477717D01*
G37*
%LPD*%
%LPC*%
G36*
X318007Y471423D02*
X318007Y471423D01*
X318007Y474950D01*
X325150Y482093D01*
X328677Y482093D01*
X328677Y471423D01*
X318007Y471423D01*
G37*
%LPD*%
%LPC*%
G36*
X479199Y490599D02*
X479199Y490599D01*
X479199Y490601D01*
X479201Y490601D01*
X479201Y490599D01*
X479199Y490599D01*
G37*
%LPD*%
%LPC*%
G36*
X712511Y274999D02*
X712511Y274999D01*
X712511Y275001D01*
X712513Y275001D01*
X712513Y274999D01*
X712511Y274999D01*
G37*
%LPD*%
%LPC*%
G36*
X1012511Y274999D02*
X1012511Y274999D01*
X1012511Y275001D01*
X1012513Y275001D01*
X1012513Y274999D01*
X1012511Y274999D01*
G37*
%LPD*%
%LPC*%
G36*
X862511Y274999D02*
X862511Y274999D01*
X862511Y275001D01*
X862513Y275001D01*
X862513Y274999D01*
X862511Y274999D01*
G37*
%LPD*%
%LPC*%
G36*
X862511Y424999D02*
X862511Y424999D01*
X862511Y425001D01*
X862513Y425001D01*
X862513Y424999D01*
X862511Y424999D01*
G37*
%LPD*%
%LPC*%
G36*
X862511Y124999D02*
X862511Y124999D01*
X862511Y125001D01*
X862513Y125001D01*
X862513Y124999D01*
X862511Y124999D01*
G37*
%LPD*%
D10*
X722672Y275000D02*
X702352Y275000D01*
X657648Y275000D02*
X637328Y275000D01*
X852352Y425000D02*
X872672Y425000D01*
X807648Y425000D02*
X787328Y425000D01*
X852352Y275000D02*
X872672Y275000D01*
X807648Y275000D02*
X787328Y275000D01*
X852352Y125000D02*
X872672Y125000D01*
X807648Y125000D02*
X787328Y125000D01*
X1002352Y275000D02*
X1022672Y275000D01*
X957648Y275000D02*
X937328Y275000D01*
D11*
X580800Y439900D03*
X479200Y439900D03*
D12*
X479200Y384100D03*
X580800Y384100D03*
D11*
X580800Y275000D03*
X479200Y275000D03*
X580800Y329900D03*
X479200Y329900D03*
X580800Y223200D03*
X479200Y223200D03*
X580800Y121200D03*
X479200Y121200D03*
X580800Y172400D03*
X479200Y172400D03*
D13*
X580800Y490600D03*
X479200Y490600D03*
D14*
X330200Y368300D03*
X355600Y368300D03*
X330200Y393700D03*
X355600Y393700D03*
X330200Y419100D03*
X355600Y419100D03*
X330200Y444500D03*
X355600Y444500D03*
X330200Y469900D03*
X355600Y469900D03*
D15*
X131800Y362200D03*
D14*
X157200Y362200D03*
X131800Y387600D03*
X157200Y387600D03*
X131800Y413000D03*
X157200Y413000D03*
X131800Y438400D03*
X157200Y438400D03*
X131800Y463800D03*
X157200Y463800D03*
D16*
X580800Y439900D02*
X580800Y490600D01*
D17*
X580800Y384100D01*
X580800Y275000D02*
X647488Y275000D01*
X747000Y329900D02*
X797488Y380388D01*
X747000Y329900D02*
X580800Y329900D01*
X797488Y380388D02*
X797488Y425000D01*
X797488Y275000D02*
X797488Y255000D01*
X765688Y223200D01*
X580800Y223200D01*
X793688Y121200D02*
X797488Y125000D01*
X793688Y121200D02*
X580800Y121200D01*
X580800Y172400D02*
X889912Y172400D01*
X947488Y232190D02*
X947488Y275000D01*
X947488Y232190D02*
X942512Y225000D01*
X889912Y172400D01*
D18*
X275000Y480000D03*
X220000Y350000D03*
D17*
X454200Y464900D02*
X479200Y439900D01*
X454200Y464900D02*
X420100Y464900D01*
X420000Y465000D01*
D18*
X420000Y465000D03*
D17*
X131800Y362200D02*
X131800Y348200D01*
X140000Y340000D01*
D18*
X185000Y340000D03*
D17*
X140000Y340000D01*
D16*
X159800Y385000D02*
X157200Y387600D01*
D18*
X275000Y385000D03*
D17*
X159800Y385000D01*
X157200Y413000D02*
X213000Y413000D01*
X244500Y444500D01*
D18*
X275000Y445000D03*
D16*
X274500Y444500D01*
D17*
X244500Y444500D01*
D18*
X140000Y500000D03*
D17*
X170000Y500000D01*
X195000Y475000D01*
X195000Y455000D01*
X178400Y438400D01*
X157200Y438400D01*
X131800Y438400D02*
X78400Y438400D01*
X70000Y430000D01*
X70000Y305000D01*
X90000Y285000D01*
X370000Y285000D01*
D18*
X420000Y380000D03*
D17*
X420000Y335000D01*
X370000Y285000D01*
D18*
X95000Y415000D03*
D16*
X97000Y413000D02*
X131800Y413000D01*
X97000Y413000D02*
X95000Y415000D01*
D17*
X102600Y387600D02*
X131800Y387600D01*
X95000Y380000D02*
X95000Y320000D01*
X105000Y310000D01*
X95000Y380000D02*
X102600Y387600D01*
X105000Y310000D02*
X275000Y310000D01*
D18*
X275000Y310000D03*
D17*
X479200Y172400D02*
X479200Y121200D01*
X479200Y172400D02*
X479200Y223200D01*
X479200Y275000D01*
X479200Y329900D01*
X479200Y384100D01*
X479200Y390800D02*
X445000Y425000D01*
D16*
X479200Y390800D02*
X479200Y384100D01*
D18*
X420000Y425000D03*
D17*
X445000Y425000D01*
D19*
X50000Y212000D02*
X356000Y212000D01*
X355600Y0D01*
X1050000Y0D01*
X1050000Y550000D01*
X50000Y550000D01*
X50000Y212000D01*
X444000Y517927D02*
X443925Y516784D01*
X443776Y515648D01*
X443552Y514524D01*
X443255Y513417D01*
X442887Y512332D01*
X442449Y511274D01*
X441942Y510246D01*
X441369Y509254D01*
X440732Y508301D01*
X440035Y507392D01*
X439279Y506531D01*
X438469Y505721D01*
X437608Y504965D01*
X436699Y504268D01*
X435746Y503631D01*
X434754Y503058D01*
X433726Y502551D01*
X432668Y502113D01*
X431583Y501745D01*
X430476Y501448D01*
X429352Y501225D01*
X428216Y501075D01*
X427073Y501000D01*
X425927Y501000D01*
X424784Y501075D01*
X423648Y501225D01*
X422524Y501448D01*
X421417Y501745D01*
X420332Y502113D01*
X419274Y502551D01*
X418246Y503058D01*
X417254Y503631D01*
X416301Y504268D01*
X415392Y504965D01*
X414531Y505721D01*
X413721Y506531D01*
X412965Y507392D01*
X412268Y508301D01*
X411631Y509254D01*
X411058Y510246D01*
X410551Y511274D01*
X410113Y512332D01*
X409745Y513417D01*
X409448Y514524D01*
X409225Y515648D01*
X409075Y516784D01*
X409000Y517927D01*
X409000Y519073D01*
X409075Y520216D01*
X409225Y521352D01*
X409448Y522476D01*
X409745Y523583D01*
X410113Y524668D01*
X410551Y525726D01*
X411058Y526754D01*
X411631Y527746D01*
X412268Y528699D01*
X412965Y529608D01*
X413721Y530469D01*
X414531Y531279D01*
X415392Y532035D01*
X416301Y532732D01*
X417254Y533369D01*
X418246Y533942D01*
X419274Y534449D01*
X420332Y534887D01*
X421417Y535255D01*
X422524Y535552D01*
X423648Y535776D01*
X424784Y535925D01*
X425927Y536000D01*
X427073Y536000D01*
X428216Y535925D01*
X429352Y535776D01*
X430476Y535552D01*
X431583Y535255D01*
X432668Y534887D01*
X433726Y534449D01*
X434754Y533942D01*
X435746Y533369D01*
X436699Y532732D01*
X437608Y532035D01*
X438469Y531279D01*
X439279Y530469D01*
X440035Y529608D01*
X440732Y528699D01*
X441369Y527746D01*
X441942Y526754D01*
X442449Y525726D01*
X442887Y524668D01*
X443255Y523583D01*
X443552Y522476D01*
X443776Y521352D01*
X443925Y520216D01*
X444000Y519073D01*
X444000Y517927D01*
X444000Y30927D02*
X443925Y29784D01*
X443776Y28648D01*
X443552Y27524D01*
X443255Y26417D01*
X442887Y25332D01*
X442449Y24274D01*
X441942Y23246D01*
X441369Y22254D01*
X440732Y21301D01*
X440035Y20392D01*
X439279Y19531D01*
X438469Y18721D01*
X437608Y17965D01*
X436699Y17268D01*
X435746Y16631D01*
X434754Y16058D01*
X433726Y15551D01*
X432668Y15113D01*
X431583Y14745D01*
X430476Y14448D01*
X429352Y14225D01*
X428216Y14075D01*
X427073Y14000D01*
X425927Y14000D01*
X424784Y14075D01*
X423648Y14225D01*
X422524Y14448D01*
X421417Y14745D01*
X420332Y15113D01*
X419274Y15551D01*
X418246Y16058D01*
X417254Y16631D01*
X416301Y17268D01*
X415392Y17965D01*
X414531Y18721D01*
X413721Y19531D01*
X412965Y20392D01*
X412268Y21301D01*
X411631Y22254D01*
X411058Y23246D01*
X410551Y24274D01*
X410113Y25332D01*
X409745Y26417D01*
X409448Y27524D01*
X409225Y28648D01*
X409075Y29784D01*
X409000Y30927D01*
X409000Y32073D01*
X409075Y33216D01*
X409225Y34352D01*
X409448Y35476D01*
X409745Y36583D01*
X410113Y37668D01*
X410551Y38726D01*
X411058Y39754D01*
X411631Y40746D01*
X412268Y41699D01*
X412965Y42608D01*
X413721Y43469D01*
X414531Y44279D01*
X415392Y45035D01*
X416301Y45732D01*
X417254Y46369D01*
X418246Y46942D01*
X419274Y47449D01*
X420332Y47887D01*
X421417Y48255D01*
X422524Y48552D01*
X423648Y48776D01*
X424784Y48925D01*
X425927Y49000D01*
X427073Y49000D01*
X428216Y48925D01*
X429352Y48776D01*
X430476Y48552D01*
X431583Y48255D01*
X432668Y47887D01*
X433726Y47449D01*
X434754Y46942D01*
X435746Y46369D01*
X436699Y45732D01*
X437608Y45035D01*
X438469Y44279D01*
X439279Y43469D01*
X440035Y42608D01*
X440732Y41699D01*
X441369Y40746D01*
X441942Y39754D01*
X442449Y38726D01*
X442887Y37668D01*
X443255Y36583D01*
X443552Y35476D01*
X443776Y34352D01*
X443925Y33216D01*
X444000Y32073D01*
X444000Y30927D01*
X1017500Y30927D02*
X1017425Y29784D01*
X1017276Y28648D01*
X1017052Y27524D01*
X1016755Y26417D01*
X1016387Y25332D01*
X1015949Y24274D01*
X1015442Y23246D01*
X1014869Y22254D01*
X1014232Y21301D01*
X1013535Y20392D01*
X1012779Y19531D01*
X1011969Y18721D01*
X1011108Y17965D01*
X1010199Y17268D01*
X1009246Y16631D01*
X1008254Y16058D01*
X1007226Y15551D01*
X1006168Y15113D01*
X1005083Y14745D01*
X1003976Y14448D01*
X1002852Y14225D01*
X1001716Y14075D01*
X1000573Y14000D01*
X999427Y14000D01*
X998284Y14075D01*
X997148Y14225D01*
X996024Y14448D01*
X994917Y14745D01*
X993832Y15113D01*
X992774Y15551D01*
X991746Y16058D01*
X990754Y16631D01*
X989801Y17268D01*
X988892Y17965D01*
X988031Y18721D01*
X987221Y19531D01*
X986465Y20392D01*
X985768Y21301D01*
X985131Y22254D01*
X984558Y23246D01*
X984051Y24274D01*
X983613Y25332D01*
X983245Y26417D01*
X982948Y27524D01*
X982725Y28648D01*
X982575Y29784D01*
X982500Y30927D01*
X982500Y32073D01*
X982575Y33216D01*
X982725Y34352D01*
X982948Y35476D01*
X983245Y36583D01*
X983613Y37668D01*
X984051Y38726D01*
X984558Y39754D01*
X985131Y40746D01*
X985768Y41699D01*
X986465Y42608D01*
X987221Y43469D01*
X988031Y44279D01*
X988892Y45035D01*
X989801Y45732D01*
X990754Y46369D01*
X991746Y46942D01*
X992774Y47449D01*
X993832Y47887D01*
X994917Y48255D01*
X996024Y48552D01*
X997148Y48776D01*
X998284Y48925D01*
X999427Y49000D01*
X1000573Y49000D01*
X1001716Y48925D01*
X1002852Y48776D01*
X1003976Y48552D01*
X1005083Y48255D01*
X1006168Y47887D01*
X1007226Y47449D01*
X1008254Y46942D01*
X1009246Y46369D01*
X1010199Y45732D01*
X1011108Y45035D01*
X1011969Y44279D01*
X1012779Y43469D01*
X1013535Y42608D01*
X1014232Y41699D01*
X1014869Y40746D01*
X1015442Y39754D01*
X1015949Y38726D01*
X1016387Y37668D01*
X1016755Y36583D01*
X1017052Y35476D01*
X1017276Y34352D01*
X1017425Y33216D01*
X1017500Y32073D01*
X1017500Y30927D01*
X1017500Y517927D02*
X1017425Y516784D01*
X1017276Y515648D01*
X1017052Y514524D01*
X1016755Y513417D01*
X1016387Y512332D01*
X1015949Y511274D01*
X1015442Y510246D01*
X1014869Y509254D01*
X1014232Y508301D01*
X1013535Y507392D01*
X1012779Y506531D01*
X1011969Y505721D01*
X1011108Y504965D01*
X1010199Y504268D01*
X1009246Y503631D01*
X1008254Y503058D01*
X1007226Y502551D01*
X1006168Y502113D01*
X1005083Y501745D01*
X1003976Y501448D01*
X1002852Y501225D01*
X1001716Y501075D01*
X1000573Y501000D01*
X999427Y501000D01*
X998284Y501075D01*
X997148Y501225D01*
X996024Y501448D01*
X994917Y501745D01*
X993832Y502113D01*
X992774Y502551D01*
X991746Y503058D01*
X990754Y503631D01*
X989801Y504268D01*
X988892Y504965D01*
X988031Y505721D01*
X987221Y506531D01*
X986465Y507392D01*
X985768Y508301D01*
X985131Y509254D01*
X984558Y510246D01*
X984051Y511274D01*
X983613Y512332D01*
X983245Y513417D01*
X982948Y514524D01*
X982725Y515648D01*
X982575Y516784D01*
X982500Y517927D01*
X982500Y519073D01*
X982575Y520216D01*
X982725Y521352D01*
X982948Y522476D01*
X983245Y523583D01*
X983613Y524668D01*
X984051Y525726D01*
X984558Y526754D01*
X985131Y527746D01*
X985768Y528699D01*
X986465Y529608D01*
X987221Y530469D01*
X988031Y531279D01*
X988892Y532035D01*
X989801Y532732D01*
X990754Y533369D01*
X991746Y533942D01*
X992774Y534449D01*
X993832Y534887D01*
X994917Y535255D01*
X996024Y535552D01*
X997148Y535776D01*
X998284Y535925D01*
X999427Y536000D01*
X1000573Y536000D01*
X1001716Y535925D01*
X1002852Y535776D01*
X1003976Y535552D01*
X1005083Y535255D01*
X1006168Y534887D01*
X1007226Y534449D01*
X1008254Y533942D01*
X1009246Y533369D01*
X1010199Y532732D01*
X1011108Y532035D01*
X1011969Y531279D01*
X1012779Y530469D01*
X1013535Y529608D01*
X1014232Y528699D01*
X1014869Y527746D01*
X1015442Y526754D01*
X1015949Y525726D01*
X1016387Y524668D01*
X1016755Y523583D01*
X1017052Y522476D01*
X1017276Y521352D01*
X1017425Y520216D01*
X1017500Y519073D01*
X1017500Y517927D01*
M02*
