G04 EAGLE Gerber RS-274X export*
G75*
%MOMM*%
%FSLAX34Y34*%
%LPD*%
%IN*%
%IPPOS*%
%AMOC8*
5,1,8,0,0,1.08239X$1,22.5*%
G01*
%ADD10C,0.254000*%


D10*
X50000Y212000D02*
X356000Y212000D01*
X355600Y0D01*
X1050000Y0D01*
X1050000Y550000D01*
X50000Y550000D01*
X50000Y212000D01*
X444000Y517927D02*
X443925Y516784D01*
X443776Y515648D01*
X443552Y514524D01*
X443255Y513417D01*
X442887Y512332D01*
X442449Y511274D01*
X441942Y510246D01*
X441369Y509254D01*
X440732Y508301D01*
X440035Y507392D01*
X439279Y506531D01*
X438469Y505721D01*
X437608Y504965D01*
X436699Y504268D01*
X435746Y503631D01*
X434754Y503058D01*
X433726Y502551D01*
X432668Y502113D01*
X431583Y501745D01*
X430476Y501448D01*
X429352Y501225D01*
X428216Y501075D01*
X427073Y501000D01*
X425927Y501000D01*
X424784Y501075D01*
X423648Y501225D01*
X422524Y501448D01*
X421417Y501745D01*
X420332Y502113D01*
X419274Y502551D01*
X418246Y503058D01*
X417254Y503631D01*
X416301Y504268D01*
X415392Y504965D01*
X414531Y505721D01*
X413721Y506531D01*
X412965Y507392D01*
X412268Y508301D01*
X411631Y509254D01*
X411058Y510246D01*
X410551Y511274D01*
X410113Y512332D01*
X409745Y513417D01*
X409448Y514524D01*
X409225Y515648D01*
X409075Y516784D01*
X409000Y517927D01*
X409000Y519073D01*
X409075Y520216D01*
X409225Y521352D01*
X409448Y522476D01*
X409745Y523583D01*
X410113Y524668D01*
X410551Y525726D01*
X411058Y526754D01*
X411631Y527746D01*
X412268Y528699D01*
X412965Y529608D01*
X413721Y530469D01*
X414531Y531279D01*
X415392Y532035D01*
X416301Y532732D01*
X417254Y533369D01*
X418246Y533942D01*
X419274Y534449D01*
X420332Y534887D01*
X421417Y535255D01*
X422524Y535552D01*
X423648Y535776D01*
X424784Y535925D01*
X425927Y536000D01*
X427073Y536000D01*
X428216Y535925D01*
X429352Y535776D01*
X430476Y535552D01*
X431583Y535255D01*
X432668Y534887D01*
X433726Y534449D01*
X434754Y533942D01*
X435746Y533369D01*
X436699Y532732D01*
X437608Y532035D01*
X438469Y531279D01*
X439279Y530469D01*
X440035Y529608D01*
X440732Y528699D01*
X441369Y527746D01*
X441942Y526754D01*
X442449Y525726D01*
X442887Y524668D01*
X443255Y523583D01*
X443552Y522476D01*
X443776Y521352D01*
X443925Y520216D01*
X444000Y519073D01*
X444000Y517927D01*
X444000Y30927D02*
X443925Y29784D01*
X443776Y28648D01*
X443552Y27524D01*
X443255Y26417D01*
X442887Y25332D01*
X442449Y24274D01*
X441942Y23246D01*
X441369Y22254D01*
X440732Y21301D01*
X440035Y20392D01*
X439279Y19531D01*
X438469Y18721D01*
X437608Y17965D01*
X436699Y17268D01*
X435746Y16631D01*
X434754Y16058D01*
X433726Y15551D01*
X432668Y15113D01*
X431583Y14745D01*
X430476Y14448D01*
X429352Y14225D01*
X428216Y14075D01*
X427073Y14000D01*
X425927Y14000D01*
X424784Y14075D01*
X423648Y14225D01*
X422524Y14448D01*
X421417Y14745D01*
X420332Y15113D01*
X419274Y15551D01*
X418246Y16058D01*
X417254Y16631D01*
X416301Y17268D01*
X415392Y17965D01*
X414531Y18721D01*
X413721Y19531D01*
X412965Y20392D01*
X412268Y21301D01*
X411631Y22254D01*
X411058Y23246D01*
X410551Y24274D01*
X410113Y25332D01*
X409745Y26417D01*
X409448Y27524D01*
X409225Y28648D01*
X409075Y29784D01*
X409000Y30927D01*
X409000Y32073D01*
X409075Y33216D01*
X409225Y34352D01*
X409448Y35476D01*
X409745Y36583D01*
X410113Y37668D01*
X410551Y38726D01*
X411058Y39754D01*
X411631Y40746D01*
X412268Y41699D01*
X412965Y42608D01*
X413721Y43469D01*
X414531Y44279D01*
X415392Y45035D01*
X416301Y45732D01*
X417254Y46369D01*
X418246Y46942D01*
X419274Y47449D01*
X420332Y47887D01*
X421417Y48255D01*
X422524Y48552D01*
X423648Y48776D01*
X424784Y48925D01*
X425927Y49000D01*
X427073Y49000D01*
X428216Y48925D01*
X429352Y48776D01*
X430476Y48552D01*
X431583Y48255D01*
X432668Y47887D01*
X433726Y47449D01*
X434754Y46942D01*
X435746Y46369D01*
X436699Y45732D01*
X437608Y45035D01*
X438469Y44279D01*
X439279Y43469D01*
X440035Y42608D01*
X440732Y41699D01*
X441369Y40746D01*
X441942Y39754D01*
X442449Y38726D01*
X442887Y37668D01*
X443255Y36583D01*
X443552Y35476D01*
X443776Y34352D01*
X443925Y33216D01*
X444000Y32073D01*
X444000Y30927D01*
X1017500Y30927D02*
X1017425Y29784D01*
X1017276Y28648D01*
X1017052Y27524D01*
X1016755Y26417D01*
X1016387Y25332D01*
X1015949Y24274D01*
X1015442Y23246D01*
X1014869Y22254D01*
X1014232Y21301D01*
X1013535Y20392D01*
X1012779Y19531D01*
X1011969Y18721D01*
X1011108Y17965D01*
X1010199Y17268D01*
X1009246Y16631D01*
X1008254Y16058D01*
X1007226Y15551D01*
X1006168Y15113D01*
X1005083Y14745D01*
X1003976Y14448D01*
X1002852Y14225D01*
X1001716Y14075D01*
X1000573Y14000D01*
X999427Y14000D01*
X998284Y14075D01*
X997148Y14225D01*
X996024Y14448D01*
X994917Y14745D01*
X993832Y15113D01*
X992774Y15551D01*
X991746Y16058D01*
X990754Y16631D01*
X989801Y17268D01*
X988892Y17965D01*
X988031Y18721D01*
X987221Y19531D01*
X986465Y20392D01*
X985768Y21301D01*
X985131Y22254D01*
X984558Y23246D01*
X984051Y24274D01*
X983613Y25332D01*
X983245Y26417D01*
X982948Y27524D01*
X982725Y28648D01*
X982575Y29784D01*
X982500Y30927D01*
X982500Y32073D01*
X982575Y33216D01*
X982725Y34352D01*
X982948Y35476D01*
X983245Y36583D01*
X983613Y37668D01*
X984051Y38726D01*
X984558Y39754D01*
X985131Y40746D01*
X985768Y41699D01*
X986465Y42608D01*
X987221Y43469D01*
X988031Y44279D01*
X988892Y45035D01*
X989801Y45732D01*
X990754Y46369D01*
X991746Y46942D01*
X992774Y47449D01*
X993832Y47887D01*
X994917Y48255D01*
X996024Y48552D01*
X997148Y48776D01*
X998284Y48925D01*
X999427Y49000D01*
X1000573Y49000D01*
X1001716Y48925D01*
X1002852Y48776D01*
X1003976Y48552D01*
X1005083Y48255D01*
X1006168Y47887D01*
X1007226Y47449D01*
X1008254Y46942D01*
X1009246Y46369D01*
X1010199Y45732D01*
X1011108Y45035D01*
X1011969Y44279D01*
X1012779Y43469D01*
X1013535Y42608D01*
X1014232Y41699D01*
X1014869Y40746D01*
X1015442Y39754D01*
X1015949Y38726D01*
X1016387Y37668D01*
X1016755Y36583D01*
X1017052Y35476D01*
X1017276Y34352D01*
X1017425Y33216D01*
X1017500Y32073D01*
X1017500Y30927D01*
X1017500Y517927D02*
X1017425Y516784D01*
X1017276Y515648D01*
X1017052Y514524D01*
X1016755Y513417D01*
X1016387Y512332D01*
X1015949Y511274D01*
X1015442Y510246D01*
X1014869Y509254D01*
X1014232Y508301D01*
X1013535Y507392D01*
X1012779Y506531D01*
X1011969Y505721D01*
X1011108Y504965D01*
X1010199Y504268D01*
X1009246Y503631D01*
X1008254Y503058D01*
X1007226Y502551D01*
X1006168Y502113D01*
X1005083Y501745D01*
X1003976Y501448D01*
X1002852Y501225D01*
X1001716Y501075D01*
X1000573Y501000D01*
X999427Y501000D01*
X998284Y501075D01*
X997148Y501225D01*
X996024Y501448D01*
X994917Y501745D01*
X993832Y502113D01*
X992774Y502551D01*
X991746Y503058D01*
X990754Y503631D01*
X989801Y504268D01*
X988892Y504965D01*
X988031Y505721D01*
X987221Y506531D01*
X986465Y507392D01*
X985768Y508301D01*
X985131Y509254D01*
X984558Y510246D01*
X984051Y511274D01*
X983613Y512332D01*
X983245Y513417D01*
X982948Y514524D01*
X982725Y515648D01*
X982575Y516784D01*
X982500Y517927D01*
X982500Y519073D01*
X982575Y520216D01*
X982725Y521352D01*
X982948Y522476D01*
X983245Y523583D01*
X983613Y524668D01*
X984051Y525726D01*
X984558Y526754D01*
X985131Y527746D01*
X985768Y528699D01*
X986465Y529608D01*
X987221Y530469D01*
X988031Y531279D01*
X988892Y532035D01*
X989801Y532732D01*
X990754Y533369D01*
X991746Y533942D01*
X992774Y534449D01*
X993832Y534887D01*
X994917Y535255D01*
X996024Y535552D01*
X997148Y535776D01*
X998284Y535925D01*
X999427Y536000D01*
X1000573Y536000D01*
X1001716Y535925D01*
X1002852Y535776D01*
X1003976Y535552D01*
X1005083Y535255D01*
X1006168Y534887D01*
X1007226Y534449D01*
X1008254Y533942D01*
X1009246Y533369D01*
X1010199Y532732D01*
X1011108Y532035D01*
X1011969Y531279D01*
X1012779Y530469D01*
X1013535Y529608D01*
X1014232Y528699D01*
X1014869Y527746D01*
X1015442Y526754D01*
X1015949Y525726D01*
X1016387Y524668D01*
X1016755Y523583D01*
X1017052Y522476D01*
X1017276Y521352D01*
X1017425Y520216D01*
X1017500Y519073D01*
X1017500Y517927D01*
M02*
