<svg version="1.1" xmlns="http://www.w3.org/2000/svg" xmlns:xlink="http://www.w3.org/1999/xlink" stroke-linecap="round" stroke-linejoin="round" stroke-width="0" fill-rule="evenodd" width="100.254mm" height="55.254mm" viewBox="4873 -127 100254 55254" id="UhfujaxJwEc2-148vdAM"><defs><mask id="UhfujaxJwEc2-148vdAM_clear-1" fill="#000" stroke="#000"><g><rect x="6092.3" y="1092.3" width="97815.4" height="52815.4" fill="#fff"/><path d="M 63328.6 25467.9 63328.6 25467.9 62581.7 25777.3 62010.1 26348.9 61700.7 27095.8 61700.7 27904.2 62010.1 28651.1 62581.7 29222.7 63328.6 29532.1 66169 29532.1 66915.9 29222.7 67487.5 28651.1 67796.9 27904.2 67796.9 27095.8 67487.5 26348.9 66915.9 25777.3 66169 25467.9 63328.6 25467.9"/></g></mask><mask id="UhfujaxJwEc2-148vdAM_clear-2" fill="#000" stroke="#000"><g><rect x="6092.3" y="1092.3" width="97815.4" height="52815.4" fill="#fff"/><path d="M 93328.6 25467.9 93328.6 25467.9 92581.7 25777.3 92010.1 26348.9 91700.7 27095.8 91700.7 27904.2 92010.1 28651.1 92581.7 29222.7 93328.6 29532.1 96169 29532.1 96915.9 29222.7 97487.5 28651.1 97796.9 27904.2 97796.9 27095.8 97487.5 26348.9 96915.9 25777.3 96169 25467.9 93328.6 25467.9"/></g></mask><mask id="UhfujaxJwEc2-148vdAM_clear-3" fill="#000" stroke="#000"><g><rect x="6092.3" y="1092.3" width="97815.4" height="52815.4" fill="#fff"/><path d="M 78328.6 25467.9 78328.6 25467.9 77581.7 25777.3 77010.1 26348.9 76700.7 27095.8 76700.7 27904.2 77010.1 28651.1 77581.7 29222.7 78328.6 29532.1 81169 29532.1 81915.9 29222.7 82487.5 28651.1 82796.9 27904.2 82796.9 27095.8 82487.5 26348.9 81915.9 25777.3 81169 25467.9 78328.6 25467.9"/></g></mask><mask id="UhfujaxJwEc2-148vdAM_clear-4" fill="#000" stroke="#000"><g><rect x="6092.3" y="1092.3" width="97815.4" height="52815.4" fill="#fff"/><path d="M 78328.6 40467.9 78328.6 40467.9 77581.7 40777.3 77010.1 41348.9 76700.7 42095.8 76700.7 42904.2 77010.1 43651.1 77581.7 44222.7 78328.6 44532.1 81169 44532.1 81915.9 44222.7 82487.5 43651.1 82796.9 42904.2 82796.9 42095.8 82487.5 41348.9 81915.9 40777.3 81169 40467.9 78328.6 40467.9"/></g></mask><mask id="UhfujaxJwEc2-148vdAM_clear-5" fill="#000" stroke="#000"><g><rect x="6092.3" y="1092.3" width="97815.4" height="52815.4" fill="#fff"/><path d="M 78328.6 10467.9 78328.6 10467.9 77581.7 10777.3 77010.1 11348.9 76700.7 12095.8 76700.7 12904.2 77010.1 13651.1 77581.7 14222.7 78328.6 14532.1 81169 14532.1 81915.9 14222.7 82487.5 13651.1 82796.9 12904.2 82796.9 12095.8 82487.5 11348.9 81915.9 10777.3 81169 10467.9 78328.6 10467.9"/></g></mask><mask id="UhfujaxJwEc2-148vdAM_clear-6" fill="#000" stroke="#000"><g><rect x="6092.3" y="1092.3" width="97815.4" height="52815.4" fill="#fff"/><path d="M 57665.7 46977.1 57665.7 46977.1 56900.1 47294.2 56314.2 47880.1 55997.1 48645.7 55997.1 49474.3 56314.2 50239.9 56900.1 50825.8 57665.7 51142.9 58494.3 51142.9 59259.9 50825.8 59845.8 50239.9 60162.9 49474.3 60162.9 48645.7 59845.8 47880.1 59259.9 47294.2 58494.3 46977.1 57665.7 46977.1"/></g></mask><mask id="UhfujaxJwEc2-148vdAM_clear-7" fill="#000" stroke="#000"><g><rect x="6092.3" y="1092.3" width="97815.4" height="52815.4" fill="#fff"/><path d="M 57288.8 25589.8 57288.8 25589.8 56169.8 26708.8 56169.8 28291.2 57288.8 29410.2 58871.2 29410.2 59990.2 28291.2 59990.2 26708.8 58871.2 25589.8 57288.8 25589.8"/></g></mask><mask id="UhfujaxJwEc2-148vdAM_clear-8" fill="#000" stroke="#000"><g><rect x="6092.3" y="1092.3" width="97815.4" height="52815.4" fill="#fff"/><path d="M 47128.8 25589.8 47128.8 25589.8 46009.8 26708.8 46009.8 28291.2 47128.8 29410.2 48711.2 29410.2 49830.2 28291.2 49830.2 26708.8 48711.2 25589.8 47128.8 25589.8"/></g></mask><mask id="UhfujaxJwEc2-148vdAM_clear-9" fill="#000" stroke="#000"><g><rect x="6092.3" y="1092.3" width="97815.4" height="52815.4" fill="#fff"/><path d="M 47128.8 10209.8 47128.8 10209.8 46009.8 11328.8 46009.8 12911.2 47128.8 14030.2 48711.2 14030.2 49830.2 12911.2 49830.2 11328.8 48711.2 10209.8 47128.8 10209.8"/></g></mask><mask id="UhfujaxJwEc2-148vdAM_clear-10" fill="#000" stroke="#000"><g><rect x="6092.3" y="1092.3" width="97815.4" height="52815.4" fill="#fff"/><path d="M 57288.8 42079.8 57288.8 42079.8 56169.8 43198.8 56169.8 44781.2 57288.8 45900.2 58871.2 45900.2 59990.2 44781.2 59990.2 43198.8 58871.2 42079.8 57288.8 42079.8"/></g></mask><mask id="UhfujaxJwEc2-148vdAM_clear-11" fill="#000" stroke="#000"><g><rect x="6092.3" y="1092.3" width="97815.4" height="52815.4" fill="#fff"/><path d="M 47128.8 42079.8 47128.8 42079.8 46009.8 43198.8 46009.8 44781.2 47128.8 45900.2 48711.2 45900.2 49830.2 44781.2 49830.2 43198.8 48711.2 42079.8 47128.8 42079.8"/></g></mask><mask id="UhfujaxJwEc2-148vdAM_clear-12" fill="#000" stroke="#000"><g><rect x="6092.3" y="1092.3" width="97815.4" height="52815.4" fill="#fff"/><path d="M 47128.8 15329.8 47128.8 15329.8 46009.8 16448.8 46009.8 18031.2 47128.8 19150.2 48711.2 19150.2 49830.2 18031.2 49830.2 16448.8 48711.2 15329.8 47128.8 15329.8"/></g></mask><mask id="UhfujaxJwEc2-148vdAM_clear-13" fill="#000" stroke="#000"><g><rect x="6092.3" y="1092.3" width="97815.4" height="52815.4" fill="#fff"/><path d="M 57288.8 15329.8 57288.8 15329.8 56169.8 16448.8 56169.8 18031.2 57288.8 19150.2 58871.2 19150.2 59990.2 18031.2 59990.2 16448.8 58871.2 15329.8 57288.8 15329.8"/></g></mask><mask id="UhfujaxJwEc2-148vdAM_clear-14" fill="#000" stroke="#000"><g><rect x="6092.3" y="1092.3" width="97815.4" height="52815.4" fill="#fff"/><path d="M 47128.8 20409.8 47128.8 20409.8 46009.8 21528.8 46009.8 23111.2 47128.8 24230.2 48711.2 24230.2 49830.2 23111.2 49830.2 21528.8 48711.2 20409.8 47128.8 20409.8"/></g></mask><mask id="UhfujaxJwEc2-148vdAM_clear-15" fill="#000" stroke="#000"><g><rect x="6092.3" y="1092.3" width="97815.4" height="52815.4" fill="#fff"/><path d="M 57288.8 20409.8 57288.8 20409.8 56169.8 21528.8 56169.8 23111.2 57288.8 24230.2 58871.2 24230.2 59990.2 23111.2 59990.2 21528.8 58871.2 20409.8 57288.8 20409.8"/></g></mask><mask id="UhfujaxJwEc2-148vdAM_clear-16" fill="#000" stroke="#000"><g><rect x="6092.3" y="1092.3" width="97815.4" height="52815.4" fill="#fff"/><path d="M 57288.8 36499.8 57288.8 36499.8 56169.8 37618.8 56169.8 39201.2 57288.8 40320.2 58871.2 40320.2 59990.2 39201.2 59990.2 37618.8 58871.2 36499.8 57288.8 36499.8"/></g></mask><mask id="UhfujaxJwEc2-148vdAM_clear-17" fill="#000" stroke="#000"><g><rect x="6092.3" y="1092.3" width="97815.4" height="52815.4" fill="#fff"/><path d="M 47128.8 36499.8 47128.8 36499.8 46009.8 37618.8 46009.8 39201.2 47128.8 40320.2 48711.2 40320.2 49830.2 39201.2 49830.2 37618.8 48711.2 36499.8 47128.8 36499.8"/></g></mask><mask id="UhfujaxJwEc2-148vdAM_clear-18" fill="#000" stroke="#000"><g><rect x="6092.3" y="1092.3" width="97815.4" height="52815.4" fill="#fff"/><path d="M 57288.8 10209.8 57288.8 10209.8 56169.8 11328.8 56169.8 12911.2 57288.8 14030.2 58871.2 14030.2 59990.2 12911.2 59990.2 11328.8 58871.2 10209.8 57288.8 10209.8"/></g></mask><mask id="UhfujaxJwEc2-148vdAM_clear-19" fill="#000" stroke="#000"><g><rect x="6092.3" y="1092.3" width="97815.4" height="52815.4" fill="#fff"/><path d="M 57288.8 31079.8 57288.8 31079.8 56169.8 32198.8 56169.8 33781.2 57288.8 34900.2 58871.2 34900.2 59990.2 33781.2 59990.2 32198.8 58871.2 31079.8 57288.8 31079.8"/></g></mask><mask id="UhfujaxJwEc2-148vdAM_clear-20" fill="#000" stroke="#000"><g><rect x="6092.3" y="1092.3" width="97815.4" height="52815.4" fill="#fff"/><path d="M 47128.8 31079.8 47128.8 31079.8 46009.8 32198.8 46009.8 33781.2 47128.8 34900.2 48711.2 34900.2 49830.2 33781.2 49830.2 32198.8 48711.2 31079.8 47128.8 31079.8"/></g></mask><mask id="UhfujaxJwEc2-148vdAM_clear-21" fill="#000" stroke="#000"><g><rect x="6092.3" y="1092.3" width="97815.4" height="52815.4" fill="#fff"/><path d="M 101403.5 27652.3 101403.5 27652.3 101403.5 28770.1 102367.2 28770.1 102564.6 28738.8 102754.7 28677 102932.9 28586.3 103094.6 28468.7 103235.9 28327.4 103353.5 28165.7 103444.2 27987.5 103506 27797.4 103529 27652.3 101403.5 27652.3"/></g></mask><mask id="UhfujaxJwEc2-148vdAM_clear-22" fill="#000" stroke="#000"><g><rect x="6092.3" y="1092.3" width="97815.4" height="52815.4" fill="#fff"/><path d="M 71403.5 27652.3 71403.5 27652.3 71403.5 28770.1 72367.2 28770.1 72564.6 28738.8 72754.7 28677 72932.9 28586.3 73094.6 28468.7 73235.9 28327.4 73353.5 28165.7 73444.2 27987.5 73506 27797.4 73529 27652.3 71403.5 27652.3"/></g></mask><mask id="UhfujaxJwEc2-148vdAM_clear-23" fill="#000" stroke="#000"><g><rect x="6092.3" y="1092.3" width="97815.4" height="52815.4" fill="#fff"/><path d="M 86403.5 27652.3 86403.5 27652.3 86403.5 28770.1 87367.2 28770.1 87564.6 28738.8 87754.7 28677 87932.9 28586.3 88094.6 28468.7 88235.9 28327.4 88353.5 28165.7 88444.2 27987.5 88506 27797.4 88529 27652.3 86403.5 27652.3"/></g></mask><mask id="UhfujaxJwEc2-148vdAM_clear-24" fill="#000" stroke="#000"><g><rect x="6092.3" y="1092.3" width="97815.4" height="52815.4" fill="#fff"/><path d="M 86403.5 12652.3 86403.5 12652.3 86403.5 13770.1 87367.2 13770.1 87564.6 13738.8 87754.7 13677 87932.9 13586.3 88094.6 13468.7 88235.9 13327.4 88353.5 13165.7 88444.2 12987.5 88506 12797.4 88529 12652.3 86403.5 12652.3"/></g></mask><mask id="UhfujaxJwEc2-148vdAM_clear-25" fill="#000" stroke="#000"><g><rect x="6092.3" y="1092.3" width="97815.4" height="52815.4" fill="#fff"/><path d="M 86403.5 42652.3 86403.5 42652.3 86403.5 43770.1 87367.2 43770.1 87564.6 43738.8 87754.7 43677 87932.9 43586.3 88094.6 43468.7 88235.9 43327.4 88353.5 43165.7 88444.2 42987.5 88506 42797.4 88529 42652.3 86403.5 42652.3"/></g></mask><mask id="UhfujaxJwEc2-148vdAM_clear-26" fill="#000" stroke="#000"><g><rect x="6092.3" y="1092.3" width="97815.4" height="52815.4" fill="#fff"/><path d="M 83973.4 27652.3 83973.4 27652.3 83996.4 27797.4 84058.2 27987.5 84148.9 28165.7 84266.5 28327.4 84407.8 28468.7 84569.5 28586.3 84747.7 28677 84937.8 28738.8 85135.2 28770.1 86098.9 28770.1 86098.9 27652.3 83973.4 27652.3"/></g></mask><mask id="UhfujaxJwEc2-148vdAM_clear-27" fill="#000" stroke="#000"><g><rect x="6092.3" y="1092.3" width="97815.4" height="52815.4" fill="#fff"/><path d="M 68973.4 27652.3 68973.4 27652.3 68996.4 27797.4 69058.2 27987.5 69148.9 28165.7 69266.5 28327.4 69407.8 28468.7 69569.5 28586.3 69747.7 28677 69937.8 28738.8 70135.2 28770.1 71098.9 28770.1 71098.9 27652.3 68973.4 27652.3"/></g></mask><mask id="UhfujaxJwEc2-148vdAM_clear-28" fill="#000" stroke="#000"><g><rect x="6092.3" y="1092.3" width="97815.4" height="52815.4" fill="#fff"/><path d="M 83973.4 42652.3 83973.4 42652.3 83996.4 42797.4 84058.2 42987.5 84148.9 43165.7 84266.5 43327.4 84407.8 43468.7 84569.5 43586.3 84747.7 43677 84937.8 43738.8 85135.2 43770.1 86098.9 43770.1 86098.9 42652.3 83973.4 42652.3"/></g></mask><mask id="UhfujaxJwEc2-148vdAM_clear-29" fill="#000" stroke="#000"><g><rect x="6092.3" y="1092.3" width="97815.4" height="52815.4" fill="#fff"/><path d="M 98973.4 27652.3 98973.4 27652.3 98996.4 27797.4 99058.2 27987.5 99148.9 28165.7 99266.5 28327.4 99407.8 28468.7 99569.5 28586.3 99747.7 28677 99937.8 28738.8 100135.2 28770.1 101098.9 28770.1 101098.9 27652.3 98973.4 27652.3"/></g></mask><mask id="UhfujaxJwEc2-148vdAM_clear-30" fill="#000" stroke="#000"><g><rect x="6092.3" y="1092.3" width="97815.4" height="52815.4" fill="#fff"/><path d="M 83973.4 12652.3 83973.4 12652.3 83996.4 12797.4 84058.2 12987.5 84148.9 13165.7 84266.5 13327.4 84407.8 13468.7 84569.5 13586.3 84747.7 13677 84937.8 13738.8 85135.2 13770.1 86098.9 13770.1 86098.9 12652.3 83973.4 12652.3"/></g></mask><mask id="UhfujaxJwEc2-148vdAM_clear-31" fill="#000" stroke="#000"><g><rect x="6092.3" y="1092.3" width="97815.4" height="52815.4" fill="#fff"/><path d="M 101403.5 26229.9 101403.5 26229.9 101403.5 27347.7 103529 27347.7 103506 27202.6 103444.2 27012.5 103353.5 26834.3 103235.9 26672.6 103094.6 26531.3 102932.9 26413.7 102754.7 26323 102564.6 26261.2 102367.2 26229.9 101403.5 26229.9"/></g></mask><mask id="UhfujaxJwEc2-148vdAM_clear-32" fill="#000" stroke="#000"><g><rect x="6092.3" y="1092.3" width="97815.4" height="52815.4" fill="#fff"/><path d="M 86403.5 26229.9 86403.5 26229.9 86403.5 27347.7 88529 27347.7 88506 27202.6 88444.2 27012.5 88353.5 26834.3 88235.9 26672.6 88094.6 26531.3 87932.9 26413.7 87754.7 26323 87564.6 26261.2 87367.2 26229.9 86403.5 26229.9"/></g></mask><mask id="UhfujaxJwEc2-148vdAM_clear-33" fill="#000" stroke="#000"><g><rect x="6092.3" y="1092.3" width="97815.4" height="52815.4" fill="#fff"/><path d="M 86403.5 41229.9 86403.5 41229.9 86403.5 42347.7 88529 42347.7 88506 42202.6 88444.2 42012.5 88353.5 41834.3 88235.9 41672.6 88094.6 41531.3 87932.9 41413.7 87754.7 41323 87564.6 41261.2 87367.2 41229.9 86403.5 41229.9"/></g></mask><mask id="UhfujaxJwEc2-148vdAM_clear-34" fill="#000" stroke="#000"><g><rect x="6092.3" y="1092.3" width="97815.4" height="52815.4" fill="#fff"/><path d="M 71403.5 26229.9 71403.5 26229.9 71403.5 27347.7 73529 27347.7 73506 27202.6 73444.2 27012.5 73353.5 26834.3 73235.9 26672.6 73094.6 26531.3 72932.9 26413.7 72754.7 26323 72564.6 26261.2 72367.2 26229.9 71403.5 26229.9"/></g></mask><mask id="UhfujaxJwEc2-148vdAM_clear-35" fill="#000" stroke="#000"><g><rect x="6092.3" y="1092.3" width="97815.4" height="52815.4" fill="#fff"/><path d="M 86403.5 11229.9 86403.5 11229.9 86403.5 12347.7 88529 12347.7 88506 12202.6 88444.2 12012.5 88353.5 11834.3 88235.9 11672.6 88094.6 11531.3 87932.9 11413.7 87754.7 11323 87564.6 11261.2 87367.2 11229.9 86403.5 11229.9"/></g></mask><mask id="UhfujaxJwEc2-148vdAM_clear-36" fill="#000" stroke="#000"><g><rect x="6092.3" y="1092.3" width="97815.4" height="52815.4" fill="#fff"/><path d="M 70135.2 26229.9 70135.2 26229.9 69937.8 26261.2 69747.7 26323 69569.5 26413.7 69407.8 26531.3 69266.5 26672.6 69148.9 26834.3 69058.2 27012.5 68996.4 27202.6 68973.4 27347.7 71098.9 27347.7 71098.9 26229.9 70135.2 26229.9"/></g></mask><mask id="UhfujaxJwEc2-148vdAM_clear-37" fill="#000" stroke="#000"><g><rect x="6092.3" y="1092.3" width="97815.4" height="52815.4" fill="#fff"/><path d="M 100135.2 26229.9 100135.2 26229.9 99937.8 26261.2 99747.7 26323 99569.5 26413.7 99407.8 26531.3 99266.5 26672.6 99148.9 26834.3 99058.2 27012.5 98996.4 27202.6 98973.4 27347.7 101098.9 27347.7 101098.9 26229.9 100135.2 26229.9"/></g></mask><mask id="UhfujaxJwEc2-148vdAM_clear-38" fill="#000" stroke="#000"><g><rect x="6092.3" y="1092.3" width="97815.4" height="52815.4" fill="#fff"/><path d="M 85135.2 26229.9 85135.2 26229.9 84937.8 26261.2 84747.7 26323 84569.5 26413.7 84407.8 26531.3 84266.5 26672.6 84148.9 26834.3 84058.2 27012.5 83996.4 27202.6 83973.4 27347.7 86098.9 27347.7 86098.9 26229.9 85135.2 26229.9"/></g></mask><mask id="UhfujaxJwEc2-148vdAM_clear-39" fill="#000" stroke="#000"><g><rect x="6092.3" y="1092.3" width="97815.4" height="52815.4" fill="#fff"/><path d="M 85135.2 41229.9 85135.2 41229.9 84937.8 41261.2 84747.7 41323 84569.5 41413.7 84407.8 41531.3 84266.5 41672.6 84148.9 41834.3 84058.2 42012.5 83996.4 42202.6 83973.4 42347.7 86098.9 42347.7 86098.9 41229.9 85135.2 41229.9"/></g></mask><mask id="UhfujaxJwEc2-148vdAM_clear-40" fill="#000" stroke="#000"><g><rect x="6092.3" y="1092.3" width="97815.4" height="52815.4" fill="#fff"/><path d="M 85135.2 11229.9 85135.2 11229.9 84937.8 11261.2 84747.7 11323 84569.5 11413.7 84407.8 11531.3 84266.5 11672.6 84148.9 11834.3 84058.2 12012.5 83996.4 12202.6 83973.4 12347.7 86098.9 12347.7 86098.9 11229.9 85135.2 11229.9"/></g></mask><mask id="UhfujaxJwEc2-148vdAM_clear-41" fill="#000" stroke="#000"><g><rect x="6092.3" y="1092.3" width="97815.4" height="52815.4" fill="#fff"/><path d="M 48072.3 49212.3 48072.3 49212.3 48072.3 50373.2 48229.3 50348.3 48427 50284.1 48612.3 50189.7 48780.5 50067.5 48927.5 49920.5 49049.7 49752.3 49144.1 49567 49208.3 49369.3 49233.2 49212.3 48072.3 49212.3"/></g></mask><mask id="UhfujaxJwEc2-148vdAM_clear-42" fill="#000" stroke="#000"><g><rect x="6092.3" y="1092.3" width="97815.4" height="52815.4" fill="#fff"/><path d="M 46606.8 49212.3 46606.8 49212.3 46631.7 49369.3 46695.9 49567 46790.3 49752.3 46912.5 49920.5 47059.5 50067.5 47227.7 50189.7 47413 50284.1 47610.7 50348.3 47767.7 50373.2 47767.7 49212.3 46606.8 49212.3"/></g></mask><mask id="UhfujaxJwEc2-148vdAM_clear-43" fill="#000" stroke="#000"><g><rect x="6092.3" y="1092.3" width="97815.4" height="52815.4" fill="#fff"/><path d="M 48072.3 48907.7 48072.3 48907.7 49233.2 48907.7 49208.3 48750.7 49144.1 48553 49049.7 48367.7 48927.5 48199.5 48780.5 48052.5 48612.3 47930.3 48427 47835.9 48229.3 47771.7 48072.3 47746.8 48072.3 48907.7"/></g></mask><mask id="UhfujaxJwEc2-148vdAM_clear-44" fill="#000" stroke="#000"><g><rect x="6092.3" y="1092.3" width="97815.4" height="52815.4" fill="#fff"/><path d="M 47610.7 47771.7 47610.7 47771.7 47413 47835.9 47227.7 47930.3 47059.5 48052.5 46912.5 48199.5 46790.3 48367.7 46695.9 48553 46631.7 48750.7 46606.8 48907.7 47767.7 48907.7 47767.7 47746.8 47610.7 47771.7"/></g></mask><mask id="UhfujaxJwEc2-148vdAM_clear-45" fill="#000" stroke="#000"><g><rect x="6092.3" y="1092.3" width="97815.4" height="52815.4" fill="#fff"/><path d="M 15872.3 35000.7 15872.3 35000.7 15872.3 36067.7 16939.3 36067.7 16939.3 35715 16225 35000.7 15872.3 35000.7"/></g></mask><mask id="UhfujaxJwEc2-148vdAM_clear-46" fill="#000" stroke="#000"><g><rect x="6092.3" y="1092.3" width="97815.4" height="52815.4" fill="#fff"/><path d="M 31800.7 47142.3 31800.7 47142.3 31800.7 47495 32515 48209.3 32867.7 48209.3 32867.7 47142.3 31800.7 47142.3"/></g></mask><mask id="UhfujaxJwEc2-148vdAM_clear-47" fill="#000" stroke="#000"><g><rect x="6092.3" y="1092.3" width="97815.4" height="52815.4" fill="#fff"/><path d="M 47919.9 49059.9 47919.9 49059.9 47919.9 49060.1 47920.1 49060.1 47920.1 49059.9 47919.9 49059.9"/></g></mask><mask id="UhfujaxJwEc2-148vdAM_clear-48" fill="#000" stroke="#000"><g><rect x="6092.3" y="1092.3" width="97815.4" height="52815.4" fill="#fff"/><path d="M 101251.1 27499.9 101251.1 27499.9 101251.1 27500.1 101251.3 27500.1 101251.3 27499.9 101251.1 27499.9"/></g></mask><mask id="UhfujaxJwEc2-148vdAM_clear-49" fill="#000" stroke="#000"><g><rect x="6092.3" y="1092.3" width="97815.4" height="52815.4" fill="#fff"/><path d="M 86251.1 27499.9 86251.1 27499.9 86251.1 27500.1 86251.3 27500.1 86251.3 27499.9 86251.1 27499.9"/></g></mask><mask id="UhfujaxJwEc2-148vdAM_clear-50" fill="#000" stroke="#000"><g><rect x="6092.3" y="1092.3" width="97815.4" height="52815.4" fill="#fff"/><path d="M 71251.1 27499.9 71251.1 27499.9 71251.1 27500.1 71251.3 27500.1 71251.3 27499.9 71251.1 27499.9"/></g></mask><mask id="UhfujaxJwEc2-148vdAM_clear-51" fill="#000" stroke="#000"><g><rect x="6092.3" y="1092.3" width="97815.4" height="52815.4" fill="#fff"/><path d="M 86251.1 42499.9 86251.1 42499.9 86251.1 42500.1 86251.3 42500.1 86251.3 42499.9 86251.1 42499.9"/></g></mask><mask id="UhfujaxJwEc2-148vdAM_clear-52" fill="#000" stroke="#000"><g><rect x="6092.3" y="1092.3" width="97815.4" height="52815.4" fill="#fff"/><path d="M 86251.1 12499.9 86251.1 12499.9 86251.1 12500.1 86251.3 12500.1 86251.3 12499.9 86251.1 12499.9"/></g></mask><polygon points="-894.07934,-370.33979 -370.33979,-894.07934 370.33979,-894.07934 894.07934,-370.33979 894.07934,370.33979 370.33979,894.07934 -370.33979,894.07934 -894.07934,370.33979" id="UhfujaxJwEc2-148vdAM_pad-11"/><polygon points="894.07934,370.33979 370.33979,894.07934 -370.33979,894.07934 -894.07934,370.33979 -894.07934,-370.33979 -370.33979,-894.07934 370.33979,-894.07934 894.07934,-370.33979" id="UhfujaxJwEc2-148vdAM_pad-12"/><circle cx="0" cy="0" r="1066.8" id="UhfujaxJwEc2-148vdAM_pad-13"/><polygon points="-399.79818,965.1982 -965.1982,399.79818 -965.1982,-399.79818 -399.79818,-965.1982 399.79818,-965.1982 965.1982,-399.79818 965.1982,399.79818 399.79818,965.1982" id="UhfujaxJwEc2-148vdAM_pad-14"/><circle cx="0" cy="0" r="965.2" id="UhfujaxJwEc2-148vdAM_pad-15"/><circle cx="0" cy="0" r="1008" id="UhfujaxJwEc2-148vdAM_pad-16"/></defs><g transform="translate(0,55000) scale(1,-1)" fill="currentColor" stroke="currentColor"><g mask="url(#UhfujaxJwEc2-148vdAM_clear-52)"><g mask="url(#UhfujaxJwEc2-148vdAM_clear-51)"><g mask="url(#UhfujaxJwEc2-148vdAM_clear-50)"><g mask="url(#UhfujaxJwEc2-148vdAM_clear-49)"><g mask="url(#UhfujaxJwEc2-148vdAM_clear-48)"><g mask="url(#UhfujaxJwEc2-148vdAM_clear-47)"><g mask="url(#UhfujaxJwEc2-148vdAM_clear-46)"><g mask="url(#UhfujaxJwEc2-148vdAM_clear-45)"><g mask="url(#UhfujaxJwEc2-148vdAM_clear-44)"><g mask="url(#UhfujaxJwEc2-148vdAM_clear-43)"><g mask="url(#UhfujaxJwEc2-148vdAM_clear-42)"><g mask="url(#UhfujaxJwEc2-148vdAM_clear-41)"><g mask="url(#UhfujaxJwEc2-148vdAM_clear-40)"><g mask="url(#UhfujaxJwEc2-148vdAM_clear-39)"><g mask="url(#UhfujaxJwEc2-148vdAM_clear-38)"><g mask="url(#UhfujaxJwEc2-148vdAM_clear-37)"><g mask="url(#UhfujaxJwEc2-148vdAM_clear-36)"><g mask="url(#UhfujaxJwEc2-148vdAM_clear-35)"><g mask="url(#UhfujaxJwEc2-148vdAM_clear-34)"><g mask="url(#UhfujaxJwEc2-148vdAM_clear-33)"><g mask="url(#UhfujaxJwEc2-148vdAM_clear-32)"><g mask="url(#UhfujaxJwEc2-148vdAM_clear-31)"><g mask="url(#UhfujaxJwEc2-148vdAM_clear-30)"><g mask="url(#UhfujaxJwEc2-148vdAM_clear-29)"><g mask="url(#UhfujaxJwEc2-148vdAM_clear-28)"><g mask="url(#UhfujaxJwEc2-148vdAM_clear-27)"><g mask="url(#UhfujaxJwEc2-148vdAM_clear-26)"><g mask="url(#UhfujaxJwEc2-148vdAM_clear-25)"><g mask="url(#UhfujaxJwEc2-148vdAM_clear-24)"><g mask="url(#UhfujaxJwEc2-148vdAM_clear-23)"><g mask="url(#UhfujaxJwEc2-148vdAM_clear-22)"><g mask="url(#UhfujaxJwEc2-148vdAM_clear-21)"><g mask="url(#UhfujaxJwEc2-148vdAM_clear-20)"><g mask="url(#UhfujaxJwEc2-148vdAM_clear-19)"><g mask="url(#UhfujaxJwEc2-148vdAM_clear-18)"><g mask="url(#UhfujaxJwEc2-148vdAM_clear-17)"><g mask="url(#UhfujaxJwEc2-148vdAM_clear-16)"><g mask="url(#UhfujaxJwEc2-148vdAM_clear-15)"><g mask="url(#UhfujaxJwEc2-148vdAM_clear-14)"><g mask="url(#UhfujaxJwEc2-148vdAM_clear-13)"><g mask="url(#UhfujaxJwEc2-148vdAM_clear-12)"><g mask="url(#UhfujaxJwEc2-148vdAM_clear-11)"><g mask="url(#UhfujaxJwEc2-148vdAM_clear-10)"><g mask="url(#UhfujaxJwEc2-148vdAM_clear-9)"><g mask="url(#UhfujaxJwEc2-148vdAM_clear-8)"><g mask="url(#UhfujaxJwEc2-148vdAM_clear-7)"><g mask="url(#UhfujaxJwEc2-148vdAM_clear-6)"><g mask="url(#UhfujaxJwEc2-148vdAM_clear-5)"><g mask="url(#UhfujaxJwEc2-148vdAM_clear-4)"><g mask="url(#UhfujaxJwEc2-148vdAM_clear-3)"><g mask="url(#UhfujaxJwEc2-148vdAM_clear-2)"><g mask="url(#UhfujaxJwEc2-148vdAM_clear-1)"><path d="M 40619.2 1093.4 40619.2 1093.4 40626.4 1093.6 40631.3 1095.4 40636.4 1096.2 40642.7 1099.6 40649.5 1102.1 40653.5 1105.3 40658.1 1107.8 40663.1 1113 40668.7 1117.4 40671.5 1121.8 40675.1 1125.6 40678.1 1132.1 40682 1138.1 40683.2 1143.2 40685.4 1147.9 40686.2 1155 40688 1162 40687.6 1167.2 40688.1 1172.3 40686.6 1179.4 40686.1 1186.5 40684 1191.3 40682.9 1196.4 40679.2 1202.5 40676.4 1209.1 40672 1214.7 40670.3 1217.5 40668.5 1219 40666 1222.2 40436.6 1451.6 40072.4 2082.3 39883.9 2785.8 39883.9 3514.2 40072.4 4217.7 40436.6 4848.4 40951.6 5363.4 41582.3 5727.6 42285.8 5916.1 43014.2 5916.1 43717.7 5727.6 44348.4 5363.4 44863.4 4848.4 45227.6 4217.7 45416.1 3514.2 45416.1 2785.8 45227.6 2082.3 44863.4 1451.6 44634 1222.2 44629.9 1216.4 44624.9 1211.2 44622.7 1206.5 44619.7 1202.3 44617.6 1195.4 44614.6 1188.9 44614 1183.7 44612.5 1178.7 44612.6 1171.6 44611.9 1164.5 44613 1159.4 44613.1 1154.2 44615.6 1147.4 44617.1 1140.4 44619.7 1135.9 44621.5 1131.1 44626 1125.5 44629.7 1119.3 44633.7 1115.9 44636.9 1111.9 44642.9 1108 44648.4 1103.3 44653.2 1101.4 44657.6 1098.6 44664.5 1096.8 44671.2 1094.1 44678.3 1093.3 44681.5 1092.5 44683.8 1092.7 44687.9 1092.3 97962.1 1092.3 97969.2 1093.4 97976.4 1093.6 97981.3 1095.4 97986.4 1096.2 97992.7 1099.6 97999.5 1102.1 98003.5 1105.3 98008.1 1107.8 98013.1 1113 98018.7 1117.4 98021.5 1121.8 98025.1 1125.6 98028.1 1132.1 98032 1138.1 98033.2 1143.2 98035.4 1147.9 98036.2 1155 98038 1162 98037.6 1167.2 98038.1 1172.3 98036.6 1179.4 98036.1 1186.5 98034 1191.3 98032.9 1196.4 98029.2 1202.5 98026.4 1209.1 98022 1214.7 98020.3 1217.5 98018.5 1219 98016 1222.2 97786.6 1451.6 97422.4 2082.3 97233.9 2785.8 97233.9 3514.2 97422.4 4217.7 97786.6 4848.4 98301.6 5363.4 98932.3 5727.6 99635.8 5916.1 100364.2 5916.1 101067.7 5727.6 101698.4 5363.4 102213.4 4848.4 102577.6 4217.7 102766.1 3514.2 102766.1 2785.8 102577.6 2082.3 102213.4 1451.6 101984 1222.2 101979.9 1216.4 101974.9 1211.2 101972.7 1206.5 101969.7 1202.3 101967.6 1195.4 101964.6 1188.9 101964 1183.7 101962.5 1178.7 101962.6 1171.6 101961.9 1164.5 101963 1159.4 101963.1 1154.2 101965.6 1147.4 101967.1 1140.4 101969.7 1135.9 101971.5 1131.1 101976 1125.5 101979.7 1119.3 101983.7 1115.9 101986.9 1111.9 101992.9 1108 101998.4 1103.3 102003.2 1101.4 102007.6 1098.6 102014.5 1096.8 102021.2 1094.1 102028.3 1093.3 102031.5 1092.5 102033.8 1092.7 102037.9 1092.3 103831.6 1092.3 103833.6 1092.6 103835.5 1092.4 103845.7 1094.6 103855.9 1096.2 103857.6 1097.2 103859.6 1097.6 103868.5 1102.9 103877.6 1107.8 103879 1109.2 103880.7 1110.2 103887.4 1118.1 103894.6 1125.6 103895.4 1127.4 103896.7 1128.9 103900.6 1138.5 103904.9 1147.9 103905.1 1149.9 103905.9 1151.7 103907.7 1168.4 103907.7 53831.6 103907.4 53833.6 103907.6 53835.5 103905.4 53845.7 103903.8 53855.9 103902.8 53857.6 103902.4 53859.6 103897.1 53868.5 103892.2 53877.6 103890.8 53879 103889.8 53880.7 103881.9 53887.4 103874.4 53894.6 103872.6 53895.4 103871.1 53896.7 103861.5 53900.6 103852.1 53904.9 103850.1 53905.1 103848.3 53905.9 103831.6 53907.7 102037.9 53907.7 102030.8 53906.6 102023.6 53906.4 102018.7 53904.6 102013.6 53903.8 102007.3 53900.4 102000.5 53897.9 101996.5 53894.7 101991.9 53892.2 101986.9 53887 101981.3 53882.6 101978.5 53878.2 101974.9 53874.4 101971.9 53867.9 101968 53861.9 101966.8 53856.8 101964.6 53852.1 101963.8 53845 101962 53838 101962.4 53832.8 101961.9 53827.7 101963.4 53820.6 101963.9 53813.5 101966 53808.7 101967.1 53803.6 101970.8 53797.5 101973.6 53790.9 101978 53785.3 101979.7 53782.5 101981.5 53781 101984 53777.8 102213.4 53548.4 102577.6 52917.7 102766.1 52214.2 102766.1 51485.8 102577.6 50782.3 102213.4 50151.6 101698.4 49636.6 101067.7 49272.4 100364.2 49083.9 99635.8 49083.9 98932.3 49272.4 98301.6 49636.6 97786.6 50151.6 97422.4 50782.3 97233.9 51485.8 97233.9 52214.2 97422.4 52917.7 97786.6 53548.4 98016 53777.8 98020.1 53783.6 98025.1 53788.8 98027.3 53793.5 98030.3 53797.7 98032.4 53804.6 98035.4 53811.1 98036 53816.3 98037.5 53821.3 98037.4 53828.4 98038.1 53835.5 98037 53840.6 98036.9 53845.8 98034.4 53852.6 98032.9 53859.6 98030.3 53864.1 98028.5 53868.9 98024 53874.5 98020.3 53880.7 98016.3 53884.1 98013.1 53888.1 98007.1 53892 98001.6 53896.7 97996.8 53898.6 97992.4 53901.4 97985.5 53903.2 97978.8 53905.9 97971.7 53906.7 97968.5 53907.5 97966.2 53907.3 97962.1 53907.7 44687.9 53907.7 44680.8 53906.6 44673.6 53906.4 44668.7 53904.6 44663.6 53903.8 44657.3 53900.4 44650.5 53897.9 44646.5 53894.7 44641.9 53892.2 44636.9 53887 44631.3 53882.6 44628.5 53878.2 44624.9 53874.4 44621.9 53867.9 44618 53861.9 44616.8 53856.8 44614.6 53852.1 44613.8 53845 44612 53838 44612.4 53832.8 44611.9 53827.7 44613.4 53820.6 44613.9 53813.5 44616 53808.7 44617.1 53803.6 44620.8 53797.5 44623.6 53790.9 44628 53785.3 44629.7 53782.5 44631.5 53781 44634 53777.8 44863.4 53548.4 45227.6 52917.7 45416.1 52214.2 45416.1 51485.8 45227.6 50782.3 44863.4 50151.6 44348.4 49636.6 43717.7 49272.4 43014.2 49083.9 42285.8 49083.9 41582.3 49272.4 40951.6 49636.6 40436.6 50151.6 40072.4 50782.3 39883.9 51485.8 39883.9 52214.2 40072.4 52917.7 40436.6 53548.4 40666 53777.8 40670.1 53783.6 40675.1 53788.8 40677.3 53793.5 40680.3 53797.7 40682.4 53804.6 40685.4 53811.1 40686 53816.3 40687.5 53821.3 40687.4 53828.4 40688.1 53835.5 40687 53840.6 40686.9 53845.8 40684.4 53852.6 40682.9 53859.6 40680.3 53864.1 40678.5 53868.9 40674 53874.5 40670.3 53880.7 40666.3 53884.1 40663.1 53888.1 40657.1 53892 40651.6 53896.7 40646.8 53898.6 40642.4 53901.4 40635.5 53903.2 40628.8 53905.9 40621.7 53906.7 40618.5 53907.5 40616.2 53907.3 40612.1 53907.7 6168.4 53907.7 6166.4 53907.4 6164.5 53907.6 6154.3 53905.4 6144.1 53903.8 6142.4 53902.8 6140.4 53902.4 6131.5 53897.1 6122.4 53892.2 6121 53890.8 6119.3 53889.8 6112.6 53881.9 6105.4 53874.4 6104.6 53872.6 6103.3 53871.1 6099.4 53861.5 6095.1 53852.1 6094.9 53850.1 6094.1 53848.3 6092.3 53831.6 6092.3 47773.7 6093.4 47766.6 6093.6 47759.4 6095.4 47754.5 6096.2 47749.4 6099.6 47743.1 6102.1 47736.3 6105.3 47732.2 6107.8 47727.6 6112.9 47722.7 6117.4 47717.1 6121.8 47714.3 6125.6 47710.7 6132.1 47707.7 6138.1 47703.8 6143.2 47702.5 6147.9 47700.3 6155 47699.6 6162 47697.8 6167.2 47698.2 6172.3 47697.6 6179.4 47699.2 6186.5 47699.7 6191.3 47701.8 6196.4 47702.9 6202.5 47706.5 6209.1 47709.4 6214.7 47713.8 6217.5 47715.5 6219 47717.3 6222.2 47719.8 9492.1 50989.7 9999.6 51497.2 10648.7 51766.1 12959.4 51766.1 12965.8 51767.1 12972.4 51767.2 12980.4 51769.5 12983.6 51770 12985.4 51771 12988.5 51771.9 13597.4 52024.1 14402.6 52024.1 15146.5 51715.9 15715.9 51146.5 16024.1 50402.6 16024.1 49597.4 15715.9 48853.5 15353.7 48491.2 15349.5 48485.4 15344.6 48480.2 15342.4 48475.5 15339.3 48471.3 15337.2 48464.4 15334.2 48457.9 15333.6 48452.7 15332.1 48447.7 15332.3 48440.6 15331.5 48433.5 15332.6 48428.4 15332.7 48423.2 15335.2 48416.4 15336.7 48409.4 15339.4 48404.9 15341.2 48400.1 15345.7 48394.5 15349.3 48388.3 15353.3 48384.9 15356.6 48380.9 15362.6 48377 15368 48372.3 15372.9 48370.4 15377.3 48367.6 15384.2 48365.8 15390.9 48363.1 15398 48362.3 15401.1 48361.5 15403.4 48361.7 15407.5 48361.3 16540.7 48361.3 17701.3 47200.7 17701.3 46655.2 17702.8 46645.6 17703.8 46635.9 17704.8 46633.5 17705.2 46630.9 17709.8 46622.3 17713.8 46613.4 17715.5 46611.5 17716.8 46609.2 17723.8 46602.4 17730.4 46595.3 17732.7 46594 17734.6 46592.2 17743.4 46588.1 17752 46583.4 17754.5 46583 17756.9 46581.9 17766.6 46580.8 17776.2 46579 17778.8 46579.4 17781.3 46579.1 17790.9 46581.2 17800.5 46582.6 17802.8 46583.8 17805.4 46584.4 17813.7 46589.4 17822.4 46593.8 17824.3 46595.6 17826.5 46597 17832.8 46604.4 17839.6 46611.3 17841.2 46614.2 17842.5 46615.7 17843.7 46618.7 17847.7 46626 18002.8 47000.4 23499.6 52497.2 24148.7 52766.1 33851.3 52766.1 34500.4 52497.2 37057.2 49940.4 37326.1 49291.3 37326.1 48832.2 37326.4 48830.2 37326.2 48828.3 37328.4 48818.1 37330 48807.9 37331 48806.2 37331.4 48804.2 37336.7 48795.3 37341.6 48786.2 37343 48784.8 37344 48783.1 37351.9 48776.4 37359.4 48769.2 37361.2 48768.4 37362.7 48767.1 37372.3 48763.2 37381.7 48758.9 37383.7 48758.7 37385.5 48757.9 37402.2 48756.1 41861.3 48756.1 42510.4 48487.2 42513 48484.6 42518.3 48480.8 42523 48476.2 42530.3 48472.2 42532.9 48470.3 42534.8 48469.7 42537.7 48468.1 43146.5 48215.9 43715.9 47646.5 44024.1 46902.6 44024.1 46097.4 43715.9 45353.5 43146.5 44784.1 42630.5 44570.3 42624.4 44566.6 42617.9 44563.6 42614 44560.1 42609.6 44557.4 42605 44551.9 42599.8 44547 42597.3 44542.4 42593.9 44538.4 42591.4 44531.7 42587.9 44525.4 42587 44520.3 42585.1 44515.5 42584.8 44508.3 42583.5 44501.2 42584.3 44496.1 42584.1 44490.9 42586.1 44484 42587.1 44476.9 42589.5 44472.3 42590.9 44467.3 42595 44461.4 42598.3 44455 42602 44451.3 42605 44447.1 42610.7 44442.8 42615.8 44437.8 42622.1 44434.3 42624.7 44432.4 42626.9 44431.7 42630.5 44429.7 43146.5 44215.9 43715.9 43646.5 44024.1 42902.6 44024.1 42097.4 43715.9 41353.5 43146.5 40784.1 42402.6 40475.9 42205.5 40475.9 42198.4 40474.8 42191.2 40474.6 42186.3 40472.8 42181.2 40472 42174.9 40468.6 42168.1 40466.1 42164 40462.9 42159.4 40460.4 42154.5 40455.3 42148.9 40450.8 42146.1 40446.4 42142.5 40442.6 42139.5 40436.1 42135.6 40430.1 42134.3 40425 42132.1 40420.3 42131.4 40413.2 42129.6 40406.2 42130 40401 42129.4 40395.9 42131 40388.8 42131.5 40381.7 42133.6 40376.9 42134.7 40371.8 42138.3 40365.7 42141.2 40359.1 42145.6 40353.5 42147.3 40350.7 42149.1 40349.2 42151.6 40346 42513 39984.6 42518.3 39980.8 42523 39976.2 42530.3 39972.2 42532.9 39970.3 42534.8 39969.7 42537.7 39968.1 43146.5 39715.9 43715.9 39146.5 44024.1 38402.6 44024.1 37597.4 43715.9 36853.5 43146.5 36284.1 42402.6 35975.9 41597.4 35975.9 40853.5 36284.1 40284.1 36853.5 40031.9 37462.3 40028.4 37467.9 40025.8 37473.9 40020.7 37480.4 40018.9 37483.2 40017.4 37484.5 40015.4 37487 37671.2 39831.2 37665.4 39835.3 37660.2 39840.3 37655.5 39842.5 37651.3 39845.5 37644.4 39847.6 37637.9 39850.7 37632.7 39851.2 37627.7 39852.8 37620.6 39852.6 37613.5 39853.4 37608.4 39852.3 37603.2 39852.1 37596.4 39849.7 37589.4 39848.1 37585 39845.5 37580.1 39843.7 37574.5 39839.2 37568.3 39835.5 37564.9 39831.6 37560.9 39828.3 37557 39822.3 37552.3 39816.8 37550.4 39812 37547.6 39807.6 37545.8 39800.7 37543.1 39794 37542.3 39786.9 37541.5 39783.8 37541.7 39781.4 37541.3 39777.3 37541.3 38549.3 37145.8 38153.8 37144.6 38152.2 37143.1 38151 37137.4 38142.2 37131.4 38133.9 37130.8 38132 37129.8 38130.3 37127.2 38120.2 37124.2 38110.3 37124.2 38108.4 37123.7 38106.4 37124.5 38096.1 37124.8 38085.8 37125.5 38083.9 37125.7 38081.9 37129.7 38072.4 37133.3 38062.7 37134.5 38061.1 37135.3 38059.3 37145.8 38046.2 37541.3 37650.7 37541.3 36009.3 37348.4 35816.4 37343.1 35809 37337.1 35802.1 37335.9 35799.1 37334 35796.5 37331.3 35787.8 37327.9 35779.3 37327.5 35775.2 37326.8 35772.9 37326.9 35769.7 37326.1 35762.6 37326.1 29368.7 37057.2 28719.6 33840.4 25502.8 33191.3 25233.9 9648.7 25233.9 8999.6 25502.8 6222.2 28280.2 6216.4 28284.3 6211.2 28289.3 6206.5 28291.5 6202.3 28294.5 6195.4 28296.6 6188.9 28299.7 6183.7 28300.2 6178.7 28301.8 6171.6 28301.6 6164.5 28302.4 6159.4 28301.3 6154.2 28301.1 6147.4 28298.7 6140.4 28297.1 6135.9 28294.5 6131.1 28292.7 6125.5 28288.2 6119.3 28284.5 6115.9 28280.6 6111.9 28277.3 6108 28271.3 6103.3 28265.8 6101.4 28261 6098.6 28256.6 6096.8 28249.7 6094.1 28243 6093.3 28235.9 6092.5 28232.8 6092.7 28230.4 6092.3 28226.3 6092.3 22368.4 6092.6 22366.4 6092.4 22364.5 6094.6 22354.3 6096.2 22344.1 6097.2 22342.4 6097.6 22340.4 6102.9 22331.5 6107.8 22322.4 6109.2 22321 6110.2 22319.3 6118.1 22312.6 6125.6 22305.4 6127.4 22304.6 6128.9 22303.3 6138.5 22299.4 6147.9 22295.1 6149.9 22294.9 6151.7 22294.1 6168.4 22292.3 35368.7 22292.3 35371.4 22292.7 35601.3 22292.3 35601.4 22292.3 35818.3 22292.3 36019 22208.7 36019.1 22208.7 36219.7 22125.6 36373.4 21971.3 36373.5 21971.3 36373.5 21971.2 36526.7 21818 36609.6 21616.9 36609.6 21616.8 36609.6 21616.7 36692.7 21416.3 36692.3 21198.5 36692.3 21198.4 36692.3 21198.3 36692.3 20972.9 36692 20971.8 36692.2 20969.9 36691.8 20966.7 36654.5 1168.5 36654.8 1166.5 36654.6 1164.5 36656.8 1154.4 36658.4 1144.3 36659.4 1142.4 36659.8 1140.4 36665.1 1131.6 36669.9 1122.5 36671.4 1121.1 36672.4 1119.3 36680.2 1112.6 36687.7 1105.5 36689.5 1104.7 36691.1 1103.3 36700.7 1099.5 36710 1095.1 36712 1094.9 36713.9 1094.1 36730.6 1092.3 40612.1 1092.3 40619.2 1093.4"/><path d="M 21745.9 32767.5 21745.9 32767.5 21755 32768.3 21758 32769.5 21761.2 32770 21769.3 32774.3 21777.7 32777.9 21780.9 32780.5 21782.9 32781.6 21785.2 32783.9 21790.8 32788.4 22711.6 33709.2 22716.9 33716.6 22722.9 33723.6 22724.1 33726.6 22726 33729.2 22728.7 33737.9 22732.1 33746.4 22732.5 33750.5 22733.2 33752.7 22733.1 33755.9 22733.9 33763.1 22733.9 41351.3 23002.8 42000.4 24409.6 43407.2 25058.7 43676.1 25536.5 43676.1 25541 43676.8 25545.6 43676.6 25553.1 43678.8 25560.8 43680 25564.8 43682.2 25569.2 43683.5 25575.6 43687.9 25582.5 43691.6 25585.7 43694.9 25589.5 43697.5 25594.1 43703.8 25599.5 43709.4 25601.4 43713.6 25604.1 43717.2 25606.5 43724.6 25609.8 43731.7 25610.3 43736.3 25611.8 43740.6 25611.7 43748.4 25612.5 43756.1 25611.6 43760.6 25611.5 43765.2 25607.7 43778.4 25607.3 43780.2 25607.1 43780.6 25606.8 43781.3 25475.9 44097.4 25475.9 44902.6 25784.1 45646.5 26353.5 46215.9 27097.4 46524.1 27902.6 46524.1 28632.2 46221.9 28638.6 46220.4 28644.7 46217.9 28652.9 46217 28656.2 46216.3 28658.1 46216.4 28661.3 46216.1 31885.8 46216.1 31892.9 46217.2 31900.1 46217.4 31905 46219.2 31910.1 46220 31916.4 46223.4 31923.2 46225.9 31927.2 46229.1 31931.8 46231.6 31936.8 46236.8 31942.4 46241.2 31945.2 46245.6 31948.8 46249.4 31951.8 46255.9 31955.7 46261.9 31957 46267 31959.1 46271.7 31959.9 46278.8 31961.7 46285.8 31961.3 46291 31961.9 46296.1 31960.3 46303.2 31959.8 46310.3 31957.7 46315.1 31956.6 46320.2 31953 46326.3 31950.1 46332.9 31945.7 46338.5 31944 46341.3 31942.2 46342.8 31939.7 46346 31800.7 46485 31800.7 46837.7 32943.8 46837.7 32945.8 46838 32947.7 46837.8 32957.9 46840 32968.1 46841.7 32969.8 46842.6 32971.8 46843 32980.7 46848.3 32989.8 46853.2 32991.2 46854.6 32992.9 46855.6 32999.6 46863.5 33006.7 46871 33007.6 46872.8 33008.9 46874.3 33012.7 46883.9 33017.1 46893.3 33017.3 46895.3 33018.1 46897.1 33019.9 46913.8 33019.9 46990.1 33096.2 46990.1 33098.2 46990.4 33100.1 46990.2 33110.3 46992.4 33120.5 46994.1 33122.2 46995 33124.2 46995.4 33133.1 47000.7 33142.2 47005.6 33143.6 47007 33145.3 47008 33152 47015.9 33159.1 47023.4 33160 47025.2 33161.3 47026.7 33165.2 47036.3 33169.5 47045.7 33169.7 47047.7 33170.5 47049.5 33172.3 47066.2 33172.3 48209.3 33525 48209.3 33664 48070.3 33669.8 48066.2 33675 48061.2 33679.7 48059 33683.9 48056 33690.8 48053.9 33697.3 48050.9 33702.5 48050.3 33707.5 48048.7 33714.6 48048.9 33721.7 48048.1 33726.8 48049.2 33732 48049.4 33738.8 48051.8 33745.8 48053.4 33750.3 48056 33755.1 48057.8 33760.7 48062.3 33766.9 48066 33770.3 48069.9 33774.3 48073.2 33778.2 48079.2 33782.9 48084.7 33784.8 48089.5 33787.6 48093.9 33789.4 48100.8 33792.1 48107.5 33792.9 48114.6 33793.7 48117.7 33793.5 48120.1 33793.9 48124.2 33793.9 48176.9 33792.5 48185.9 33791.7 48195 33790.5 48198 33790 48201.2 33785.7 48209.3 33782.1 48217.7 33779.5 48220.9 33778.4 48222.9 33776.1 48225.2 33771.6 48230.8 32790.8 49211.6 32783.4 49216.9 32776.4 49222.9 32773.4 49224.1 32770.8 49226 32762.1 49228.7 32753.6 49232.1 32749.5 49232.5 32747.3 49233.2 32744.1 49233.1 32736.9 49233.9 25263.1 49233.9 25254.1 49232.5 25245 49231.7 25242 49230.5 25238.8 49230 25230.7 49225.7 25222.3 49222.1 25219.1 49219.5 25217.1 49218.4 25214.8 49216.1 25209.2 49211.6 21288.4 45290.8 21283.1 45283.4 21277.1 45276.4 21275.9 45273.4 21274 45270.8 21271.3 45262.1 21267.9 45253.6 21267.5 45249.5 21266.8 45247.3 21266.9 45244.1 21266.1 45236.9 21266.1 34648.7 20997.2 33999.6 20489.7 33492.1 20484.6 33487 20480.8 33481.7 20476.2 33477 20472.2 33469.7 20470.3 33467.1 20469.7 33465.2 20468.1 33462.3 20223.3 32871.3 20222.3 32866.9 20220.3 32862.7 20219.5 32855 20217.7 32847.4 20218.1 32842.8 20217.6 32838.3 20219.3 32830.6 20220 32822.9 20221.9 32818.7 20222.9 32814.2 20226.9 32807.5 20230 32800.4 20233.1 32797 20235.5 32793.1 20241.4 32788 20246.7 32782.3 20250.7 32780.1 20254.2 32777.1 20261.4 32774.2 20268.2 32770.5 20272.7 32769.6 20277 32767.9 20290.6 32766.4 20292.4 32766.1 20292.9 32766.2 20293.7 32766.1 21736.9 32766.1 21745.9 32767.5"/></g></g></g></g></g></g><path d="M 16710.9 32766.8 16710.9 32766.8 16715.5 32766.6 16722.9 32768.8 16730.6 32770 16734.7 32772.2 16739.1 32773.5 16745.5 32777.9 16752.4 32781.6 16755.5 32784.9 16759.3 32787.5 16763.9 32793.8 16769.3 32799.4 16771.2 32803.6 16774 32807.2 16776.4 32814.6 16779.7 32821.7 16780.2 32826.3 16781.6 32830.6 16781.5 32838.4 16782.4 32846.1 16781.4 32850.6 16781.3 32855.2 16777.5 32868.4 16777.1 32870.2 16776.9 32870.6 16776.7 32871.3 16475.9 33597.4 16475.9 34402.6 16784.1 35146.5 17353.5 35715.9 17686.9 35854.1 17696.9 35860.2 17706.9 35866.2 17707.3 35866.7 17707.8 35867 17715.3 35876 17722.9 35884.9 17723.1 35885.5 17723.5 35886 17727.7 35896.8 17732.1 35907.7 17732.2 35908.5 17732.3 35908.9 17732.4 35910.8 17733.9 35924.4 17733.9 37788.2 17732.8 37795.3 17732.6 37802.4 17730.8 37807.3 17730 37812.5 17726.6 37818.8 17724.1 37825.5 17720.9 37829.6 17718.4 37834.2 17713.2 37839.2 17708.8 37844.8 17704.4 37847.6 17700.6 37851.2 17694.1 37854.2 17688.1 37858.1 17683 37859.3 17678.3 37861.5 17671.2 37862.3 17664.2 37864.1 17659 37863.7 17653.9 37864.2 17646.8 37862.7 17639.7 37862.1 17634.9 37860.1 17629.8 37859 17623.7 37855.3 17617.1 37852.5 17611.5 37848 17608.7 37846.4 17607.2 37844.6 17604 37842 16767 37005 16765.8 37003.4 16764.2 37002.1 16758.6 36993.4 16752.6 36985 16752 36983.1 16750.9 36981.5 16748.4 36971.4 16745.4 36961.5 16745.4 36959.5 16744.9 36957.6 16745.7 36947.3 16746 36936.9 16746.7 36935.1 16746.8 36933.1 16750.9 36923.6 16754.4 36913.8 16755.7 36912.3 16756.5 36910.4 16767 36897.4 16939.3 36725 16939.3 36372.3 15796.2 36372.3 15794.2 36372 15792.3 36372.2 15782.1 36370 15771.9 36368.3 15770.2 36367.4 15768.2 36367 15759.3 36361.7 15750.2 36356.8 15748.8 36355.4 15747.1 36354.4 15740.4 36346.5 15733.3 36339 15732.4 36337.2 15731.1 36335.7 15727.3 36326.1 15722.9 36316.7 15722.7 36314.7 15721.9 36312.9 15720.1 36296.2 15720.1 36219.9 15643.8 36219.9 15641.8 36219.6 15639.9 36219.8 15629.7 36217.6 15619.5 36215.9 15617.8 36215 15615.8 36214.6 15606.9 36209.3 15597.8 36204.4 15596.4 36203 15594.7 36202 15588 36194.1 15580.9 36186.6 15580 36184.8 15578.7 36183.3 15574.8 36173.7 15570.5 36164.3 15570.3 36162.3 15569.5 36160.5 15567.7 36143.8 15567.7 35000.7 15215 35000.7 15015.9 35199.8 15012.1 35202.5 15009 35205.9 15002.2 35209.6 14995.9 35214.2 14991.5 35215.5 14987.5 35217.7 14979.8 35219.1 14972.4 35221.4 14967.8 35221.3 14963.3 35222.1 14955.6 35221 14947.8 35220.8 14943.5 35219.2 14938.9 35218.5 14932 35215 14924.7 35212.3 14921.1 35209.5 14917 35207.4 14911.6 35201.8 14905.5 35197 14903 35193.1 14899.8 35189.8 14893.2 35177.8 14892.2 35176.3 14892.1 35175.8 14891.7 35175.1 14859.6 35097.7 14302.3 34540.4 13574.1 34238.7 12785.9 34238.7 12057.7 34540.4 11500.4 35097.7 11412.5 35309.7 11407.4 35318 11402.8 35326.6 11401 35328.4 11399.6 35330.6 11392 35336.9 11385 35343.6 11382.6 35344.7 11380.6 35346.3 11371.5 35349.8 11362.7 35353.9 11360.1 35354.2 11357.7 35355.1 11347.9 35355.6 11338.3 35356.6 11335.7 35356.1 11333.1 35356.2 11323.7 35353.5 11314.2 35351.4 11312 35350.1 11309.5 35349.3 11301.5 35343.8 11293.1 35338.8 11291.4 35336.8 11289.3 35335.3 11283.4 35327.5 11277.1 35320.1 11276.1 35317.7 11274.6 35315.6 11271.6 35306.3 11267.9 35297.3 11267.6 35294 11267 35292.2 11267 35288.9 11266.1 35280.6 11266.1 32842.2 11266.4 32840.2 11266.2 32838.3 11268.4 32828.1 11270 32817.9 11271 32816.2 11271.4 32814.2 11276.7 32805.3 11281.6 32796.2 11283 32794.8 11284 32793.1 11291.9 32786.4 11299.4 32779.2 11301.2 32778.4 11302.7 32777.1 11312.3 32773.2 11321.7 32768.9 11323.7 32768.7 11325.5 32767.9 11342.2 32766.1 16706.3 32766.1 16710.9 32766.8"/></g></g></g></g></g></g></g></g></g></g></g></g></g></g></g></g></g></g></g></g></g></g></g></g></g></g></g></g></g></g></g></g></g></g></g></g></g></g></g></g></g></g></g></g></g></g><path d="M 72267.2 27500 70235.2 27500 M 65764.8 27500 63732.8 27500 M 85235.2 42500 87267.2 42500 M 80764.8 42500 78732.8 42500 M 85235.2 27500 87267.2 27500 M 80764.8 27500 78732.8 27500 M 85235.2 12500 87267.2 12500 M 80764.8 12500 78732.8 12500 M 100235.2 27500 102267.2 27500 M 95764.8 27500 93732.8 27500" fill="none" stroke-width="2032"/><use xlink:href="#UhfujaxJwEc2-148vdAM_pad-11" x="58080" y="43990"/><use xlink:href="#UhfujaxJwEc2-148vdAM_pad-11" x="47920" y="43990"/><use xlink:href="#UhfujaxJwEc2-148vdAM_pad-12" x="47920" y="38410"/><use xlink:href="#UhfujaxJwEc2-148vdAM_pad-12" x="58080" y="38410"/><use xlink:href="#UhfujaxJwEc2-148vdAM_pad-11" x="58080" y="27500"/><use xlink:href="#UhfujaxJwEc2-148vdAM_pad-11" x="47920" y="27500"/><use xlink:href="#UhfujaxJwEc2-148vdAM_pad-11" x="58080" y="32990"/><use xlink:href="#UhfujaxJwEc2-148vdAM_pad-11" x="47920" y="32990"/><use xlink:href="#UhfujaxJwEc2-148vdAM_pad-11" x="58080" y="22320"/><use xlink:href="#UhfujaxJwEc2-148vdAM_pad-11" x="47920" y="22320"/><use xlink:href="#UhfujaxJwEc2-148vdAM_pad-11" x="58080" y="12120"/><use xlink:href="#UhfujaxJwEc2-148vdAM_pad-11" x="47920" y="12120"/><use xlink:href="#UhfujaxJwEc2-148vdAM_pad-11" x="58080" y="17240"/><use xlink:href="#UhfujaxJwEc2-148vdAM_pad-11" x="47920" y="17240"/><use xlink:href="#UhfujaxJwEc2-148vdAM_pad-13" x="58080" y="49060"/><use xlink:href="#UhfujaxJwEc2-148vdAM_pad-13" x="47920" y="49060"/><use xlink:href="#UhfujaxJwEc2-148vdAM_pad-14" x="33020" y="36830"/><use xlink:href="#UhfujaxJwEc2-148vdAM_pad-14" x="35560" y="36830"/><use xlink:href="#UhfujaxJwEc2-148vdAM_pad-14" x="33020" y="39370"/><use xlink:href="#UhfujaxJwEc2-148vdAM_pad-14" x="35560" y="39370"/><use xlink:href="#UhfujaxJwEc2-148vdAM_pad-14" x="33020" y="41910"/><use xlink:href="#UhfujaxJwEc2-148vdAM_pad-14" x="35560" y="41910"/><use xlink:href="#UhfujaxJwEc2-148vdAM_pad-14" x="33020" y="44450"/><use xlink:href="#UhfujaxJwEc2-148vdAM_pad-14" x="35560" y="44450"/><use xlink:href="#UhfujaxJwEc2-148vdAM_pad-14" x="33020" y="46990"/><use xlink:href="#UhfujaxJwEc2-148vdAM_pad-14" x="35560" y="46990"/><use xlink:href="#UhfujaxJwEc2-148vdAM_pad-15" x="13180" y="36220"/><use xlink:href="#UhfujaxJwEc2-148vdAM_pad-14" x="15720" y="36220"/><use xlink:href="#UhfujaxJwEc2-148vdAM_pad-14" x="13180" y="38760"/><use xlink:href="#UhfujaxJwEc2-148vdAM_pad-14" x="15720" y="38760"/><use xlink:href="#UhfujaxJwEc2-148vdAM_pad-14" x="13180" y="41300"/><use xlink:href="#UhfujaxJwEc2-148vdAM_pad-14" x="15720" y="41300"/><use xlink:href="#UhfujaxJwEc2-148vdAM_pad-14" x="13180" y="43840"/><use xlink:href="#UhfujaxJwEc2-148vdAM_pad-14" x="15720" y="43840"/><use xlink:href="#UhfujaxJwEc2-148vdAM_pad-14" x="13180" y="46380"/><use xlink:href="#UhfujaxJwEc2-148vdAM_pad-14" x="15720" y="46380"/><use xlink:href="#UhfujaxJwEc2-148vdAM_pad-16" x="27500" y="48000"/><path d="M 27500 48000 32010 48000 33020 46990" fill="none" stroke-width="1500"/><use xlink:href="#UhfujaxJwEc2-148vdAM_pad-16" x="22000" y="35000"/><path d="M 26000 48000 27500 48000 M 26000 48000 22000 44000 22000 35000" fill="none" stroke-width="1500"/><use xlink:href="#UhfujaxJwEc2-148vdAM_pad-16" x="42000" y="46500"/><path d="M 42000 46500 41510 46990" fill="none" stroke-width="1270"/><path d="M 41510 46990 35560 46990" fill="none" stroke-width="1500"/><use xlink:href="#UhfujaxJwEc2-148vdAM_pad-16" x="18500" y="34000"/><path d="M 18500 34000 19500 35000 19500 46000 24500 51000 33500 51000 35560 48940 35560 46990" fill="none" stroke-width="1500"/><use xlink:href="#UhfujaxJwEc2-148vdAM_pad-16" x="27500" y="38500"/><path d="M 30520 39370 33020 39370 M 30520 39370 29650 38500 27500 38500" fill="none" stroke-width="1500"/><use xlink:href="#UhfujaxJwEc2-148vdAM_pad-16" x="27500" y="44500"/><path d="M 27550 44450 33020 44450" fill="none" stroke-width="1500"/><path d="M 27550 44450 27500 44500" fill="none" stroke-width="1270"/><use xlink:href="#UhfujaxJwEc2-148vdAM_pad-16" x="14000" y="50000"/><path d="M 35560 36830 35560 29720 M 14000 50000 11000 50000 M 32840 27000 35560 29720 M 32840 27000 10000 27000 7000 30000 7000 46000 11000 50000" fill="none" stroke-width="1500"/><use xlink:href="#UhfujaxJwEc2-148vdAM_pad-16" x="42000" y="38000"/><path d="M 38090 41910 35560 41910 M 38090 41910 42000 38000" fill="none" stroke-width="1500"/><use xlink:href="#UhfujaxJwEc2-148vdAM_pad-16" x="9500" y="41500"/><path d="M 9500 41500 9500 32000 10500 31000 22500 31000 24500 33000 24500 41000 25410 41910 33020 41910" fill="none" stroke-width="1500"/><use xlink:href="#UhfujaxJwEc2-148vdAM_pad-16" x="27500" y="31000"/><path d="M 27500 31000 30000 31000 M 33020 34020 33020 36830 M 33020 34020 30000 31000" fill="none" stroke-width="1500"/><use xlink:href="#UhfujaxJwEc2-148vdAM_pad-16" x="42000" y="42500"/><path d="M 42000 42500 40050 44450 35560 44450" fill="none" stroke-width="1500"/><path d="M 5000 21200 35600 21200 35560 0 105000 0 105000 55000 5000 55000 5000 21200 M 44400 51792.7 44392.5 51678.4 44377.6 51564.8 44355.2 51452.4 44325.5 51341.7 44288.7 51233.2 44244.9 51127.4 44194.2 51024.6 44136.9 50925.4 44073.2 50830.1 44003.5 50739.2 43927.9 50653.1 43846.9 50572.1 43760.8 50496.5 43669.9 50426.8 43574.6 50363.1 43475.4 50305.8 43372.6 50255.1 43266.8 50211.3 43158.3 50174.5 43047.6 50144.8 42935.2 50122.5 42821.6 50107.5 42707.3 50100 42592.7 50100 42478.4 50107.5 42364.8 50122.5 42252.4 50144.8 42141.7 50174.5 42033.2 50211.3 41927.4 50255.1 41824.6 50305.8 41725.4 50363.1 41630.1 50426.8 41539.2 50496.5 41453.1 50572.1 41372.1 50653.1 41296.5 50739.2 41226.8 50830.1 41163.1 50925.4 41105.8 51024.6 41055.1 51127.4 41011.3 51233.2 40974.5 51341.7 40944.8 51452.4 40922.5 51564.8 40907.5 51678.4 40900 51792.7 40900 51907.3 40907.5 52021.6 40922.5 52135.2 40944.8 52247.6 40974.5 52358.3 41011.3 52466.8 41055.1 52572.6 41105.8 52675.4 41163.1 52774.6 41226.8 52869.9 41296.5 52960.8 41372.1 53046.9 41453.1 53127.9 41539.2 53203.5 41630.1 53273.2 41725.4 53336.9 41824.6 53394.2 41927.4 53444.9 42033.2 53488.7 42141.7 53525.5 42252.4 53555.2 42364.8 53577.6 42478.4 53592.5 42592.7 53600 42707.3 53600 42821.6 53592.5 42935.2 53577.6 43047.6 53555.2 43158.3 53525.5 43266.8 53488.7 43372.6 53444.9 43475.4 53394.2 43574.6 53336.9 43669.9 53273.2 43760.8 53203.5 43846.9 53127.9 43927.9 53046.9 44003.5 52960.8 44073.2 52869.9 44136.9 52774.6 44194.2 52675.4 44244.9 52572.6 44288.7 52466.8 44325.5 52358.3 44355.2 52247.6 44377.6 52135.2 44392.5 52021.6 44400 51907.3 44400 51792.7 M 44400 3092.7 44392.5 2978.4 44377.6 2864.8 44355.2 2752.4 44325.5 2641.7 44288.7 2533.2 44244.9 2427.4 44194.2 2324.6 44136.9 2225.4 44073.2 2130.1 44003.5 2039.2 43927.9 1953.1 43846.9 1872.1 43760.8 1796.5 43669.9 1726.8 43574.6 1663.1 43475.4 1605.8 43372.6 1555.1 43266.8 1511.3 43158.3 1474.5 43047.6 1444.8 42935.2 1422.5 42821.6 1407.5 42707.3 1400 42592.7 1400 42478.4 1407.5 42364.8 1422.5 42252.4 1444.8 42141.7 1474.5 42033.2 1511.3 41927.4 1555.1 41824.6 1605.8 41725.4 1663.1 41630.1 1726.8 41539.2 1796.5 41453.1 1872.1 41372.1 1953.1 41296.5 2039.2 41226.8 2130.1 41163.1 2225.4 41105.8 2324.6 41055.1 2427.4 41011.3 2533.2 40974.5 2641.7 40944.8 2752.4 40922.5 2864.8 40907.5 2978.4 40900 3092.7 40900 3207.3 40907.5 3321.6 40922.5 3435.2 40944.8 3547.6 40974.5 3658.3 41011.3 3766.8 41055.1 3872.6 41105.8 3975.4 41163.1 4074.6 41226.8 4169.9 41296.5 4260.8 41372.1 4346.9 41453.1 4427.9 41539.2 4503.5 41630.1 4573.2 41725.4 4636.9 41824.6 4694.2 41927.4 4744.9 42033.2 4788.7 42141.7 4825.5 42252.4 4855.2 42364.8 4877.6 42478.4 4892.5 42592.7 4900 42707.3 4900 42821.6 4892.5 42935.2 4877.6 43047.6 4855.2 43158.3 4825.5 43266.8 4788.7 43372.6 4744.9 43475.4 4694.2 43574.6 4636.9 43669.9 4573.2 43760.8 4503.5 43846.9 4427.9 43927.9 4346.9 44003.5 4260.8 44073.2 4169.9 44136.9 4074.6 44194.2 3975.4 44244.9 3872.6 44288.7 3766.8 44325.5 3658.3 44355.2 3547.6 44377.6 3435.2 44392.5 3321.6 44400 3207.3 44400 3092.7 M 101750 3092.7 101742.5 2978.4 101727.6 2864.8 101705.2 2752.4 101675.5 2641.7 101638.7 2533.2 101594.9 2427.4 101544.2 2324.6 101486.9 2225.4 101423.2 2130.1 101353.5 2039.2 101277.9 1953.1 101196.9 1872.1 101110.8 1796.5 101019.9 1726.8 100924.6 1663.1 100825.4 1605.8 100722.6 1555.1 100616.8 1511.3 100508.3 1474.5 100397.6 1444.8 100285.2 1422.5 100171.6 1407.5 100057.3 1400 99942.7 1400 99828.4 1407.5 99714.8 1422.5 99602.4 1444.8 99491.7 1474.5 99383.2 1511.3 99277.4 1555.1 99174.6 1605.8 99075.4 1663.1 98980.1 1726.8 98889.2 1796.5 98803.1 1872.1 98722.1 1953.1 98646.5 2039.2 98576.8 2130.1 98513.1 2225.4 98455.8 2324.6 98405.1 2427.4 98361.3 2533.2 98324.5 2641.7 98294.8 2752.4 98272.5 2864.8 98257.5 2978.4 98250 3092.7 98250 3207.3 98257.5 3321.6 98272.5 3435.2 98294.8 3547.6 98324.5 3658.3 98361.3 3766.8 98405.1 3872.6 98455.8 3975.4 98513.1 4074.6 98576.8 4169.9 98646.5 4260.8 98722.1 4346.9 98803.1 4427.9 98889.2 4503.5 98980.1 4573.2 99075.4 4636.9 99174.6 4694.2 99277.4 4744.9 99383.2 4788.7 99491.7 4825.5 99602.4 4855.2 99714.8 4877.6 99828.4 4892.5 99942.7 4900 100057.3 4900 100171.6 4892.5 100285.2 4877.6 100397.6 4855.2 100508.3 4825.5 100616.8 4788.7 100722.6 4744.9 100825.4 4694.2 100924.6 4636.9 101019.9 4573.2 101110.8 4503.5 101196.9 4427.9 101277.9 4346.9 101353.5 4260.8 101423.2 4169.9 101486.9 4074.6 101544.2 3975.4 101594.9 3872.6 101638.7 3766.8 101675.5 3658.3 101705.2 3547.6 101727.6 3435.2 101742.5 3321.6 101750 3207.3 101750 3092.7 M 101750 51792.7 101742.5 51678.4 101727.6 51564.8 101705.2 51452.4 101675.5 51341.7 101638.7 51233.2 101594.9 51127.4 101544.2 51024.6 101486.9 50925.4 101423.2 50830.1 101353.5 50739.2 101277.9 50653.1 101196.9 50572.1 101110.8 50496.5 101019.9 50426.8 100924.6 50363.1 100825.4 50305.8 100722.6 50255.1 100616.8 50211.3 100508.3 50174.5 100397.6 50144.8 100285.2 50122.5 100171.6 50107.5 100057.3 50100 99942.7 50100 99828.4 50107.5 99714.8 50122.5 99602.4 50144.8 99491.7 50174.5 99383.2 50211.3 99277.4 50255.1 99174.6 50305.8 99075.4 50363.1 98980.1 50426.8 98889.2 50496.5 98803.1 50572.1 98722.1 50653.1 98646.5 50739.2 98576.8 50830.1 98513.1 50925.4 98455.8 51024.6 98405.1 51127.4 98361.3 51233.2 98324.5 51341.7 98294.8 51452.4 98272.5 51564.8 98257.5 51678.4 98250 51792.7 98250 51907.3 98257.5 52021.6 98272.5 52135.2 98294.8 52247.6 98324.5 52358.3 98361.3 52466.8 98405.1 52572.6 98455.8 52675.4 98513.1 52774.6 98576.8 52869.9 98646.5 52960.8 98722.1 53046.9 98803.1 53127.9 98889.2 53203.5 98980.1 53273.2 99075.4 53336.9 99174.6 53394.2 99277.4 53444.9 99383.2 53488.7 99491.7 53525.5 99602.4 53555.2 99714.8 53577.6 99828.4 53592.5 99942.7 53600 100057.3 53600 100171.6 53592.5 100285.2 53577.6 100397.6 53555.2 100508.3 53525.5 100616.8 53488.7 100722.6 53444.9 100825.4 53394.2 100924.6 53336.9 101019.9 53273.2 101110.8 53203.5 101196.9 53127.9 101277.9 53046.9 101353.5 52960.8 101423.2 52869.9 101486.9 52774.6 101544.2 52675.4 101594.9 52572.6 101638.7 52466.8 101675.5 52358.3 101705.2 52247.6 101727.6 52135.2 101742.5 52021.6 101750 51907.3 101750 51792.7" fill="none" stroke-width="254"/></g></svg>