<svg version="1.1" xmlns="http://www.w3.org/2000/svg" xmlns:xlink="http://www.w3.org/1999/xlink" stroke-linecap="round" stroke-linejoin="round" stroke-width="0" fill-rule="evenodd" width="100.254mm" height="55.254mm" viewBox="4873 -127 100254 55254" id="lYMr6ej41toiUzr_0Ycy"><defs><mask id="lYMr6ej41toiUzr_0Ycy_clear-1" fill="#000" stroke="#000"><g><rect x="6092.3" y="1092.3" width="97815.4" height="52815.4" fill="#fff"/><path d="M 47128.8 10209.8 47128.8 10209.8 46009.8 11328.8 46009.8 12911.2 46131.6 13033 46136.9 13040.4 46142.9 13047.3 46144.1 13050.3 46146 13053 46148.7 13061.7 46152.1 13070.1 46152.5 13074.2 46153.2 13076.5 46153.1 13079.7 46153.9 13086.8 46153.9 16273.2 46152.5 16282.2 46151.7 16291.3 46150.5 16294.3 46150 16297.5 46145.7 16305.5 46142.1 16313.9 46139.5 16317.1 46138.4 16319.2 46136.1 16321.4 46131.6 16327 46009.8 16448.8 46009.8 18031.2 46131.6 18153 46136.9 18160.4 46142.9 18167.3 46144.1 18170.3 46146 18173 46148.7 18181.7 46152.1 18190.1 46152.5 18194.2 46153.2 18196.5 46153.1 18199.7 46153.9 18206.8 46153.9 21353.2 46152.5 21362.2 46151.7 21371.3 46150.5 21374.3 46150 21377.5 46145.7 21385.5 46142.1 21393.9 46139.5 21397.1 46138.4 21399.2 46136.1 21401.4 46131.6 21407 46009.8 21528.8 46009.8 23111.2 46131.6 23233 46136.9 23240.4 46142.9 23247.3 46144.1 23250.3 46146 23253 46148.7 23261.7 46152.1 23270.1 46152.5 23274.2 46153.2 23276.5 46153.1 23279.7 46153.9 23286.8 46153.9 26533.2 46152.5 26542.2 46151.7 26551.3 46150.5 26554.3 46150 26557.5 46145.7 26565.5 46142.1 26573.9 46139.5 26577.1 46138.4 26579.2 46136.1 26581.4 46131.6 26587 46009.8 26708.8 46009.8 28291.2 46131.6 28413 46136.9 28420.4 46142.9 28427.3 46144.1 28430.4 46146 28433 46148.7 28441.6 46152.1 28450.2 46152.5 28454.2 46153.2 28456.5 46153.1 28459.7 46153.9 28466.8 46153.9 32023.2 46152.5 32032.2 46151.7 32041.3 46150.5 32044.3 46150 32047.5 46145.7 32055.5 46142.1 32063.9 46139.5 32067.1 46138.4 32069.2 46136.1 32071.4 46131.6 32077 46009.8 32198.8 46009.8 33781.2 46131.6 33903 46136.9 33910.4 46142.9 33917.3 46144.1 33920.4 46146 33923 46148.7 33931.7 46152.1 33940.2 46152.5 33944.2 46153.2 33946.5 46153.1 33949.7 46153.9 33956.8 46153.9 37443.2 46152.5 37452.2 46151.7 37461.3 46150.5 37464.3 46150 37467.5 46145.7 37475.5 46142.1 37483.9 46139.5 37487.1 46138.4 37489.2 46136.1 37491.4 46131.6 37497 46009.8 37618.8 46009.8 38461 46008.4 38470 46007.7 38479.1 46006.4 38482.1 46005.9 38485.3 46001.6 38493.4 45998 38501.7 45995.5 38505 45994.4 38507 45992 38509.2 45987.5 38514.8 43790.8 40711.6 43783.4 40716.9 43776.4 40722.9 43773.4 40724.1 43770.8 40726 43762.1 40728.7 43753.6 40732.1 43749.5 40732.5 43747.3 40733.2 43744.1 40733.1 43736.9 40733.9 43040.6 40733.9 43034.2 40732.9 43027.6 40732.8 43019.6 40730.5 43016.4 40730 43014.6 40729 43011.5 40728.1 42402.6 40475.9 41597.4 40475.9 40853.5 40784.1 40284.1 41353.5 39975.9 42097.4 39975.9 42902.6 40284.1 43646.5 40853.5 44215.9 41369.5 44429.7 41375.6 44433.4 41382.1 44436.4 41386 44439.9 41390.4 44442.6 41395 44448.1 41400.2 44453 41402.7 44457.6 41406.1 44461.6 41408.6 44468.3 41412.1 44474.6 41413 44479.7 41414.9 44484.5 41415.2 44491.7 41416.5 44498.8 41415.7 44503.9 41415.9 44509.1 41413.9 44516 41412.9 44523.1 41410.5 44527.7 41409.1 44532.7 41405 44538.6 41401.7 44545 41398 44548.7 41395 44552.9 41389.3 44557.2 41384.2 44562.2 41377.9 44565.7 41375.3 44567.6 41373.1 44568.3 41369.5 44570.3 40853.5 44784.1 40284.1 45353.5 39975.9 46097.4 39975.9 46902.6 40284.1 47646.5 40853.5 48215.9 41597.4 48524.1 42402.6 48524.1 43035.6 48261.9 43042 48260.4 43048.1 48257.9 43056.4 48257 43059.6 48256.3 43061.5 48256.4 43064.8 48256.1 45771.3 48256.1 46420.4 47987.2 48485.2 45922.5 48492.6 45917.1 48499.5 45911.2 48502.5 45910 48505.1 45908.1 48513.8 45905.4 48522.3 45902 48526.4 45901.5 48528.6 45900.9 48531.9 45900.9 48539 45900.2 48711.2 45900.2 49830.2 44781.2 49830.2 43198.8 48711.2 42079.8 47601.5 42079.8 47594.5 42078.7 47587.3 42078.5 47582.4 42076.7 47577.3 42075.9 47570.9 42072.5 47564.2 42070.1 47560.1 42066.8 47555.5 42064.4 47550.6 42059.2 47545 42054.7 47542.2 42050.3 47538.6 42046.5 47535.6 42040 47531.7 42034 47530.4 42028.9 47528.2 42024.2 47527.4 42017.1 47525.7 42010.1 47526.1 42004.9 47525.5 41999.8 47527 41992.8 47527.6 41985.6 47529.6 41980.8 47530.7 41975.7 47534.4 41969.6 47537.2 41963 47541.7 41957.4 47543.4 41954.6 47545.1 41953.1 47547.7 41949.9 49417.2 40080.4 49686.1 39431.3 49686.1 39376.8 49687.5 39367.8 49688.3 39358.7 49689.5 39355.7 49690 39352.5 49694.3 39344.5 49697.9 39336.1 49700.5 39332.9 49701.6 39330.8 49703.9 39328.6 49708.4 39323 49830.2 39201.2 49830.2 37618.8 49708.4 37497 49703.1 37489.6 49697.1 37482.7 49695.9 37479.6 49694 37477 49691.3 37468.3 49687.9 37459.8 49687.5 37455.8 49686.8 37453.5 49686.9 37450.3 49686.1 37443.2 49686.1 33956.8 49687.5 33947.8 49688.3 33938.7 49689.5 33935.7 49690 33932.5 49694.3 33924.5 49697.9 33916.1 49700.5 33912.9 49701.6 33910.8 49703.9 33908.6 49708.4 33903 49830.2 33781.2 49830.2 32198.8 49708.4 32077 49703.1 32069.6 49697.1 32062.7 49695.9 32059.6 49694 32057 49691.3 32048.3 49687.9 32039.8 49687.5 32035.8 49686.8 32033.5 49686.9 32030.3 49686.1 32023.2 49686.1 28466.8 49687.5 28457.8 49688.3 28448.7 49689.5 28445.7 49690 28442.5 49694.3 28434.5 49697.9 28426.1 49700.5 28422.9 49701.6 28420.8 49703.9 28418.6 49708.4 28413 49830.2 28291.2 49830.2 26708.8 49708.4 26587 49703.1 26579.6 49697.1 26572.7 49695.9 26569.7 49694 26567 49691.3 26558.3 49687.9 26549.9 49687.5 26545.8 49686.8 26543.5 49686.9 26540.3 49686.1 26533.2 49686.1 23286.8 49687.5 23277.8 49688.3 23268.7 49689.5 23265.7 49690 23262.5 49694.3 23254.5 49697.9 23246.1 49700.5 23242.9 49701.6 23240.8 49703.9 23238.6 49708.4 23233 49830.2 23111.2 49830.2 21528.8 49708.4 21407 49703.1 21399.6 49697.1 21392.7 49695.9 21389.7 49694 21387 49691.3 21378.3 49687.9 21369.9 49687.5 21365.8 49686.8 21363.5 49686.9 21360.3 49686.1 21353.2 49686.1 18206.8 49687.5 18197.8 49688.3 18188.7 49689.5 18185.7 49690 18182.5 49694.3 18174.5 49697.9 18166.1 49700.5 18162.9 49701.6 18160.8 49703.9 18158.6 49708.4 18153 49830.2 18031.2 49830.2 16448.8 49708.4 16327 49703.1 16319.6 49697.1 16312.7 49695.9 16309.7 49694 16307 49691.3 16298.3 49687.9 16289.9 49687.5 16285.8 49686.8 16283.5 49686.9 16280.3 49686.1 16273.2 49686.1 13086.8 49687.5 13077.8 49688.3 13068.7 49689.5 13065.7 49690 13062.5 49694.3 13054.5 49697.9 13046.1 49700.5 13042.9 49701.6 13040.8 49703.9 13038.6 49708.4 13033 49830.2 12911.2 49830.2 11328.8 48711.2 10209.8 47128.8 10209.8"/></g></mask><mask id="lYMr6ej41toiUzr_0Ycy_clear-2" fill="#000" stroke="#000"><g><rect x="6092.3" y="1092.3" width="97815.4" height="52815.4" fill="#fff"/><path d="M 57288.8 15329.8 57288.8 15329.8 56169.8 16448.8 56169.8 18031.2 57288.8 19150.2 58871.2 19150.2 58993 19028.4 59000.4 19023.1 59007.3 19017.1 59010.3 19015.9 59013 19014 59021.7 19011.3 59030.1 19007.9 59034.2 19007.5 59036.5 19006.8 59039.7 19006.9 59046.8 19006.1 88228.1 19006.1 88237.1 19007.5 88246.2 19008.3 88249.2 19009.5 88252.4 19010 88260.5 19014.3 88268.9 19017.9 88272.1 19020.5 88274.1 19021.6 88276.4 19023.9 88282 19028.4 92884.8 23631.2 92886.6 23633.7 92893.6 23641.8 92969.2 23751 92970.2 23753.1 92971.7 23754.8 92975.4 23764.2 92979.7 23773.2 92980 23775.5 92980.9 23777.6 92982.7 23794.3 92982.7 25560.3 92980.8 25571.8 92979.1 25583.4 92978.9 25584 92978.8 25584.6 92973.3 25594.9 92968 25605.3 92967.5 25605.8 92967.2 25606.3 92958.8 25614.3 92950.4 25622.6 92949.8 25622.9 92949.4 25623.3 92947.7 25624.1 92935.7 25630.7 92581.7 25777.3 92010.1 26348.9 91700.7 27095.8 91700.7 27904.2 92010.1 28651.1 92581.7 29222.7 93328.6 29532.1 96169 29532.1 96915.9 29222.7 97487.5 28651.1 97796.9 27904.2 97796.9 27095.8 97487.5 26348.9 96915.9 25777.3 96561.9 25630.7 96551.9 25624.5 96541.9 25618.5 96541.5 25618 96541 25617.7 96533.5 25608.7 96525.9 25599.8 96525.7 25599.2 96525.3 25598.7 96521.1 25587.9 96516.7 25577 96516.6 25576.2 96516.5 25575.8 96516.4 25574 96514.9 25560.3 96514.9 23385.3 96515.4 23382.3 96516.1 23371.7 96549.2 23189.6 96516.6 23038.5 96516.5 23037.4 96514.9 23022.4 96514.9 22867.7 96444.1 22696.8 96443.4 22693.8 96440 22683.7 96400.9 22502.9 96312.9 22375.7 96312.4 22374.7 96305.2 22361.5 96246 22218.6 96115.2 22087.8 96113.4 22085.3 96106.4 22077.3 95815.3 21656.7 95814.9 21655.7 95807.6 21642.5 95748.4 21499.6 95617.6 21368.8 95615.8 21366.3 95608.8 21358.2 95503.5 21206.1 95373.5 21122.3 95372.7 21121.6 95361 21112.2 89991.6 15742.8 89342.5 15473.9 59046.8 15473.9 59037.8 15472.5 59028.7 15471.7 59025.7 15470.5 59022.5 15470 59014.5 15465.7 59006.1 15462.1 59002.9 15459.5 59000.8 15458.4 58998.6 15456.1 58993 15451.6 58871.2 15329.8 57288.8 15329.8"/></g></mask><mask id="lYMr6ej41toiUzr_0Ycy_clear-3" fill="#000" stroke="#000"><g><rect x="6092.3" y="1092.3" width="97815.4" height="52815.4" fill="#fff"/><path d="M 57288.8 31079.8 57288.8 31079.8 56169.8 32198.8 56169.8 33781.2 57288.8 34900.2 58871.2 34900.2 58993 34778.4 59000.4 34773.1 59007.3 34767.1 59010.3 34765.9 59013 34764 59021.7 34761.3 59030.1 34757.9 59034.2 34757.5 59036.5 34756.8 59039.7 34756.9 59046.8 34756.1 73936.9 34756.1 73945.9 34757.5 73955 34758.3 73958 34759.5 73961.2 34760 73969.3 34764.3 73977.7 34767.9 73980.9 34770.5 73982.9 34771.6 73985.2 34773.9 73990.8 34778.4 77960.4 38748 77965.7 38755.4 77971.7 38762.4 77972.9 38765.4 77974.8 38768 77977.5 38776.7 77980.9 38785.2 77981.3 38789.3 77982 38791.5 77981.9 38794.7 77982.7 38801.9 77982.7 40560.3 77980.8 40571.8 77979.1 40583.4 77978.9 40584 77978.8 40584.6 77973.3 40594.9 77968 40605.3 77967.5 40605.8 77967.2 40606.3 77958.8 40614.3 77950.4 40622.6 77949.8 40622.9 77949.4 40623.3 77947.7 40624.1 77935.7 40630.7 77581.7 40777.3 77010.1 41348.9 76700.7 42095.8 76700.7 42904.2 77010.1 43651.1 77581.7 44222.7 78328.6 44532.1 81169 44532.1 81915.9 44222.7 82487.5 43651.1 82796.9 42904.2 82796.9 42095.8 82487.5 41348.9 81915.9 40777.3 81561.9 40630.7 81551.9 40624.5 81541.9 40618.5 81541.5 40618 81541 40617.7 81533.5 40608.7 81525.9 40599.8 81525.7 40599.2 81525.3 40598.7 81521.1 40587.9 81516.7 40577 81516.6 40576.2 81516.5 40575.8 81516.4 40574 81514.9 40560.3 81514.9 37687.5 81246 37038.4 75700.4 31492.8 75051.3 31223.9 59046.8 31223.9 59037.8 31222.5 59028.7 31221.7 59025.7 31220.5 59022.5 31220 59014.5 31215.7 59006.1 31212.1 59002.9 31209.5 59000.8 31208.4 58998.6 31206.1 58993 31201.6 58871.2 31079.8 57288.8 31079.8"/></g></mask><mask id="lYMr6ej41toiUzr_0Ycy_clear-4" fill="#000" stroke="#000"><g><rect x="6092.3" y="1092.3" width="97815.4" height="52815.4" fill="#fff"/><path d="M 57288.8 20409.8 57288.8 20409.8 56169.8 21528.8 56169.8 23111.2 57288.8 24230.2 58871.2 24230.2 58993 24108.4 59000.4 24103.1 59007.3 24097.1 59010.3 24095.9 59013 24094 59021.7 24091.3 59030.1 24087.9 59034.2 24087.5 59036.5 24086.8 59039.7 24086.9 59046.8 24086.1 75805.7 24086.1 75814.7 24087.5 75823.8 24088.3 75826.8 24089.5 75830 24090 75838.1 24094.3 75846.5 24097.9 75849.7 24100.5 75851.7 24101.6 75854 24103.9 75859.6 24108.4 77501.3 25750.1 77502.4 25751.7 77504 25752.9 77509.6 25761.7 77515.6 25770.1 77516.2 25772 77517.3 25773.6 77519.8 25783.7 77522.9 25793.6 77522.8 25795.6 77523.3 25797.5 77522.5 25807.8 77522.2 25818.2 77521.5 25820 77521.4 25822 77517.4 25831.5 77513.8 25841.3 77512.5 25842.8 77511.8 25844.6 77501.3 25857.7 77010.1 26348.9 76700.7 27095.8 76700.7 27904.2 77010.1 28651.1 77581.7 29222.7 78328.6 29532.1 81169 29532.1 81915.9 29222.7 82487.5 28651.1 82796.9 27904.2 82796.9 27095.8 82487.5 26348.9 81915.9 25777.3 81561.9 25630.7 81551.9 25624.5 81541.9 25618.5 81541.5 25618 81541 25617.7 81533.5 25608.7 81525.9 25599.8 81525.7 25599.2 81525.3 25598.7 81521.1 25587.9 81516.7 25577 81516.6 25576.2 81516.5 25575.8 81516.4 25574 81514.9 25560.3 81514.9 25148.7 81246 24499.6 77569.2 20822.8 76920.1 20553.9 59046.8 20553.9 59037.8 20552.5 59028.7 20551.7 59025.7 20550.5 59022.5 20550 59014.5 20545.7 59006.1 20542.1 59002.9 20539.5 59000.8 20538.4 58998.6 20536.1 58993 20531.6 58871.2 20409.8 57288.8 20409.8"/></g></mask><mask id="lYMr6ej41toiUzr_0Ycy_clear-5" fill="#000" stroke="#000"><g><rect x="6092.3" y="1092.3" width="97815.4" height="52815.4" fill="#fff"/><path d="M 57288.8 10209.8 57288.8 10209.8 56169.8 11328.8 56169.8 12911.2 57288.8 14030.2 58871.2 14030.2 58993 13908.4 59000.4 13903.1 59007.3 13897.1 59010.3 13895.9 59013 13894 59021.7 13891.3 59030.1 13887.9 59034.2 13887.5 59036.5 13886.8 59039.7 13886.9 59046.8 13886.1 77213.6 13886.1 77222.6 13887.5 77231.7 13888.3 77234.6 13889.5 77237.8 13890 77245.9 13894.3 77254.3 13897.9 77257.5 13900.5 77259.6 13901.6 77261.8 13903.9 77267.4 13908.4 77581.7 14222.7 78328.6 14532.1 81169 14532.1 81915.9 14222.7 82487.5 13651.1 82796.9 12904.2 82796.9 12095.8 82487.5 11348.9 81915.9 10777.3 81169 10467.9 80010.5 10467.9 80004 10466.9 79997.4 10466.8 79989.4 10464.5 79986.2 10464 79984.5 10463 79981.3 10462.1 79720.1 10353.9 59046.8 10353.9 59037.8 10352.5 59028.7 10351.7 59025.7 10350.5 59022.5 10350 59014.5 10345.7 59006.1 10342.1 59002.9 10339.5 59000.8 10338.4 58998.6 10336.1 58993 10331.6 58871.2 10209.8 57288.8 10209.8"/></g></mask><mask id="lYMr6ej41toiUzr_0Ycy_clear-6" fill="#000" stroke="#000"><g><rect x="6092.3" y="1092.3" width="97815.4" height="52815.4" fill="#fff"/><path d="M 32199.3 34848.7 32199.3 34848.7 31038.7 36009.3 31038.7 37650.7 31434.2 38046.2 31435.4 38047.8 31436.9 38049 31442.6 38057.8 31448.6 38066.1 31449.2 38068 31450.2 38069.7 31452.8 38079.8 31455.8 38089.7 31455.8 38091.6 31456.3 38093.6 31455.5 38103.9 31455.2 38114.2 31454.5 38116.1 31454.3 38118.1 31450.3 38127.6 31446.7 38137.3 31445.5 38138.9 31444.7 38140.7 31434.2 38153.8 31038.7 38549.3 31038.7 40190.7 31434.2 40586.2 31435.4 40587.8 31436.9 40589 31442.6 40597.8 31448.6 40606.1 31449.2 40608 31450.2 40609.7 31452.8 40619.8 31455.8 40629.7 31455.8 40631.6 31456.3 40633.6 31455.5 40643.9 31455.2 40654.2 31454.5 40656.1 31454.3 40658.1 31450.3 40667.6 31446.7 40677.3 31445.5 40678.9 31444.7 40680.7 31434.2 40693.8 31038.7 41089.3 31038.7 42730.7 31434.2 43126.2 31435.4 43127.8 31436.9 43129 31442.6 43137.8 31448.6 43146.1 31449.2 43148 31450.2 43149.7 31452.8 43159.8 31455.8 43169.7 31455.8 43171.6 31456.3 43173.6 31455.5 43183.9 31455.2 43194.2 31454.5 43196.1 31454.3 43198.1 31450.3 43207.6 31446.7 43217.3 31445.5 43218.9 31444.7 43220.7 31434.2 43233.8 31038.7 43629.3 31038.7 45270.7 31973 46205 31974.2 46206.6 31975.8 46207.8 31981.4 46216.6 31987.4 46225 31988 46226.9 31989.1 46228.5 31991.6 46238.6 31994.6 46248.5 31994.6 46250.5 31995.1 46252.4 31994.3 46262.7 31994 46273.1 31993.3 46274.9 31993.2 46276.9 31989.1 46286.4 31985.6 46296.2 31984.3 46297.7 31983.5 46299.5 31973 46312.6 31800.7 46485 31800.7 46837.7 32943.8 46837.7 32945.8 46838 32947.7 46837.8 32957.9 46840 32968.1 46841.7 32969.8 46842.6 32971.8 46843 32980.7 46848.3 32989.8 46853.2 32991.2 46854.6 32992.9 46855.6 32999.6 46863.5 33006.7 46871 33007.6 46872.8 33008.9 46874.3 33012.7 46883.9 33017.1 46893.3 33017.3 46895.3 33018.1 46897.1 33019.9 46913.8 33019.9 46990.1 33096.2 46990.1 33098.2 46990.4 33100.1 46990.2 33110.3 46992.4 33120.5 46994.1 33122.2 46995 33124.2 46995.4 33133.1 47000.7 33142.2 47005.6 33143.6 47007 33145.3 47008 33152 47015.9 33159.1 47023.4 33160 47025.2 33161.3 47026.7 33165.2 47036.3 33169.5 47045.7 33169.7 47047.7 33170.5 47049.5 33172.3 47066.2 33172.3 48209.3 33525 48209.3 33697.4 48037 33699 48035.8 33700.2 48034.2 33709 48028.6 33717.3 48022.6 33719.2 48022 33720.9 48020.9 33731 48018.4 33740.8 48015.4 33742.8 48015.4 33744.8 48014.9 33755.1 48015.7 33765.4 48016 33767.3 48016.7 33769.3 48016.8 33778.8 48020.9 33788.5 48024.4 33790.1 48025.7 33791.9 48026.5 33805 48037 34739.3 48971.3 36380.7 48971.3 37541.3 47810.7 37541.3 46169.3 37145.8 45773.8 37144.6 45772.2 37143.1 45771 37137.4 45762.2 37131.4 45753.9 37130.8 45752 37129.8 45750.3 37127.2 45740.2 37124.2 45730.3 37124.2 45728.4 37123.7 45726.4 37124.5 45716.1 37124.8 45705.8 37125.5 45703.9 37125.7 45701.9 37129.7 45692.4 37133.3 45682.7 37134.5 45681.1 37135.3 45679.3 37145.8 45666.2 37541.3 45270.7 37541.3 43629.3 37145.8 43233.8 37144.6 43232.2 37143.1 43231 37137.4 43222.2 37131.4 43213.9 37130.8 43212 37129.8 43210.3 37127.2 43200.2 37124.2 43190.3 37124.2 43188.4 37123.7 43186.4 37124.5 43176.1 37124.8 43165.8 37125.5 43163.9 37125.7 43161.9 37129.7 43152.4 37133.3 43142.7 37134.5 43141.1 37135.3 43139.3 37145.8 43126.2 37541.3 42730.7 37541.3 41089.3 37145.8 40693.8 37144.6 40692.2 37143.1 40691 37137.4 40682.2 37131.4 40673.9 37130.8 40672 37129.8 40670.3 37127.2 40660.2 37124.2 40650.3 37124.2 40648.4 37123.7 40646.4 37124.5 40636.1 37124.8 40625.8 37125.5 40623.9 37125.7 40621.9 37129.7 40612.4 37133.3 40602.7 37134.5 40601.1 37135.3 40599.3 37145.8 40586.2 37541.3 40190.7 37541.3 38549.3 37145.8 38153.8 37144.6 38152.2 37143.1 38151 37137.4 38142.2 37131.4 38133.9 37130.8 38132 37129.8 38130.3 37127.2 38120.2 37124.2 38110.3 37124.2 38108.4 37123.7 38106.4 37124.5 38096.1 37124.8 38085.8 37125.5 38083.9 37125.7 38081.9 37129.7 38072.4 37133.3 38062.7 37134.5 38061.1 37135.3 38059.3 37145.8 38046.2 37541.3 37650.7 37541.3 36009.3 36380.7 34848.7 34739.3 34848.7 34343.8 35244.2 34342.2 35245.4 34341 35246.9 34332.2 35252.6 34323.9 35258.6 34322 35259.2 34320.3 35260.2 34310.2 35262.8 34300.3 35265.8 34298.4 35265.8 34296.4 35266.3 34286.1 35265.5 34275.8 35265.2 34273.9 35264.5 34271.9 35264.3 34262.4 35260.3 34252.7 35256.7 34251.1 35255.5 34249.3 35254.7 34236.2 35244.2 33840.7 34848.7 32199.3 34848.7"/></g></mask><mask id="lYMr6ej41toiUzr_0Ycy_clear-7" fill="#000" stroke="#000"><g><rect x="6092.3" y="1092.3" width="97815.4" height="52815.4" fill="#fff"/><path d="M 57288.8 36499.8 57288.8 36499.8 56169.8 37618.8 56169.8 39201.2 56291.6 39323 56296.9 39330.4 56302.9 39337.3 56304.1 39340.3 56306 39343 56308.7 39351.7 56312.1 39360.1 56312.5 39364.2 56313.2 39366.5 56313.1 39369.7 56313.9 39376.8 56313.9 43023.2 56312.5 43032.2 56311.7 43041.3 56310.5 43044.3 56310 43047.5 56305.7 43055.5 56302.1 43063.9 56299.5 43067.1 56298.4 43069.2 56296.1 43071.4 56291.6 43077 56169.8 43198.8 56169.8 44781.2 56291.6 44903 56296.9 44910.4 56302.9 44917.3 56304.1 44920.3 56306 44923 56308.7 44931.7 56312.1 44940.1 56312.5 44944.2 56313.2 44946.5 56313.1 44949.7 56313.9 44956.8 56313.9 47865.7 56312.9 47872.2 56312.8 47878.7 56310.5 47886.7 56310 47890 56309 47891.7 56308.1 47894.9 55997.1 48645.7 55997.1 49474.3 56314.2 50239.9 56900.1 50825.8 57665.7 51142.9 58494.3 51142.9 59259.9 50825.8 59845.8 50239.9 60162.9 49474.3 60162.9 48645.7 59851.9 47894.9 59850.4 47888.5 59847.9 47882.4 59847 47874.1 59846.3 47870.9 59846.4 47869 59846.1 47865.7 59846.1 44956.8 59847.5 44947.8 59848.3 44938.7 59849.5 44935.7 59850 44932.5 59854.3 44924.5 59857.9 44916.1 59860.5 44912.9 59861.6 44910.8 59863.9 44908.6 59868.4 44903 59990.2 44781.2 59990.2 43198.8 59868.4 43077 59863.1 43069.6 59857.1 43062.7 59855.9 43059.7 59854 43057 59851.3 43048.3 59847.9 43039.9 59847.5 43035.8 59846.8 43033.5 59846.9 43030.3 59846.1 43023.2 59846.1 39376.8 59847.5 39367.8 59848.3 39358.7 59849.5 39355.7 59850 39352.5 59854.3 39344.5 59857.9 39336.1 59860.5 39332.9 59861.6 39330.8 59863.9 39328.6 59868.4 39323 59990.2 39201.2 59990.2 37618.8 58871.2 36499.8 57288.8 36499.8"/></g></mask><mask id="lYMr6ej41toiUzr_0Ycy_clear-8" fill="#000" stroke="#000"><g><rect x="6092.3" y="1092.3" width="97815.4" height="52815.4" fill="#fff"/><path d="M 63328.6 25467.9 63328.6 25467.9 62700.4 25728.1 62694 25729.6 62687.9 25732.1 62679.7 25733 62676.5 25733.7 62674.5 25733.6 62671.3 25733.9 59046.8 25733.9 59037.8 25732.5 59028.7 25731.7 59025.7 25730.5 59022.5 25730 59014.5 25725.7 59006.1 25722.1 59002.9 25719.5 59000.8 25718.4 58998.6 25716.1 58993 25711.6 58871.2 25589.8 57288.8 25589.8 56169.8 26708.8 56169.8 28291.2 57288.8 29410.2 58871.2 29410.2 58993 29288.4 59000.4 29283.1 59007.3 29277.1 59010.3 29275.9 59013 29274 59021.7 29271.3 59030.1 29267.9 59034.2 29267.5 59036.5 29266.8 59039.7 29266.9 59046.8 29266.1 62671.3 29266.1 62677.7 29267.1 62684.3 29267.2 62692.3 29269.5 62695.5 29270 62697.3 29271 62700.4 29271.9 63328.6 29532.1 66169 29532.1 66915.9 29222.7 67487.5 28651.1 67796.9 27904.2 67796.9 27095.8 67487.5 26348.9 66915.9 25777.3 66169 25467.9 63328.6 25467.9"/></g></mask><mask id="lYMr6ej41toiUzr_0Ycy_clear-9" fill="#000" stroke="#000"><g><rect x="6092.3" y="1092.3" width="97815.4" height="52815.4" fill="#fff"/><path d="M 71403.5 27652.3 71403.5 27652.3 71403.5 28770.1 72367.2 28770.1 72564.6 28738.8 72754.7 28677 72932.9 28586.3 73094.6 28468.7 73235.9 28327.4 73353.5 28165.7 73444.2 27987.5 73506 27797.4 73529 27652.3 71403.5 27652.3"/></g></mask><mask id="lYMr6ej41toiUzr_0Ycy_clear-10" fill="#000" stroke="#000"><g><rect x="6092.3" y="1092.3" width="97815.4" height="52815.4" fill="#fff"/><path d="M 86403.5 27652.3 86403.5 27652.3 86403.5 28770.1 87367.2 28770.1 87564.6 28738.8 87754.7 28677 87932.9 28586.3 88094.6 28468.7 88235.9 28327.4 88353.5 28165.7 88444.2 27987.5 88506 27797.4 88529 27652.3 86403.5 27652.3"/></g></mask><mask id="lYMr6ej41toiUzr_0Ycy_clear-11" fill="#000" stroke="#000"><g><rect x="6092.3" y="1092.3" width="97815.4" height="52815.4" fill="#fff"/><path d="M 86403.5 12652.3 86403.5 12652.3 86403.5 13770.1 87367.2 13770.1 87564.6 13738.8 87754.7 13677 87932.9 13586.3 88094.6 13468.7 88235.9 13327.4 88353.5 13165.7 88444.2 12987.5 88506 12797.4 88529 12652.3 86403.5 12652.3"/></g></mask><mask id="lYMr6ej41toiUzr_0Ycy_clear-12" fill="#000" stroke="#000"><g><rect x="6092.3" y="1092.3" width="97815.4" height="52815.4" fill="#fff"/><path d="M 86403.5 42652.3 86403.5 42652.3 86403.5 43770.1 87367.2 43770.1 87564.6 43738.8 87754.7 43677 87932.9 43586.3 88094.6 43468.7 88235.9 43327.4 88353.5 43165.7 88444.2 42987.5 88506 42797.4 88529 42652.3 86403.5 42652.3"/></g></mask><mask id="lYMr6ej41toiUzr_0Ycy_clear-13" fill="#000" stroke="#000"><g><rect x="6092.3" y="1092.3" width="97815.4" height="52815.4" fill="#fff"/><path d="M 101403.5 27652.3 101403.5 27652.3 101403.5 28770.1 102367.2 28770.1 102564.6 28738.8 102754.7 28677 102932.9 28586.3 103094.6 28468.7 103235.9 28327.4 103353.5 28165.7 103444.2 27987.5 103506 27797.4 103529 27652.3 101403.5 27652.3"/></g></mask><mask id="lYMr6ej41toiUzr_0Ycy_clear-14" fill="#000" stroke="#000"><g><rect x="6092.3" y="1092.3" width="97815.4" height="52815.4" fill="#fff"/><path d="M 83973.4 42652.3 83973.4 42652.3 83996.4 42797.4 84058.2 42987.5 84148.9 43165.7 84266.5 43327.4 84407.8 43468.7 84569.5 43586.3 84747.7 43677 84937.8 43738.8 85135.2 43770.1 86098.9 43770.1 86098.9 42652.3 83973.4 42652.3"/></g></mask><mask id="lYMr6ej41toiUzr_0Ycy_clear-15" fill="#000" stroke="#000"><g><rect x="6092.3" y="1092.3" width="97815.4" height="52815.4" fill="#fff"/><path d="M 98973.4 27652.3 98973.4 27652.3 98996.4 27797.4 99058.2 27987.5 99148.9 28165.7 99266.5 28327.4 99407.8 28468.7 99569.5 28586.3 99747.7 28677 99937.8 28738.8 100135.2 28770.1 101098.9 28770.1 101098.9 27652.3 98973.4 27652.3"/></g></mask><mask id="lYMr6ej41toiUzr_0Ycy_clear-16" fill="#000" stroke="#000"><g><rect x="6092.3" y="1092.3" width="97815.4" height="52815.4" fill="#fff"/><path d="M 68973.4 27652.3 68973.4 27652.3 68996.4 27797.4 69058.2 27987.5 69148.9 28165.7 69266.5 28327.4 69407.8 28468.7 69569.5 28586.3 69747.7 28677 69937.8 28738.8 70135.2 28770.1 71098.9 28770.1 71098.9 27652.3 68973.4 27652.3"/></g></mask><mask id="lYMr6ej41toiUzr_0Ycy_clear-17" fill="#000" stroke="#000"><g><rect x="6092.3" y="1092.3" width="97815.4" height="52815.4" fill="#fff"/><path d="M 83973.4 27652.3 83973.4 27652.3 83996.4 27797.4 84058.2 27987.5 84148.9 28165.7 84266.5 28327.4 84407.8 28468.7 84569.5 28586.3 84747.7 28677 84937.8 28738.8 85135.2 28770.1 86098.9 28770.1 86098.9 27652.3 83973.4 27652.3"/></g></mask><mask id="lYMr6ej41toiUzr_0Ycy_clear-18" fill="#000" stroke="#000"><g><rect x="6092.3" y="1092.3" width="97815.4" height="52815.4" fill="#fff"/><path d="M 83973.4 12652.3 83973.4 12652.3 83996.4 12797.4 84058.2 12987.5 84148.9 13165.7 84266.5 13327.4 84407.8 13468.7 84569.5 13586.3 84747.7 13677 84937.8 13738.8 85135.2 13770.1 86098.9 13770.1 86098.9 12652.3 83973.4 12652.3"/></g></mask><mask id="lYMr6ej41toiUzr_0Ycy_clear-19" fill="#000" stroke="#000"><g><rect x="6092.3" y="1092.3" width="97815.4" height="52815.4" fill="#fff"/><path d="M 86403.5 41229.9 86403.5 41229.9 86403.5 42347.7 88529 42347.7 88506 42202.6 88444.2 42012.5 88353.5 41834.3 88235.9 41672.6 88094.6 41531.3 87932.9 41413.7 87754.7 41323 87564.6 41261.2 87367.2 41229.9 86403.5 41229.9"/></g></mask><mask id="lYMr6ej41toiUzr_0Ycy_clear-20" fill="#000" stroke="#000"><g><rect x="6092.3" y="1092.3" width="97815.4" height="52815.4" fill="#fff"/><path d="M 101403.5 26229.9 101403.5 26229.9 101403.5 27347.7 103529 27347.7 103506 27202.6 103444.2 27012.5 103353.5 26834.3 103235.9 26672.6 103094.6 26531.3 102932.9 26413.7 102754.7 26323 102564.6 26261.2 102367.2 26229.9 101403.5 26229.9"/></g></mask><mask id="lYMr6ej41toiUzr_0Ycy_clear-21" fill="#000" stroke="#000"><g><rect x="6092.3" y="1092.3" width="97815.4" height="52815.4" fill="#fff"/><path d="M 86403.5 26229.9 86403.5 26229.9 86403.5 27347.7 88529 27347.7 88506 27202.6 88444.2 27012.5 88353.5 26834.3 88235.9 26672.6 88094.6 26531.3 87932.9 26413.7 87754.7 26323 87564.6 26261.2 87367.2 26229.9 86403.5 26229.9"/></g></mask><mask id="lYMr6ej41toiUzr_0Ycy_clear-22" fill="#000" stroke="#000"><g><rect x="6092.3" y="1092.3" width="97815.4" height="52815.4" fill="#fff"/><path d="M 71403.5 26229.9 71403.5 26229.9 71403.5 27347.7 73529 27347.7 73506 27202.6 73444.2 27012.5 73353.5 26834.3 73235.9 26672.6 73094.6 26531.3 72932.9 26413.7 72754.7 26323 72564.6 26261.2 72367.2 26229.9 71403.5 26229.9"/></g></mask><mask id="lYMr6ej41toiUzr_0Ycy_clear-23" fill="#000" stroke="#000"><g><rect x="6092.3" y="1092.3" width="97815.4" height="52815.4" fill="#fff"/><path d="M 86403.5 11229.9 86403.5 11229.9 86403.5 12347.7 88529 12347.7 88506 12202.6 88444.2 12012.5 88353.5 11834.3 88235.9 11672.6 88094.6 11531.3 87932.9 11413.7 87754.7 11323 87564.6 11261.2 87367.2 11229.9 86403.5 11229.9"/></g></mask><mask id="lYMr6ej41toiUzr_0Ycy_clear-24" fill="#000" stroke="#000"><g><rect x="6092.3" y="1092.3" width="97815.4" height="52815.4" fill="#fff"/><path d="M 100135.2 26229.9 100135.2 26229.9 99937.8 26261.2 99747.7 26323 99569.5 26413.7 99407.8 26531.3 99266.5 26672.6 99148.9 26834.3 99058.2 27012.5 98996.4 27202.6 98973.4 27347.7 101098.9 27347.7 101098.9 26229.9 100135.2 26229.9"/></g></mask><mask id="lYMr6ej41toiUzr_0Ycy_clear-25" fill="#000" stroke="#000"><g><rect x="6092.3" y="1092.3" width="97815.4" height="52815.4" fill="#fff"/><path d="M 85135.2 26229.9 85135.2 26229.9 84937.8 26261.2 84747.7 26323 84569.5 26413.7 84407.8 26531.3 84266.5 26672.6 84148.9 26834.3 84058.2 27012.5 83996.4 27202.6 83973.4 27347.7 86098.9 27347.7 86098.9 26229.9 85135.2 26229.9"/></g></mask><mask id="lYMr6ej41toiUzr_0Ycy_clear-26" fill="#000" stroke="#000"><g><rect x="6092.3" y="1092.3" width="97815.4" height="52815.4" fill="#fff"/><path d="M 70135.2 26229.9 70135.2 26229.9 69937.8 26261.2 69747.7 26323 69569.5 26413.7 69407.8 26531.3 69266.5 26672.6 69148.9 26834.3 69058.2 27012.5 68996.4 27202.6 68973.4 27347.7 71098.9 27347.7 71098.9 26229.9 70135.2 26229.9"/></g></mask><mask id="lYMr6ej41toiUzr_0Ycy_clear-27" fill="#000" stroke="#000"><g><rect x="6092.3" y="1092.3" width="97815.4" height="52815.4" fill="#fff"/><path d="M 85135.2 41229.9 85135.2 41229.9 84937.8 41261.2 84747.7 41323 84569.5 41413.7 84407.8 41531.3 84266.5 41672.6 84148.9 41834.3 84058.2 42012.5 83996.4 42202.6 83973.4 42347.7 86098.9 42347.7 86098.9 41229.9 85135.2 41229.9"/></g></mask><mask id="lYMr6ej41toiUzr_0Ycy_clear-28" fill="#000" stroke="#000"><g><rect x="6092.3" y="1092.3" width="97815.4" height="52815.4" fill="#fff"/><path d="M 85135.2 11229.9 85135.2 11229.9 84937.8 11261.2 84747.7 11323 84569.5 11413.7 84407.8 11531.3 84266.5 11672.6 84148.9 11834.3 84058.2 12012.5 83996.4 12202.6 83973.4 12347.7 86098.9 12347.7 86098.9 11229.9 85135.2 11229.9"/></g></mask><mask id="lYMr6ej41toiUzr_0Ycy_clear-29" fill="#000" stroke="#000"><g><rect x="6092.3" y="1092.3" width="97815.4" height="52815.4" fill="#fff"/><path d="M 48072.3 49212.3 48072.3 49212.3 48072.3 50373.2 48229.3 50348.3 48427 50284.1 48612.3 50189.7 48780.5 50067.5 48927.5 49920.5 49049.7 49752.3 49144.1 49567 49208.3 49369.3 49233.2 49212.3 48072.3 49212.3"/></g></mask><mask id="lYMr6ej41toiUzr_0Ycy_clear-30" fill="#000" stroke="#000"><g><rect x="6092.3" y="1092.3" width="97815.4" height="52815.4" fill="#fff"/><path d="M 46606.8 49212.3 46606.8 49212.3 46631.7 49369.3 46695.9 49567 46790.3 49752.3 46912.5 49920.5 47059.5 50067.5 47227.7 50189.7 47413 50284.1 47610.7 50348.3 47767.7 50373.2 47767.7 49212.3 46606.8 49212.3"/></g></mask><mask id="lYMr6ej41toiUzr_0Ycy_clear-31" fill="#000" stroke="#000"><g><rect x="6092.3" y="1092.3" width="97815.4" height="52815.4" fill="#fff"/><path d="M 48072.3 48907.7 48072.3 48907.7 49233.2 48907.7 49208.3 48750.7 49144.1 48553 49049.7 48367.7 48927.5 48199.5 48780.5 48052.5 48612.3 47930.3 48427 47835.9 48229.3 47771.7 48072.3 47746.8 48072.3 48907.7"/></g></mask><mask id="lYMr6ej41toiUzr_0Ycy_clear-32" fill="#000" stroke="#000"><g><rect x="6092.3" y="1092.3" width="97815.4" height="52815.4" fill="#fff"/><path d="M 47610.7 47771.7 47610.7 47771.7 47413 47835.9 47227.7 47930.3 47059.5 48052.5 46912.5 48199.5 46790.3 48367.7 46695.9 48553 46631.7 48750.7 46606.8 48907.7 47767.7 48907.7 47767.7 47746.8 47610.7 47771.7"/></g></mask><mask id="lYMr6ej41toiUzr_0Ycy_clear-33" fill="#000" stroke="#000"><g><rect x="6092.3" y="1092.3" width="97815.4" height="52815.4" fill="#fff"/><path d="M 31800.7 47142.3 31800.7 47142.3 31800.7 47495 32515 48209.3 32867.7 48209.3 32867.7 47142.3 31800.7 47142.3"/></g></mask><mask id="lYMr6ej41toiUzr_0Ycy_clear-34" fill="#000" stroke="#000"><g><rect x="6092.3" y="1092.3" width="97815.4" height="52815.4" fill="#fff"/><path d="M 47919.9 49059.9 47919.9 49059.9 47919.9 49060.1 47920.1 49060.1 47920.1 49059.9 47919.9 49059.9"/></g></mask><mask id="lYMr6ej41toiUzr_0Ycy_clear-35" fill="#000" stroke="#000"><g><rect x="6092.3" y="1092.3" width="97815.4" height="52815.4" fill="#fff"/><path d="M 71251.1 27499.9 71251.1 27499.9 71251.1 27500.1 71251.3 27500.1 71251.3 27499.9 71251.1 27499.9"/></g></mask><mask id="lYMr6ej41toiUzr_0Ycy_clear-36" fill="#000" stroke="#000"><g><rect x="6092.3" y="1092.3" width="97815.4" height="52815.4" fill="#fff"/><path d="M 101251.1 27499.9 101251.1 27499.9 101251.1 27500.1 101251.3 27500.1 101251.3 27499.9 101251.1 27499.9"/></g></mask><mask id="lYMr6ej41toiUzr_0Ycy_clear-37" fill="#000" stroke="#000"><g><rect x="6092.3" y="1092.3" width="97815.4" height="52815.4" fill="#fff"/><path d="M 86251.1 27499.9 86251.1 27499.9 86251.1 27500.1 86251.3 27500.1 86251.3 27499.9 86251.1 27499.9"/></g></mask><mask id="lYMr6ej41toiUzr_0Ycy_clear-38" fill="#000" stroke="#000"><g><rect x="6092.3" y="1092.3" width="97815.4" height="52815.4" fill="#fff"/><path d="M 86251.1 42499.9 86251.1 42499.9 86251.1 42500.1 86251.3 42500.1 86251.3 42499.9 86251.1 42499.9"/></g></mask><mask id="lYMr6ej41toiUzr_0Ycy_clear-39" fill="#000" stroke="#000"><g><rect x="6092.3" y="1092.3" width="97815.4" height="52815.4" fill="#fff"/><path d="M 86251.1 12499.9 86251.1 12499.9 86251.1 12500.1 86251.3 12500.1 86251.3 12499.9 86251.1 12499.9"/></g></mask><polygon points="-894.07934,-370.33979 -370.33979,-894.07934 370.33979,-894.07934 894.07934,-370.33979 894.07934,370.33979 370.33979,894.07934 -370.33979,894.07934 -894.07934,370.33979" id="lYMr6ej41toiUzr_0Ycy_pad-11"/><polygon points="894.07934,370.33979 370.33979,894.07934 -370.33979,894.07934 -894.07934,370.33979 -894.07934,-370.33979 -370.33979,-894.07934 370.33979,-894.07934 894.07934,-370.33979" id="lYMr6ej41toiUzr_0Ycy_pad-12"/><circle cx="0" cy="0" r="1066.8" id="lYMr6ej41toiUzr_0Ycy_pad-13"/><polygon points="-399.79818,965.1982 -965.1982,399.79818 -965.1982,-399.79818 -399.79818,-965.1982 399.79818,-965.1982 965.1982,-399.79818 965.1982,399.79818 399.79818,965.1982" id="lYMr6ej41toiUzr_0Ycy_pad-14"/><circle cx="0" cy="0" r="965.2" id="lYMr6ej41toiUzr_0Ycy_pad-15"/><circle cx="0" cy="0" r="1008" id="lYMr6ej41toiUzr_0Ycy_pad-18"/></defs><g transform="translate(0,55000) scale(1,-1)" fill="currentColor" stroke="currentColor"><g mask="url(#lYMr6ej41toiUzr_0Ycy_clear-39)"><g mask="url(#lYMr6ej41toiUzr_0Ycy_clear-38)"><g mask="url(#lYMr6ej41toiUzr_0Ycy_clear-37)"><g mask="url(#lYMr6ej41toiUzr_0Ycy_clear-36)"><g mask="url(#lYMr6ej41toiUzr_0Ycy_clear-35)"><g mask="url(#lYMr6ej41toiUzr_0Ycy_clear-34)"><g mask="url(#lYMr6ej41toiUzr_0Ycy_clear-33)"><g mask="url(#lYMr6ej41toiUzr_0Ycy_clear-32)"><g mask="url(#lYMr6ej41toiUzr_0Ycy_clear-31)"><g mask="url(#lYMr6ej41toiUzr_0Ycy_clear-30)"><g mask="url(#lYMr6ej41toiUzr_0Ycy_clear-29)"><g mask="url(#lYMr6ej41toiUzr_0Ycy_clear-28)"><g mask="url(#lYMr6ej41toiUzr_0Ycy_clear-27)"><g mask="url(#lYMr6ej41toiUzr_0Ycy_clear-26)"><g mask="url(#lYMr6ej41toiUzr_0Ycy_clear-25)"><g mask="url(#lYMr6ej41toiUzr_0Ycy_clear-24)"><g mask="url(#lYMr6ej41toiUzr_0Ycy_clear-23)"><g mask="url(#lYMr6ej41toiUzr_0Ycy_clear-22)"><g mask="url(#lYMr6ej41toiUzr_0Ycy_clear-21)"><g mask="url(#lYMr6ej41toiUzr_0Ycy_clear-20)"><g mask="url(#lYMr6ej41toiUzr_0Ycy_clear-19)"><g mask="url(#lYMr6ej41toiUzr_0Ycy_clear-18)"><g mask="url(#lYMr6ej41toiUzr_0Ycy_clear-17)"><g mask="url(#lYMr6ej41toiUzr_0Ycy_clear-16)"><g mask="url(#lYMr6ej41toiUzr_0Ycy_clear-15)"><g mask="url(#lYMr6ej41toiUzr_0Ycy_clear-14)"><g mask="url(#lYMr6ej41toiUzr_0Ycy_clear-13)"><g mask="url(#lYMr6ej41toiUzr_0Ycy_clear-12)"><g mask="url(#lYMr6ej41toiUzr_0Ycy_clear-11)"><g mask="url(#lYMr6ej41toiUzr_0Ycy_clear-10)"><g mask="url(#lYMr6ej41toiUzr_0Ycy_clear-9)"><g mask="url(#lYMr6ej41toiUzr_0Ycy_clear-8)"><g mask="url(#lYMr6ej41toiUzr_0Ycy_clear-7)"><g mask="url(#lYMr6ej41toiUzr_0Ycy_clear-6)"><g mask="url(#lYMr6ej41toiUzr_0Ycy_clear-5)"><g mask="url(#lYMr6ej41toiUzr_0Ycy_clear-4)"><g mask="url(#lYMr6ej41toiUzr_0Ycy_clear-3)"><g mask="url(#lYMr6ej41toiUzr_0Ycy_clear-2)"><g mask="url(#lYMr6ej41toiUzr_0Ycy_clear-1)"><path d="M 40619.2 1093.4 40619.2 1093.4 40626.4 1093.6 40631.3 1095.4 40636.4 1096.2 40642.7 1099.6 40649.5 1102.1 40653.5 1105.3 40658.1 1107.8 40663.1 1113 40668.7 1117.4 40671.5 1121.8 40675.1 1125.6 40678.1 1132.1 40682 1138.1 40683.2 1143.2 40685.4 1147.9 40686.2 1155 40688 1162 40687.6 1167.2 40688.1 1172.3 40686.6 1179.4 40686.1 1186.5 40684 1191.3 40682.9 1196.4 40679.2 1202.5 40676.4 1209.1 40672 1214.7 40670.3 1217.5 40668.5 1219 40666 1222.2 40436.6 1451.6 40072.4 2082.3 39883.9 2785.8 39883.9 3514.2 40072.4 4217.7 40436.6 4848.4 40951.6 5363.4 41582.3 5727.6 42285.8 5916.1 43014.2 5916.1 43717.7 5727.6 44348.4 5363.4 44863.4 4848.4 45227.6 4217.7 45416.1 3514.2 45416.1 2785.8 45227.6 2082.3 44863.4 1451.6 44634 1222.2 44629.9 1216.4 44624.9 1211.2 44622.7 1206.5 44619.7 1202.3 44617.6 1195.4 44614.6 1188.9 44614 1183.7 44612.5 1178.7 44612.6 1171.6 44611.9 1164.5 44613 1159.4 44613.1 1154.2 44615.6 1147.4 44617.1 1140.4 44619.7 1135.9 44621.5 1131.1 44626 1125.5 44629.7 1119.3 44633.7 1115.9 44636.9 1111.9 44642.9 1108 44648.4 1103.3 44653.2 1101.4 44657.6 1098.6 44664.5 1096.8 44671.2 1094.1 44678.3 1093.3 44681.5 1092.5 44683.8 1092.7 44687.9 1092.3 97962.1 1092.3 97969.2 1093.4 97976.4 1093.6 97981.3 1095.4 97986.4 1096.2 97992.7 1099.6 97999.5 1102.1 98003.5 1105.3 98008.1 1107.8 98013.1 1113 98018.7 1117.4 98021.5 1121.8 98025.1 1125.6 98028.1 1132.1 98032 1138.1 98033.2 1143.2 98035.4 1147.9 98036.2 1155 98038 1162 98037.6 1167.2 98038.1 1172.3 98036.6 1179.4 98036.1 1186.5 98034 1191.3 98032.9 1196.4 98029.2 1202.5 98026.4 1209.1 98022 1214.7 98020.3 1217.5 98018.5 1219 98016 1222.2 97786.6 1451.6 97422.4 2082.3 97233.9 2785.8 97233.9 3514.2 97422.4 4217.7 97786.6 4848.4 98301.6 5363.4 98932.3 5727.6 99635.8 5916.1 100364.2 5916.1 101067.7 5727.6 101698.4 5363.4 102213.4 4848.4 102577.6 4217.7 102766.1 3514.2 102766.1 2785.8 102577.6 2082.3 102213.4 1451.6 101984 1222.2 101979.9 1216.4 101974.9 1211.2 101972.7 1206.5 101969.7 1202.3 101967.6 1195.4 101964.6 1188.9 101964 1183.7 101962.5 1178.7 101962.6 1171.6 101961.9 1164.5 101963 1159.4 101963.1 1154.2 101965.6 1147.4 101967.1 1140.4 101969.7 1135.9 101971.5 1131.1 101976 1125.5 101979.7 1119.3 101983.7 1115.9 101986.9 1111.9 101992.9 1108 101998.4 1103.3 102003.2 1101.4 102007.6 1098.6 102014.5 1096.8 102021.2 1094.1 102028.3 1093.3 102031.5 1092.5 102033.8 1092.7 102037.9 1092.3 103831.6 1092.3 103833.6 1092.6 103835.5 1092.4 103845.7 1094.6 103855.9 1096.2 103857.6 1097.2 103859.6 1097.6 103868.5 1102.9 103877.6 1107.8 103879 1109.2 103880.7 1110.2 103887.4 1118.1 103894.6 1125.6 103895.4 1127.4 103896.7 1128.9 103900.6 1138.5 103904.9 1147.9 103905.1 1149.9 103905.9 1151.7 103907.7 1168.4 103907.7 53831.6 103907.4 53833.6 103907.6 53835.5 103905.4 53845.7 103903.8 53855.9 103902.8 53857.6 103902.4 53859.6 103897.1 53868.5 103892.2 53877.6 103890.8 53879 103889.8 53880.7 103881.9 53887.4 103874.4 53894.6 103872.6 53895.4 103871.1 53896.7 103861.5 53900.6 103852.1 53904.9 103850.1 53905.1 103848.3 53905.9 103831.6 53907.7 102037.9 53907.7 102030.8 53906.6 102023.6 53906.4 102018.7 53904.6 102013.6 53903.8 102007.3 53900.4 102000.5 53897.9 101996.5 53894.7 101991.9 53892.2 101986.9 53887 101981.3 53882.6 101978.5 53878.2 101974.9 53874.4 101971.9 53867.9 101968 53861.9 101966.8 53856.8 101964.6 53852.1 101963.8 53845 101962 53838 101962.4 53832.8 101961.9 53827.7 101963.4 53820.6 101963.9 53813.5 101966 53808.7 101967.1 53803.6 101970.8 53797.5 101973.6 53790.9 101978 53785.3 101979.7 53782.5 101981.5 53781 101984 53777.8 102213.4 53548.4 102577.6 52917.7 102766.1 52214.2 102766.1 51485.8 102577.6 50782.3 102213.4 50151.6 101698.4 49636.6 101067.7 49272.4 100364.2 49083.9 99635.8 49083.9 98932.3 49272.4 98301.6 49636.6 97786.6 50151.6 97422.4 50782.3 97233.9 51485.8 97233.9 52214.2 97422.4 52917.7 97786.6 53548.4 98016 53777.8 98020.1 53783.6 98025.1 53788.8 98027.3 53793.5 98030.3 53797.7 98032.4 53804.6 98035.4 53811.1 98036 53816.3 98037.5 53821.3 98037.4 53828.4 98038.1 53835.5 98037 53840.6 98036.9 53845.8 98034.4 53852.6 98032.9 53859.6 98030.3 53864.1 98028.5 53868.9 98024 53874.5 98020.3 53880.7 98016.3 53884.1 98013.1 53888.1 98007.1 53892 98001.6 53896.7 97996.8 53898.6 97992.4 53901.4 97985.5 53903.2 97978.8 53905.9 97971.7 53906.7 97968.5 53907.5 97966.2 53907.3 97962.1 53907.7 44687.9 53907.7 44680.8 53906.6 44673.6 53906.4 44668.7 53904.6 44663.6 53903.8 44657.3 53900.4 44650.5 53897.9 44646.5 53894.7 44641.9 53892.2 44636.9 53887 44631.3 53882.6 44628.5 53878.2 44624.9 53874.4 44621.9 53867.9 44618 53861.9 44616.8 53856.8 44614.6 53852.1 44613.8 53845 44612 53838 44612.4 53832.8 44611.9 53827.7 44613.4 53820.6 44613.9 53813.5 44616 53808.7 44617.1 53803.6 44620.8 53797.5 44623.6 53790.9 44628 53785.3 44629.7 53782.5 44631.5 53781 44634 53777.8 44863.4 53548.4 45227.6 52917.7 45416.1 52214.2 45416.1 51485.8 45227.6 50782.3 44863.4 50151.6 44348.4 49636.6 43717.7 49272.4 43014.2 49083.9 42285.8 49083.9 41582.3 49272.4 40951.6 49636.6 40436.6 50151.6 40072.4 50782.3 39883.9 51485.8 39883.9 52214.2 40072.4 52917.7 40436.6 53548.4 40666 53777.8 40670.1 53783.6 40675.1 53788.8 40677.3 53793.5 40680.3 53797.7 40682.4 53804.6 40685.4 53811.1 40686 53816.3 40687.5 53821.3 40687.4 53828.4 40688.1 53835.5 40687 53840.6 40686.9 53845.8 40684.4 53852.6 40682.9 53859.6 40680.3 53864.1 40678.5 53868.9 40674 53874.5 40670.3 53880.7 40666.3 53884.1 40663.1 53888.1 40657.1 53892 40651.6 53896.7 40646.8 53898.6 40642.4 53901.4 40635.5 53903.2 40628.8 53905.9 40621.7 53906.7 40618.5 53907.5 40616.2 53907.3 40612.1 53907.7 6168.4 53907.7 6166.4 53907.4 6164.5 53907.6 6154.3 53905.4 6144.1 53903.8 6142.4 53902.8 6140.4 53902.4 6131.5 53897.1 6122.4 53892.2 6121 53890.8 6119.3 53889.8 6112.6 53881.9 6105.4 53874.4 6104.6 53872.6 6103.3 53871.1 6099.4 53861.5 6095.1 53852.1 6094.9 53850.1 6094.1 53848.3 6092.3 53831.6 6092.3 44773.7 6093.4 44766.6 6093.6 44759.4 6095.4 44754.5 6096.2 44749.4 6099.6 44743.1 6102.1 44736.3 6105.3 44732.3 6107.8 44727.6 6113 44722.7 6117.4 44717.1 6121.8 44714.3 6125.6 44710.7 6132.1 44707.7 6138.1 44703.8 6143.2 44702.5 6147.9 44700.3 6155 44699.6 6162 44697.8 6167.2 44698.2 6172.3 44697.6 6179.4 44699.2 6186.5 44699.7 6191.3 44701.8 6196.4 44702.9 6202.5 44706.5 6209.1 44709.4 6214.7 44713.8 6217.5 44715.5 6219 44717.3 6222.2 44719.8 6839.6 45337.2 7488.7 45606.1 11122.6 45606.1 11124.6 45606.4 11126.5 45606.2 11136.7 45608.4 11146.9 45610 11148.6 45611 11150.6 45611.4 11159.5 45616.7 11168.6 45621.6 11170 45623 11171.7 45624 11178.4 45631.9 11185.6 45639.4 11186.4 45641.2 11187.7 45642.7 11191.6 45652.3 11195.9 45661.7 11196.1 45663.7 11196.9 45665.5 11198.7 45682.2 11198.7 47200.7 12359.3 48361.3 12592.5 48361.3 12599.5 48362.4 12606.7 48362.6 12611.6 48364.4 12616.7 48365.2 12623.1 48368.6 12629.8 48371.1 12633.9 48374.3 12638.5 48376.8 12643.4 48382 12649 48386.4 12651.8 48390.8 12655.4 48394.6 12658.4 48401.1 12662.3 48407.1 12663.6 48412.2 12665.8 48416.9 12666.6 48424 12668.3 48431 12667.9 48436.2 12668.5 48441.3 12667 48448.4 12666.4 48455.5 12664.4 48460.3 12663.3 48465.4 12659.6 48471.5 12656.8 48478.1 12652.3 48483.7 12650.7 48486.5 12648.9 48488 12646.3 48491.2 12284.1 48853.5 11975.9 49597.4 11975.9 50402.6 12284.1 51146.5 12853.5 51715.9 13597.4 52024.1 14402.6 52024.1 15011.5 51771.9 15017.9 51770.4 15024 51767.9 15032.2 51767 15035.4 51766.3 15037.4 51766.4 15040.6 51766.1 17351.3 51766.1 18000.4 51497.2 20997.2 48500.4 21266.1 47851.3 21266.1 45148.7 20997.2 44499.6 19693.6 43196 19689.5 43190.2 19684.5 43185 19682.3 43180.3 19679.3 43176.1 19677.2 43169.2 19674.1 43162.7 19673.6 43157.5 19672 43152.5 19672.2 43145.4 19671.4 43138.3 19672.5 43133.2 19672.7 43128 19675.1 43121.2 19676.7 43114.2 19679.3 43109.7 19681.1 43104.9 19685.6 43099.3 19689.3 43093.1 19693.2 43089.7 19696.5 43085.7 19702.5 43081.8 19708 43077.1 19712.8 43075.2 19717.2 43072.4 19724.1 43070.6 19730.8 43067.9 19737.9 43067.1 19741 43066.3 19743.4 43066.5 19747.5 43066.1 20536.9 43066.1 20545.9 43067.5 20555 43068.3 20558 43069.5 20561.2 43070 20569.3 43074.3 20577.7 43077.9 20580.9 43080.5 20582.9 43081.6 20585.2 43083.9 20590.8 43088.4 22942.1 45439.7 23449.6 45947.2 24098.7 46216.1 26338.7 46216.1 26345.1 46217.1 26351.7 46217.2 26359.7 46219.5 26362.9 46220 26364.7 46221 26367.8 46221.9 27097.4 46524.1 27902.6 46524.1 28646.5 46215.9 29215.9 45646.5 29524.1 44902.6 29524.1 44097.4 29215.9 43353.5 28646.5 42784.1 27902.6 42475.9 27097.4 42475.9 26609.2 42678.1 26602.8 42679.6 26596.8 42682.1 26588.5 42683 26585.3 42683.7 26583.3 42683.6 26580.1 42683.9 25213.1 42683.9 25204.1 42682.5 25195 42681.7 25192 42680.5 25188.8 42680 25180.7 42675.7 25172.3 42672.1 25169.1 42669.5 25167.1 42668.4 25164.8 42666.1 25159.2 42661.6 22893.6 40396 22889.5 40390.2 22884.5 40385 22882.3 40380.3 22879.3 40376.1 22877.2 40369.2 22874.1 40362.7 22873.6 40357.5 22872 40352.5 22872.2 40345.4 22871.4 40338.3 22872.5 40333.2 22872.7 40328 22875.1 40321.2 22876.7 40314.2 22879.3 40309.8 22881.1 40304.9 22885.6 40299.3 22889.3 40293.1 22893.2 40289.7 22896.5 40285.7 22902.5 40281.8 22908 40277.1 22912.8 40275.2 22917.2 40272.4 22924.1 40270.6 22930.8 40267.9 22937.9 40267.1 22941 40266.3 22943.4 40266.5 22947.5 40266.1 26459.4 40266.1 26465.8 40267.1 26472.4 40267.2 26480.4 40269.5 26483.6 40270 26485.4 40271 26488.5 40271.9 27097.4 40524.1 27902.6 40524.1 28646.5 40215.9 29215.9 39646.5 29524.1 38902.6 29524.1 38097.4 29215.9 37353.5 28646.5 36784.1 27902.6 36475.9 27097.4 36475.9 26488.5 36728.1 26482.1 36729.6 26476 36732.1 26467.8 36733 26464.6 36733.7 26462.6 36733.6 26459.4 36733.9 17015.4 36733.9 17013.4 36733.6 17011.5 36733.8 17001.3 36731.6 16991.1 36730 16989.4 36729 16987.4 36728.6 16978.5 36723.3 16969.4 36718.4 16968 36717 16966.3 36716 16959.6 36708.1 16952.4 36700.6 16951.6 36698.8 16950.3 36697.3 16946.4 36687.7 16942.1 36678.3 16941.9 36676.3 16941.1 36674.5 16939.3 36657.8 16939.3 36372.3 15796.2 36372.3 15794.2 36372 15792.3 36372.2 15782.1 36370 15771.9 36368.3 15770.2 36367.4 15768.2 36367 15759.3 36361.7 15750.2 36356.8 15748.8 36355.4 15747.1 36354.4 15740.4 36346.5 15733.3 36339 15732.4 36337.2 15731.1 36335.7 15727.3 36326.1 15722.9 36316.7 15722.7 36314.7 15721.9 36312.9 15720.1 36296.2 15720.1 36143.8 15720.4 36141.8 15720.2 36139.9 15722.4 36129.7 15724.1 36119.5 15725 36117.8 15725.4 36115.8 15730.7 36106.9 15735.6 36097.8 15737 36096.4 15738 36094.7 15745.9 36088 15753.4 36080.9 15755.2 36080 15756.7 36078.7 15766.3 36074.8 15775.7 36070.5 15777.7 36070.3 15779.5 36069.5 15796.2 36067.7 16939.3 36067.7 16939.3 35842.2 16939.6 35840.2 16939.4 35838.3 16941.6 35828.1 16943.2 35817.9 16944.2 35816.2 16944.6 35814.2 16949.9 35805.3 16954.8 35796.2 16956.2 35794.8 16957.2 35793.1 16965.1 35786.4 16972.6 35779.2 16974.4 35778.4 16975.9 35777.1 16985.5 35773.2 16994.9 35768.9 16996.9 35768.7 16998.7 35767.9 17015.4 35766.1 17459.4 35766.1 17465.8 35767.1 17472.4 35767.2 17480.4 35769.5 17483.6 35770 17485.4 35771 17488.5 35771.9 18097.4 36024.1 18902.6 36024.1 19646.5 35715.9 20215.9 35146.5 20524.1 34402.6 20524.1 33597.4 20223.3 32871.3 20222.3 32866.9 20220.3 32862.7 20219.5 32855 20217.7 32847.4 20218.1 32842.8 20217.6 32838.3 20219.3 32830.6 20220 32822.9 20221.9 32818.7 20222.9 32814.2 20226.9 32807.5 20230 32800.4 20233.1 32797 20235.5 32793.1 20241.4 32788 20246.7 32782.3 20250.7 32780.1 20254.2 32777.1 20261.4 32774.2 20268.2 32770.5 20272.7 32769.6 20277 32767.9 20290.6 32766.4 20292.4 32766.1 20292.9 32766.2 20293.7 32766.1 26459.4 32766.1 26465.8 32767.1 26472.4 32767.2 26480.4 32769.5 26483.6 32770 26485.4 32771 26488.5 32771.9 27097.4 33024.1 27902.6 33024.1 28646.5 32715.9 29215.9 32146.5 29524.1 31402.6 29524.1 30597.4 29430.4 30371.3 29429.4 30366.9 29427.5 30362.7 29426.6 30355 29424.8 30347.4 29425.3 30342.8 29424.7 30338.3 29426.4 30330.6 29427.1 30322.9 29429 30318.7 29430 30314.2 29434 30307.5 29437.1 30300.4 29440.2 30297 29442.6 30293.1 29448.5 30288 29453.8 30282.3 29457.8 30280.1 29461.3 30277.1 29468.5 30274.2 29475.3 30270.5 29479.8 30269.6 29484.1 30267.9 29497.7 30266.4 29499.5 30266.1 29500 30266.2 29500.8 30266.1 36236.9 30266.1 36245.9 30267.5 36255 30268.3 36258 30269.5 36261.2 30270 36269.3 30274.3 36277.7 30277.9 36280.9 30280.5 36282.9 30281.6 36285.2 30283.9 36290.8 30288.4 40211.6 34209.2 40216.9 34216.6 40222.9 34223.6 40224.1 34226.6 40226 34229.2 40228.7 34237.9 40232.1 34246.4 40232.5 34250.5 40233.2 34252.7 40233.1 34255.9 40233.9 34263.1 40233.9 36959.4 40232.9 36965.8 40232.8 36972.4 40230.5 36980.4 40230 36983.6 40229 36985.4 40228.1 36988.5 39975.9 37597.4 39975.9 38402.6 40284.1 39146.5 40853.5 39715.9 41597.4 40024.1 42402.6 40024.1 43146.5 39715.9 43715.9 39146.5 44024.1 38402.6 44024.1 37597.4 43771.9 36988.5 43770.4 36982.1 43767.9 36976 43767 36967.8 43766.3 36964.6 43766.4 36962.6 43766.1 36959.4 43766.1 33148.7 43497.2 32499.6 38000.4 27002.8 37351.3 26733.9 8648.7 26733.9 7999.6 27002.8 7492.1 27510.3 6222.2 28780.2 6216.4 28784.3 6211.2 28789.3 6209.1 28790.2 6208.6 28790.7 6206.2 28791.7 6202.3 28794.5 6195.4 28796.6 6188.9 28799.7 6183.7 28800.2 6178.7 28801.8 6171.6 28801.6 6164.5 28802.4 6159.4 28801.3 6154.2 28801.1 6147.4 28798.7 6140.4 28797.1 6135.9 28794.5 6131.1 28792.7 6125.5 28788.2 6119.3 28784.5 6115.9 28780.6 6111.9 28777.3 6108 28771.3 6106.6 28769.7 6105.4 28768.5 6105.3 28768.2 6103.3 28765.8 6101.4 28761 6098.6 28756.6 6096.9 28750.1 6095.1 28746.1 6095 28745.1 6094.1 28743 6093.3 28735.9 6092.5 28732.8 6092.7 28730.4 6092.3 28726.3 6092.3 22368.4 6092.6 22366.4 6092.4 22364.5 6094.6 22354.3 6096.2 22344.1 6097.2 22342.4 6097.6 22340.4 6102.9 22331.5 6107.8 22322.4 6109.2 22321 6110.2 22319.3 6118.1 22312.6 6125.6 22305.4 6127.4 22304.6 6128.9 22303.3 6138.5 22299.4 6147.9 22295.1 6149.9 22294.9 6151.7 22294.1 6168.4 22292.3 35368.7 22292.3 35371.4 22292.7 35601.3 22292.3 35601.4 22292.3 35818.3 22292.3 36019 22208.7 36019.1 22208.7 36219.7 22125.6 36373.4 21971.3 36373.5 21971.3 36373.5 21971.2 36526.7 21818 36609.6 21616.9 36609.6 21616.8 36609.6 21616.7 36692.7 21416.3 36692.3 21198.5 36692.3 21198.4 36692.3 21198.3 36692.3 20972.9 36692 20971.8 36692.2 20969.9 36691.8 20966.7 36654.5 1168.5 36654.8 1166.5 36654.6 1164.5 36656.8 1154.4 36658.4 1144.3 36659.4 1142.4 36659.8 1140.4 36665.1 1131.6 36669.9 1122.5 36671.4 1121.1 36672.4 1119.3 36680.2 1112.6 36687.7 1105.5 36689.5 1104.7 36691.1 1103.3 36700.7 1099.5 36710 1095.1 36712 1094.9 36713.9 1094.1 36730.6 1092.3 40612.1 1092.3 40619.2 1093.4"/></g></g></g></g></g></g></g></g></g></g></g></g></g></g></g></g></g></g></g></g></g></g></g></g></g></g></g></g></g></g></g></g></g></g></g></g></g></g></g><path d="M 72267.2 27500 70235.2 27500 M 65764.8 27500 63732.8 27500 M 85235.2 42500 87267.2 42500 M 80764.8 42500 78732.8 42500 M 85235.2 27500 87267.2 27500 M 80764.8 27500 78732.8 27500 M 85235.2 12500 87267.2 12500 M 80764.8 12500 78732.8 12500 M 100235.2 27500 102267.2 27500 M 95764.8 27500 93732.8 27500" fill="none" stroke-width="2032"/><use xlink:href="#lYMr6ej41toiUzr_0Ycy_pad-11" x="58080" y="43990"/><use xlink:href="#lYMr6ej41toiUzr_0Ycy_pad-11" x="47920" y="43990"/><use xlink:href="#lYMr6ej41toiUzr_0Ycy_pad-12" x="47920" y="38410"/><use xlink:href="#lYMr6ej41toiUzr_0Ycy_pad-12" x="58080" y="38410"/><use xlink:href="#lYMr6ej41toiUzr_0Ycy_pad-11" x="58080" y="27500"/><use xlink:href="#lYMr6ej41toiUzr_0Ycy_pad-11" x="47920" y="27500"/><use xlink:href="#lYMr6ej41toiUzr_0Ycy_pad-11" x="58080" y="32990"/><use xlink:href="#lYMr6ej41toiUzr_0Ycy_pad-11" x="47920" y="32990"/><use xlink:href="#lYMr6ej41toiUzr_0Ycy_pad-11" x="58080" y="22320"/><use xlink:href="#lYMr6ej41toiUzr_0Ycy_pad-11" x="47920" y="22320"/><use xlink:href="#lYMr6ej41toiUzr_0Ycy_pad-11" x="58080" y="12120"/><use xlink:href="#lYMr6ej41toiUzr_0Ycy_pad-11" x="47920" y="12120"/><use xlink:href="#lYMr6ej41toiUzr_0Ycy_pad-11" x="58080" y="17240"/><use xlink:href="#lYMr6ej41toiUzr_0Ycy_pad-11" x="47920" y="17240"/><use xlink:href="#lYMr6ej41toiUzr_0Ycy_pad-13" x="58080" y="49060"/><use xlink:href="#lYMr6ej41toiUzr_0Ycy_pad-13" x="47920" y="49060"/><use xlink:href="#lYMr6ej41toiUzr_0Ycy_pad-14" x="33020" y="36830"/><use xlink:href="#lYMr6ej41toiUzr_0Ycy_pad-14" x="35560" y="36830"/><use xlink:href="#lYMr6ej41toiUzr_0Ycy_pad-14" x="33020" y="39370"/><use xlink:href="#lYMr6ej41toiUzr_0Ycy_pad-14" x="35560" y="39370"/><use xlink:href="#lYMr6ej41toiUzr_0Ycy_pad-14" x="33020" y="41910"/><use xlink:href="#lYMr6ej41toiUzr_0Ycy_pad-14" x="35560" y="41910"/><use xlink:href="#lYMr6ej41toiUzr_0Ycy_pad-14" x="33020" y="44450"/><use xlink:href="#lYMr6ej41toiUzr_0Ycy_pad-14" x="35560" y="44450"/><use xlink:href="#lYMr6ej41toiUzr_0Ycy_pad-14" x="33020" y="46990"/><use xlink:href="#lYMr6ej41toiUzr_0Ycy_pad-14" x="35560" y="46990"/><use xlink:href="#lYMr6ej41toiUzr_0Ycy_pad-15" x="13180" y="36220"/><use xlink:href="#lYMr6ej41toiUzr_0Ycy_pad-14" x="15720" y="36220"/><use xlink:href="#lYMr6ej41toiUzr_0Ycy_pad-14" x="13180" y="38760"/><use xlink:href="#lYMr6ej41toiUzr_0Ycy_pad-14" x="15720" y="38760"/><use xlink:href="#lYMr6ej41toiUzr_0Ycy_pad-14" x="13180" y="41300"/><use xlink:href="#lYMr6ej41toiUzr_0Ycy_pad-14" x="15720" y="41300"/><use xlink:href="#lYMr6ej41toiUzr_0Ycy_pad-14" x="13180" y="43840"/><use xlink:href="#lYMr6ej41toiUzr_0Ycy_pad-14" x="15720" y="43840"/><use xlink:href="#lYMr6ej41toiUzr_0Ycy_pad-14" x="13180" y="46380"/><use xlink:href="#lYMr6ej41toiUzr_0Ycy_pad-14" x="15720" y="46380"/><path d="M 58080 43990 58080 49060" fill="none" stroke-width="1270"/><path d="M 58080 49060 58080 38410 M 58080 27500 64748.8 27500 M 74700 32990 79748.8 38038.8 M 74700 32990 58080 32990 M 79748.8 38038.8 79748.8 42500 M 79748.8 27500 79748.8 25500 76568.8 22320 58080 22320 M 79368.8 12120 79748.8 12500 M 79368.8 12120 58080 12120 M 58080 17240 88991.2 17240 M 94748.8 23219 94748.8 27500 M 94748.8 23219 94251.2 22500 88991.2 17240" fill="none" stroke-width="1500"/><use xlink:href="#lYMr6ej41toiUzr_0Ycy_pad-18" x="27500" y="48000"/><use xlink:href="#lYMr6ej41toiUzr_0Ycy_pad-18" x="22000" y="35000"/><path d="M 45420 46490 47920 43990 M 45420 46490 42010 46490 42000 46500" fill="none" stroke-width="1500"/><use xlink:href="#lYMr6ej41toiUzr_0Ycy_pad-18" x="42000" y="46500"/><path d="M 13180 36220 13180 34820 14000 34000" fill="none" stroke-width="1500"/><use xlink:href="#lYMr6ej41toiUzr_0Ycy_pad-18" x="18500" y="34000"/><path d="M 18500 34000 14000 34000" fill="none" stroke-width="1500"/><path d="M 15980 38500 15720 38760" fill="none" stroke-width="1270"/><use xlink:href="#lYMr6ej41toiUzr_0Ycy_pad-18" x="27500" y="38500"/><path d="M 27500 38500 15980 38500 M 15720 41300 21300 41300 24450 44450" fill="none" stroke-width="1500"/><use xlink:href="#lYMr6ej41toiUzr_0Ycy_pad-18" x="27500" y="44500"/><path d="M 27500 44500 27450 44450" fill="none" stroke-width="1270"/><path d="M 27450 44450 24450 44450" fill="none" stroke-width="1500"/><use xlink:href="#lYMr6ej41toiUzr_0Ycy_pad-18" x="14000" y="50000"/><path d="M 14000 50000 17000 50000 19500 47500 19500 45500 17840 43840 15720 43840 M 13180 43840 7840 43840 7000 43000 7000 30500 9000 28500 37000 28500" fill="none" stroke-width="1500"/><use xlink:href="#lYMr6ej41toiUzr_0Ycy_pad-18" x="42000" y="38000"/><path d="M 42000 38000 42000 33500 37000 28500" fill="none" stroke-width="1500"/><use xlink:href="#lYMr6ej41toiUzr_0Ycy_pad-18" x="9500" y="41500"/><path d="M 9700 41300 13180 41300 M 9700 41300 9500 41500" fill="none" stroke-width="1270"/><path d="M 10260 38760 13180 38760 M 9500 38000 9500 32000 10500 31000 M 9500 38000 10260 38760 M 10500 31000 27500 31000" fill="none" stroke-width="1500"/><use xlink:href="#lYMr6ej41toiUzr_0Ycy_pad-18" x="27500" y="31000"/><path d="M 47920 17240 47920 12120 M 47920 17240 47920 22320 47920 27500 47920 32990 47920 38410 M 47920 39080 44500 42500" fill="none" stroke-width="1500"/><path d="M 47920 39080 47920 38410" fill="none" stroke-width="1270"/><use xlink:href="#lYMr6ej41toiUzr_0Ycy_pad-18" x="42000" y="42500"/><path d="M 42000 42500 44500 42500" fill="none" stroke-width="1500"/><path d="M 5000 21200 35600 21200 35560 0 105000 0 105000 55000 5000 55000 5000 21200 M 44400 51792.7 44392.5 51678.4 44377.6 51564.8 44355.2 51452.4 44325.5 51341.7 44288.7 51233.2 44244.9 51127.4 44194.2 51024.6 44136.9 50925.4 44073.2 50830.1 44003.5 50739.2 43927.9 50653.1 43846.9 50572.1 43760.8 50496.5 43669.9 50426.8 43574.6 50363.1 43475.4 50305.8 43372.6 50255.1 43266.8 50211.3 43158.3 50174.5 43047.6 50144.8 42935.2 50122.5 42821.6 50107.5 42707.3 50100 42592.7 50100 42478.4 50107.5 42364.8 50122.5 42252.4 50144.8 42141.7 50174.5 42033.2 50211.3 41927.4 50255.1 41824.6 50305.8 41725.4 50363.1 41630.1 50426.8 41539.2 50496.5 41453.1 50572.1 41372.1 50653.1 41296.5 50739.2 41226.8 50830.1 41163.1 50925.4 41105.8 51024.6 41055.1 51127.4 41011.3 51233.2 40974.5 51341.7 40944.8 51452.4 40922.5 51564.8 40907.5 51678.4 40900 51792.7 40900 51907.3 40907.5 52021.6 40922.5 52135.2 40944.8 52247.6 40974.5 52358.3 41011.3 52466.8 41055.1 52572.6 41105.8 52675.4 41163.1 52774.6 41226.8 52869.9 41296.5 52960.8 41372.1 53046.9 41453.1 53127.9 41539.2 53203.5 41630.1 53273.2 41725.4 53336.9 41824.6 53394.2 41927.4 53444.9 42033.2 53488.7 42141.7 53525.5 42252.4 53555.2 42364.8 53577.6 42478.4 53592.5 42592.7 53600 42707.3 53600 42821.6 53592.5 42935.2 53577.6 43047.6 53555.2 43158.3 53525.5 43266.8 53488.7 43372.6 53444.9 43475.4 53394.2 43574.6 53336.9 43669.9 53273.2 43760.8 53203.5 43846.9 53127.9 43927.9 53046.9 44003.5 52960.8 44073.2 52869.9 44136.9 52774.6 44194.2 52675.4 44244.9 52572.6 44288.7 52466.8 44325.5 52358.3 44355.2 52247.6 44377.6 52135.2 44392.5 52021.6 44400 51907.3 44400 51792.7 M 44400 3092.7 44392.5 2978.4 44377.6 2864.8 44355.2 2752.4 44325.5 2641.7 44288.7 2533.2 44244.9 2427.4 44194.2 2324.6 44136.9 2225.4 44073.2 2130.1 44003.5 2039.2 43927.9 1953.1 43846.9 1872.1 43760.8 1796.5 43669.9 1726.8 43574.6 1663.1 43475.4 1605.8 43372.6 1555.1 43266.8 1511.3 43158.3 1474.5 43047.6 1444.8 42935.2 1422.5 42821.6 1407.5 42707.3 1400 42592.7 1400 42478.4 1407.5 42364.8 1422.5 42252.4 1444.8 42141.7 1474.5 42033.2 1511.3 41927.4 1555.1 41824.6 1605.8 41725.4 1663.1 41630.1 1726.8 41539.2 1796.5 41453.1 1872.1 41372.1 1953.1 41296.5 2039.2 41226.8 2130.1 41163.1 2225.4 41105.8 2324.6 41055.1 2427.4 41011.3 2533.2 40974.5 2641.7 40944.8 2752.4 40922.5 2864.8 40907.5 2978.4 40900 3092.7 40900 3207.3 40907.5 3321.6 40922.5 3435.2 40944.8 3547.6 40974.5 3658.3 41011.3 3766.8 41055.1 3872.6 41105.8 3975.4 41163.1 4074.6 41226.8 4169.9 41296.5 4260.8 41372.1 4346.9 41453.1 4427.9 41539.2 4503.5 41630.1 4573.2 41725.4 4636.9 41824.6 4694.2 41927.4 4744.9 42033.2 4788.7 42141.7 4825.5 42252.4 4855.2 42364.8 4877.6 42478.4 4892.5 42592.7 4900 42707.3 4900 42821.6 4892.5 42935.2 4877.6 43047.6 4855.2 43158.3 4825.5 43266.8 4788.7 43372.6 4744.9 43475.4 4694.2 43574.6 4636.9 43669.9 4573.2 43760.8 4503.5 43846.9 4427.9 43927.9 4346.9 44003.5 4260.8 44073.2 4169.9 44136.9 4074.6 44194.2 3975.4 44244.9 3872.6 44288.7 3766.8 44325.5 3658.3 44355.2 3547.6 44377.6 3435.2 44392.5 3321.6 44400 3207.3 44400 3092.7 M 101750 3092.7 101742.5 2978.4 101727.6 2864.8 101705.2 2752.4 101675.5 2641.7 101638.7 2533.2 101594.9 2427.4 101544.2 2324.6 101486.9 2225.4 101423.2 2130.1 101353.5 2039.2 101277.9 1953.1 101196.9 1872.1 101110.8 1796.5 101019.9 1726.8 100924.6 1663.1 100825.4 1605.8 100722.6 1555.1 100616.8 1511.3 100508.3 1474.5 100397.6 1444.8 100285.2 1422.5 100171.6 1407.5 100057.3 1400 99942.7 1400 99828.4 1407.5 99714.8 1422.5 99602.4 1444.8 99491.7 1474.5 99383.2 1511.3 99277.4 1555.1 99174.6 1605.8 99075.4 1663.1 98980.1 1726.8 98889.2 1796.5 98803.1 1872.1 98722.1 1953.1 98646.5 2039.2 98576.8 2130.1 98513.1 2225.4 98455.8 2324.6 98405.1 2427.4 98361.3 2533.2 98324.5 2641.7 98294.8 2752.4 98272.5 2864.8 98257.5 2978.4 98250 3092.7 98250 3207.3 98257.5 3321.6 98272.5 3435.2 98294.8 3547.6 98324.5 3658.3 98361.3 3766.8 98405.1 3872.6 98455.8 3975.4 98513.1 4074.6 98576.8 4169.9 98646.5 4260.8 98722.1 4346.9 98803.1 4427.9 98889.2 4503.5 98980.1 4573.2 99075.4 4636.9 99174.6 4694.2 99277.4 4744.9 99383.2 4788.7 99491.7 4825.5 99602.4 4855.2 99714.8 4877.6 99828.4 4892.5 99942.7 4900 100057.3 4900 100171.6 4892.5 100285.2 4877.6 100397.6 4855.2 100508.3 4825.5 100616.8 4788.7 100722.6 4744.9 100825.4 4694.2 100924.6 4636.9 101019.9 4573.2 101110.8 4503.5 101196.9 4427.9 101277.9 4346.9 101353.5 4260.8 101423.2 4169.9 101486.9 4074.6 101544.2 3975.4 101594.9 3872.6 101638.7 3766.8 101675.5 3658.3 101705.2 3547.6 101727.6 3435.2 101742.5 3321.6 101750 3207.3 101750 3092.7 M 101750 51792.7 101742.5 51678.4 101727.6 51564.8 101705.2 51452.4 101675.5 51341.7 101638.7 51233.2 101594.9 51127.4 101544.2 51024.6 101486.9 50925.4 101423.2 50830.1 101353.5 50739.2 101277.9 50653.1 101196.9 50572.1 101110.8 50496.5 101019.9 50426.8 100924.6 50363.1 100825.4 50305.8 100722.6 50255.1 100616.8 50211.3 100508.3 50174.5 100397.6 50144.8 100285.2 50122.5 100171.6 50107.5 100057.3 50100 99942.7 50100 99828.4 50107.5 99714.8 50122.5 99602.4 50144.8 99491.7 50174.5 99383.2 50211.3 99277.4 50255.1 99174.6 50305.8 99075.4 50363.1 98980.1 50426.8 98889.2 50496.5 98803.1 50572.1 98722.1 50653.1 98646.5 50739.2 98576.8 50830.1 98513.1 50925.4 98455.8 51024.6 98405.1 51127.4 98361.3 51233.2 98324.5 51341.7 98294.8 51452.4 98272.5 51564.8 98257.5 51678.4 98250 51792.7 98250 51907.3 98257.5 52021.6 98272.5 52135.2 98294.8 52247.6 98324.5 52358.3 98361.3 52466.8 98405.1 52572.6 98455.8 52675.4 98513.1 52774.6 98576.8 52869.9 98646.5 52960.8 98722.1 53046.9 98803.1 53127.9 98889.2 53203.5 98980.1 53273.2 99075.4 53336.9 99174.6 53394.2 99277.4 53444.9 99383.2 53488.7 99491.7 53525.5 99602.4 53555.2 99714.8 53577.6 99828.4 53592.5 99942.7 53600 100057.3 53600 100171.6 53592.5 100285.2 53577.6 100397.6 53555.2 100508.3 53525.5 100616.8 53488.7 100722.6 53444.9 100825.4 53394.2 100924.6 53336.9 101019.9 53273.2 101110.8 53203.5 101196.9 53127.9 101277.9 53046.9 101353.5 52960.8 101423.2 52869.9 101486.9 52774.6 101544.2 52675.4 101594.9 52572.6 101638.7 52466.8 101675.5 52358.3 101705.2 52247.6 101727.6 52135.2 101742.5 52021.6 101750 51907.3 101750 51792.7" fill="none" stroke-width="254"/></g></svg>