<svg version="1.1" xmlns="http://www.w3.org/2000/svg" xmlns:xlink="http://www.w3.org/1999/xlink" stroke-linecap="round" stroke-linejoin="round" stroke-width="0" fill-rule="evenodd" width="100.254mm" height="55.254mm" viewBox="4873 -127 100254 55254" id="amVPrZVAxR6m5ils7gvJ"><g transform="translate(0,55000) scale(1,-1)" fill="currentColor" stroke="currentColor"><path d="M 41575.7 23907.8 41575.9 23896.3 41576.5 23884.8 41577.4 23873.3 41578.8 23861.9 41580.5 23850.5 41582.6 23839.2 41585.1 23828 41587.9 23816.8 41591.2 23805.8 41594.8 23794.9 41598.7 23784.1 41603 23773.4 41607.7 23762.9 41612.7 23752.5 41618.1 23742.3 41623.8 23732.3 41629.8 23722.5 41636.1 23712.9 41642.8 23703.6 41649.8 23694.4 41657.1 23685.5 41664.6 23676.8 41672.5 23668.4 41680.6 23660.3 41689 23652.4 41697.7 23644.9 41706.6 23637.6 41715.8 23630.6 41725.1 23623.9 41734.7 23617.6 41744.5 23611.6 41754.5 23605.9 41764.7 23600.5 41775.1 23595.5 41785.6 23590.8 41796.3 23586.5 41807.1 23582.6 41818 23579 41829 23575.7 41840.2 23572.9 41851.4 23570.4 41862.7 23568.3 41874.1 23566.6 41885.5 23565.2 41897 23564.3 41908.5 23563.7 41920 23563.5 41937.4 23563.7 41954.8 23564.3 41972.2 23565.4 41989.5 23566.8 42006.8 23568.7 42024.1 23571 42041.3 23573.7 42058.4 23576.8 42075.4 23580.3 42092.4 23584.2 42109.2 23588.5 42126 23593.3 42142.6 23598.4 42159.1 23603.9 42175.5 23609.8 42191.7 23616.2 42207.8 23622.8 42223.7 23629.9 42239.4 23637.4 42255 23645.2 42270.3 23653.4 42285.5 23662 42300.4 23670.9 42315.1 23680.2 42329.6 23689.8 42343.9 23699.8 42357.9 23710.1 42371.7 23720.7 42385.2 23731.7 42398.4 23743 42411.4 23754.6 42424.1 23766.5 42436.5 23778.7 M 42393.5 24768.6 42393.3 24780.1 42392.7 24791.6 42391.8 24803.1 42390.4 24814.5 42388.7 24825.9 42386.6 24837.2 42384.1 24848.4 42381.3 24859.6 42378 24870.6 42374.4 24881.5 42370.5 24892.3 42366.2 24903 42361.5 24913.5 42356.5 24923.9 42351.1 24934.1 42345.4 24944.1 42339.4 24953.9 42333.1 24963.5 42326.4 24972.8 42319.4 24982 42312.1 24990.9 42304.6 24999.6 42296.7 25008 42288.6 25016.1 42280.2 25024 42271.5 25031.5 42262.6 25038.8 42253.4 25045.8 42244.1 25052.5 42234.5 25058.8 42224.7 25064.8 42214.7 25070.5 42204.5 25075.9 42194.1 25080.9 42183.6 25085.6 42172.9 25089.9 42162.1 25093.8 42151.2 25097.4 42140.2 25100.7 42129 25103.5 42117.8 25106 42106.5 25108.1 42095.1 25109.8 42083.7 25111.2 42072.2 25112.1 42060.7 25112.7 42049.2 25112.9 42033.2 25112.7 42017.3 25112.1 42001.3 25111.1 41985.4 25109.7 41969.5 25108 41953.7 25105.8 41937.9 25103.2 41922.2 25100.3 41906.6 25096.9 41891 25093.2 41875.6 25089.1 41860.3 25084.6 41845 25079.8 41829.9 25074.5 41815 25068.9 41800.2 25062.9 41785.5 25056.6 41771 25049.9 41756.7 25042.8 41742.5 25035.4 41728.5 25027.6 41714.8 25019.5 41701.2 25011.1 41687.9 25002.3 41674.7 24993.2 41661.8 24983.8 M 42221.3 24467.3 42231.3 24473.4 42241.1 24479.9 42250.7 24486.6 42260 24493.7 42269.1 24501.1 42277.9 24508.8 42286.5 24516.8 42294.8 24525.1 42302.8 24533.6 42310.5 24542.4 42317.9 24551.5 42325 24560.8 42331.9 24570.3 42338.3 24580.1 42344.5 24590 42350.3 24600.2 42355.8 24610.6 42360.9 24621.1 42365.6 24631.8 42370 24642.7 42374.1 24653.7 42377.7 24664.8 42381 24676 42383.9 24687.4 42386.5 24698.8 42388.6 24710.3 42390.4 24721.9 42391.7 24733.5 42392.7 24745.2 42393.3 24756.9 42393.5 24768.6 M 41747.9 24209.1 41737.9 24203 41728.1 24196.5 41718.5 24189.8 41709.2 24182.7 41700.1 24175.3 41691.3 24167.6 41682.7 24159.6 41674.4 24151.3 41666.4 24142.8 41658.7 24134 41651.3 24124.9 41644.2 24115.6 41637.4 24106.1 41630.9 24096.3 41624.7 24086.4 41618.9 24076.2 41613.4 24065.8 41608.3 24055.3 41603.6 24044.6 41599.2 24033.7 41595.1 24022.7 41591.5 24011.6 41588.2 24000.4 41585.3 23989 41582.7 23977.6 41580.6 23966.1 41578.8 23954.5 41577.5 23942.9 41576.5 23931.2 41575.9 23919.5 41575.7 23907.8 M 41747.9 24209.1 42221.3 24467.3 M 40930.2 25112.9 40930.2 23563.5 M 40930.2 24166 40069.5 25112.9 M 40585.9 24510.4 40069.5 23563.5 M 39454.8 23563.5 39454.8 25112.9 39024.4 25112.9 39011.4 25112.7 38998.4 25112.1 38985.4 25111.1 38972.5 25109.8 38959.6 25108 38946.8 25105.9 38934.1 25103.3 38921.4 25100.4 38908.8 25097.1 38896.4 25093.4 38884 25089.4 38871.8 25084.9 38859.7 25080.1 38847.8 25075 38836 25069.5 38824.4 25063.6 38813 25057.4 38801.7 25050.8 38790.7 25043.9 38779.9 25036.7 38769.3 25029.2 38759 25021.3 38748.9 25013.1 38739 25004.7 38729.4 24995.9 38720.1 24986.8 38711 24977.5 38702.2 24967.9 38693.8 24958 38685.6 24947.9 38677.7 24937.6 38670.2 24927 38663 24916.2 38656.1 24905.2 38649.5 24893.9 38643.3 24882.5 38637.4 24870.9 38631.9 24859.1 38626.8 24847.2 38622 24835.1 38617.5 24822.9 38613.5 24810.5 38609.8 24798.1 38606.5 24785.5 38603.6 24772.8 38601 24760.1 38598.9 24747.3 38597.1 24734.4 38595.8 24721.5 38594.8 24708.5 38594.2 24695.5 38594 24682.5 38594.2 24669.5 38594.8 24656.5 38595.8 24643.5 38597.1 24630.6 38598.9 24617.7 38601 24604.9 38603.6 24592.2 38606.5 24579.5 38609.8 24566.9 38613.5 24554.5 38617.5 24542.1 38622 24529.9 38626.8 24517.8 38631.9 24505.9 38637.4 24494.1 38643.3 24482.5 38649.5 24471.1 38656.1 24459.8 38663 24448.8 38670.2 24438 38677.7 24427.4 38685.6 24417.1 38693.8 24407 38702.2 24397.1 38711 24387.5 38720.1 24378.2 38729.4 24369.1 38739 24360.3 38748.9 24351.9 38759 24343.7 38769.3 24335.8 38779.9 24328.3 38790.7 24321.1 38801.7 24314.2 38813 24307.6 38824.4 24301.4 38836 24295.5 38847.8 24290 38859.7 24284.9 38871.8 24280.1 38884 24275.6 38896.4 24271.6 38908.8 24267.9 38921.4 24264.6 38934.1 24261.7 38946.8 24259.1 38959.6 24257 38972.5 24255.2 38985.4 24253.9 38998.4 24252.9 39011.4 24252.3 39024.4 24252.1 39454.8 24252.1 M 38938.3 24252.1 38594 23563.5 M 37131.6 23563.5 36443 23563.5 M 37131.6 23563.5 37131.6 25112.9 36443 25112.9 M 36615.2 24424.3 37131.6 24424.3 M 35895.6 23563.5 35465.2 23563.5 35452.2 23563.7 35439.2 23564.3 35426.2 23565.3 35413.3 23566.6 35400.4 23568.4 35387.6 23570.5 35374.9 23573.1 35362.2 23576 35349.6 23579.3 35337.2 23583 35324.8 23587 35312.6 23591.5 35300.5 23596.3 35288.6 23601.4 35276.8 23606.9 35265.2 23612.8 35253.8 23619 35242.5 23625.6 35231.5 23632.5 35220.7 23639.7 35210.1 23647.2 35199.8 23655.1 35189.7 23663.3 35179.8 23671.7 35170.2 23680.5 35160.9 23689.6 35151.8 23698.9 35143 23708.5 35134.6 23718.4 35126.4 23728.5 35118.5 23738.8 35111 23749.4 35103.8 23760.2 35096.9 23771.2 35090.3 23782.5 35084.1 23793.9 35078.2 23805.5 35072.7 23817.3 35067.6 23829.2 35062.8 23841.3 35058.3 23853.5 35054.3 23865.9 35050.6 23878.3 35047.3 23890.9 35044.4 23903.6 35041.8 23916.3 35039.7 23929.1 35037.9 23942 35036.6 23954.9 35035.6 23967.9 35035 23980.9 35034.8 23993.9 35035 24006.9 35035.6 24019.9 35036.6 24032.9 35037.9 24045.8 35039.7 24058.7 35041.8 24071.5 35044.4 24084.2 35047.3 24096.9 35050.6 24109.5 35054.3 24121.9 35058.3 24134.3 35062.8 24146.5 35067.6 24158.6 35072.7 24170.5 35078.2 24182.3 35084.1 24193.9 35090.3 24205.3 35096.9 24216.6 35103.8 24227.6 35111 24238.4 35118.5 24249 35126.4 24259.3 35134.6 24269.4 35143 24279.3 35151.8 24288.9 35160.9 24298.2 35170.2 24307.3 35179.8 24316.1 35189.7 24324.5 35199.8 24332.7 35210.1 24340.6 35220.7 24348.1 35231.5 24355.3 35242.5 24362.2 35253.8 24368.8 35265.2 24375 35276.8 24380.9 35288.6 24386.4 35300.5 24391.5 35312.6 24396.3 35324.8 24400.8 35337.2 24404.8 35349.6 24408.5 35362.2 24411.8 35374.9 24414.7 35387.6 24417.3 35400.4 24419.4 35413.3 24421.2 35426.2 24422.5 35439.2 24423.5 35452.2 24424.1 35465.2 24424.3 M 35379.1 25112.9 35895.6 25112.9 M 35379.1 25112.9 35367.5 25112.7 35355.9 25112.1 35344.3 25111.1 35332.7 25109.8 35321.2 25108 35309.8 25105.9 35298.4 25103.3 35287.2 25100.4 35276 25097.1 35265 25093.4 35254.1 25089.4 35243.3 25085 35232.7 25080.2 35222.3 25075.1 35212 25069.6 35201.9 25063.8 35192.1 25057.7 35182.4 25051.2 35173 25044.4 35163.8 25037.3 35154.8 25029.8 35146.1 25022.1 35137.7 25014.1 35129.6 25005.8 35121.7 24997.2 35114.1 24988.4 35106.8 24979.3 35099.9 24970 35093.2 24960.5 35086.9 24950.7 35080.9 24940.8 35075.3 24930.6 35070 24920.2 35065 24909.7 35060.5 24899 35056.2 24888.2 35052.4 24877.2 35048.9 24866.1 35045.8 24854.9 35043.1 24843.6 35040.7 24832.2 35038.8 24820.7 35037.2 24809.2 35036 24797.6 35035.2 24786 35034.8 24774.4 35034.8 24762.8 35035.2 24751.2 35036 24739.6 35037.2 24728 35038.8 24716.5 35040.7 24705 35043.1 24693.6 35045.8 24682.3 35048.9 24671.1 35052.4 24660 35056.2 24649 35060.5 24638.2 35065 24627.5 35070 24617 35075.3 24606.6 35080.9 24596.5 35086.9 24586.5 35093.2 24576.7 35099.9 24567.2 35106.8 24557.9 35114.1 24548.8 35121.7 24540 35129.6 24531.4 35137.7 24523.1 35146.1 24515.1 35154.8 24507.4 35163.8 24499.9 35173 24492.8 35182.4 24486 35192.1 24479.5 35201.9 24473.4 35212 24467.6 35222.3 24462.1 35232.7 24457 35243.3 24452.2 35254.1 24447.8 35265 24443.8 35276 24440.1 35287.2 24436.8 35298.4 24433.9 35309.8 24431.3 35321.2 24429.2 35332.7 24427.4 35344.3 24426.1 35355.9 24425.1 35367.5 24424.5 35379.1 24424.3 35723.4 24424.3 M 33566.6 25112.9 33566.6 23563.5 M 33566.6 25112.9 33136.2 25112.9 33123.2 25112.7 33110.2 25112.1 33097.2 25111.1 33084.3 25109.8 33071.4 25108 33058.6 25105.9 33045.9 25103.3 33033.2 25100.4 33020.6 25097.1 33008.2 25093.4 32995.8 25089.4 32983.6 25084.9 32971.5 25080.1 32959.6 25075 32947.8 25069.5 32936.2 25063.6 32924.8 25057.4 32913.5 25050.8 32902.5 25043.9 32891.7 25036.7 32881.1 25029.2 32870.8 25021.3 32860.7 25013.1 32850.8 25004.7 32841.2 24995.9 32831.9 24986.8 32822.8 24977.5 32814 24967.9 32805.6 24958 32797.4 24947.9 32789.5 24937.6 32782 24927 32774.8 24916.2 32767.9 24905.2 32761.3 24893.9 32755.1 24882.5 32749.2 24870.9 32743.7 24859.1 32738.6 24847.2 32733.8 24835.1 32729.3 24822.9 32725.3 24810.5 32721.6 24798.1 32718.3 24785.5 32715.4 24772.8 32712.8 24760.1 32710.7 24747.3 32708.9 24734.4 32707.6 24721.5 32706.6 24708.5 32706 24695.5 32705.8 24682.5 32705.8 23993.9 32706 23980.9 32706.6 23967.9 32707.6 23954.9 32708.9 23942 32710.7 23929.1 32712.8 23916.3 32715.4 23903.6 32718.3 23890.9 32721.6 23878.3 32725.3 23865.9 32729.3 23853.5 32733.8 23841.3 32738.6 23829.2 32743.7 23817.3 32749.2 23805.5 32755.1 23793.9 32761.3 23782.5 32767.9 23771.2 32774.8 23760.2 32782 23749.4 32789.5 23738.8 32797.4 23728.5 32805.6 23718.4 32814 23708.5 32822.8 23698.9 32831.9 23689.6 32841.2 23680.5 32850.8 23671.7 32860.7 23663.3 32870.8 23655.1 32881.1 23647.2 32891.7 23639.7 32902.5 23632.5 32913.5 23625.6 32924.8 23619 32936.2 23612.8 32947.8 23606.9 32959.6 23601.4 32971.5 23596.3 32983.6 23591.5 32995.8 23587 33008.2 23583 33020.6 23579.3 33033.2 23576 33045.9 23573.1 33058.6 23570.5 33071.4 23568.4 33084.3 23566.6 33097.2 23565.3 33110.2 23564.3 33123.2 23563.7 33136.2 23563.5 33566.6 23563.5 M 31897.4 23563.5 31897.4 25112.9 M 32069.5 23563.5 31725.2 23563.5 M 31725.2 25112.9 32069.5 25112.9 M 31069.3 25112.9 31069.3 23563.5 M 31069.3 25112.9 30638.9 25112.9 30625.9 25112.7 30612.9 25112.1 30599.9 25111.1 30587 25109.8 30574.1 25108 30561.3 25105.9 30548.6 25103.3 30535.9 25100.4 30523.3 25097.1 30510.9 25093.4 30498.5 25089.4 30486.3 25084.9 30474.2 25080.1 30462.3 25075 30450.5 25069.5 30438.9 25063.6 30427.5 25057.4 30416.2 25050.8 30405.2 25043.9 30394.4 25036.7 30383.8 25029.2 30373.5 25021.3 30363.4 25013.1 30353.5 25004.7 30343.9 24995.9 30334.6 24986.8 30325.5 24977.5 30316.7 24967.9 30308.3 24958 30300.1 24947.9 30292.2 24937.6 30284.7 24927 30277.5 24916.2 30270.6 24905.2 30264 24893.9 30257.8 24882.5 30251.9 24870.9 30246.4 24859.1 30241.3 24847.2 30236.5 24835.1 30232 24822.9 30228 24810.5 30224.3 24798.1 30221 24785.5 30218.1 24772.8 30215.5 24760.1 30213.4 24747.3 30211.6 24734.4 30210.3 24721.5 30209.3 24708.5 30208.7 24695.5 30208.5 24682.5 30208.7 24669.5 30209.3 24656.5 30210.3 24643.5 30211.6 24630.6 30213.4 24617.7 30215.5 24604.9 30218.1 24592.2 30221 24579.5 30224.3 24566.9 30228 24554.5 30232 24542.1 30236.5 24529.9 30241.3 24517.8 30246.4 24505.9 30251.9 24494.1 30257.8 24482.5 30264 24471.1 30270.6 24459.8 30277.5 24448.8 30284.7 24438 30292.2 24427.4 30300.1 24417.1 30308.3 24407 30316.7 24397.1 30325.5 24387.5 30334.6 24378.2 30343.9 24369.1 30353.5 24360.3 30363.4 24351.9 30373.5 24343.7 30383.8 24335.8 30394.4 24328.3 30405.2 24321.1 30416.2 24314.2 30427.5 24307.6 30438.9 24301.4 30450.5 24295.5 30462.3 24290 30474.2 24284.9 30486.3 24280.1 30498.5 24275.6 30510.9 24271.6 30523.3 24267.9 30535.9 24264.6 30548.6 24261.7 30561.3 24259.1 30574.1 24257 30587 24255.2 30599.9 24253.9 30612.9 24252.9 30625.9 24252.3 30638.9 24252.1 31069.3 24252.1" fill="none" stroke-width="127"/><path d="M 37465 33020 37465 50800 31115 50800 M 31115 33020 37465 33020 M 38735 33020 38735 31750 M 29845 47371 29845 52070 38735 52070 M 38735 31750 29845 31750 M 31115 46482 31115 50800 M 31877 43942 31877 39878 31115 39878 31115 33020 M 31115 39878 30861 39878 M 31115 43942 31877 43942 M 31115 43942 30861 43942 M 38735 50800 38989 50800 38989 49530 38735 49530 M 38735 50800 38735 52070 M 38989 42545 38989 41275 M 38989 42545 38735 42545 38735 49530 M 38735 41275 38989 41275 M 38989 34290 38989 33020 38735 33020 M 38735 34290 38989 34290 M 38735 34290 38735 41275 M 29845 43942 29845 44069 M 29845 43942 29845 39878 M 30861 44958 31115 44958 31115 43942 M 31115 46482 30861 46482 M 31115 46482 31115 44958 M 30353 44450 29845 44069 M 30353 46990 29845 47371 M 30353 46990 30353 46482" fill="none" stroke-width="152.4"/><path d="M 30861 44958 30861 43942" fill="none" stroke-width="50.8"/><path d="M 30861 43942 29845 43942" fill="none" stroke-width="152.4"/><path d="M 30861 46482 30861 51054 37719 51054 37719 32766 30861 32766 30861 39878" fill="none" stroke-width="50.8"/><path d="M 30861 39878 29845 39878 M 30353 44958 30861 44958 M 30353 44958 30353 44450 M 30353 46482 30861 46482 M 30353 46482 30353 44958 M 29845 39878 29845 37465 29972 37465 29972 36195 29845 36195 29845 31750" fill="none" stroke-width="152.4"/><path d="M 31178.5 40957.5 31432.5 41275 30289.5 41275 M 30289.5 40957.5 30289.5 41592.5 M 30861 42100.5 30883.5 42100.8 30906 42101.6 30928.4 42102.9 30950.8 42104.8 30973.2 42107.2 30995.5 42110.1 31017.7 42113.6 31039.8 42117.6 31061.8 42122.2 31083.7 42127.2 31105.5 42132.8 31127.2 42138.9 31148.7 42145.5 31170 42152.6 31191.1 42160.3 31212.1 42168.4 31232.9 42177 31253.4 42186.1 31273.7 42195.7 M 31273.8 42195.7 31282.6 42198.9 31291.3 42202.5 31299.9 42206.4 31308.3 42210.7 31316.5 42215.3 31324.5 42220.2 31332.3 42225.4 31339.9 42231 31347.3 42236.8 31354.4 42243 31361.3 42249.4 31367.9 42256.1 31374.2 42263 31380.3 42270.2 31386.1 42277.6 31391.5 42285.3 31396.7 42293.1 31401.5 42301.2 31406 42309.4 31410.2 42317.9 31414 42326.5 31417.5 42335.2 31420.7 42344 31423.4 42353 31425.9 42362.1 31427.9 42371.3 31429.6 42380.5 31430.9 42389.9 31431.8 42399.2 31432.4 42408.6 31432.6 42418 31432.4 42427.4 31431.8 42436.8 31430.9 42446.1 31429.6 42455.5 31427.9 42464.7 31425.9 42473.9 31423.4 42483 31420.7 42492 31417.5 42500.8 31414 42509.5 31410.2 42518.1 31406 42526.6 31401.5 42534.8 31396.7 42542.9 31391.5 42550.7 31386.1 42558.4 31380.3 42565.8 31374.2 42573 31367.9 42579.9 31361.3 42586.6 31354.4 42593 31347.3 42599.2 31339.9 42605 31332.3 42610.6 31324.5 42615.8 31316.5 42620.7 31308.3 42625.3 31299.9 42629.6 31291.3 42633.5 31282.6 42637.1 31273.8 42640.3 M 31273.7 42640.3 31253.4 42649.9 31232.9 42659 31212.1 42667.6 31191.1 42675.7 31170 42683.4 31148.7 42690.5 31127.2 42697.1 31105.5 42703.2 31083.7 42708.8 31061.8 42713.8 31039.8 42718.4 31017.7 42722.4 30995.5 42725.9 30973.2 42728.8 30950.8 42731.2 30928.4 42733.1 30906 42734.4 30883.5 42735.2 30861 42735.5 M 30861 42100.5 30838.5 42100.8 30816 42101.6 30793.6 42102.9 30771.2 42104.8 30748.8 42107.2 30726.5 42110.1 30704.3 42113.6 30682.2 42117.6 30660.2 42122.2 30638.3 42127.2 30616.5 42132.8 30594.8 42138.9 30573.3 42145.5 30552 42152.6 30530.9 42160.3 30509.9 42168.4 30489.1 42177 30468.6 42186.1 30448.3 42195.7 30439.5 42198.9 30430.8 42202.5 30422.2 42206.4 30413.8 42210.7 30405.6 42215.3 30397.6 42220.2 30389.8 42225.4 30382.2 42231 30374.8 42236.8 30367.7 42243 30360.8 42249.4 30354.2 42256.1 30347.9 42263 30341.8 42270.2 30336 42277.6 30330.6 42285.3 30325.4 42293.1 30320.6 42301.2 30316.1 42309.4 30311.9 42317.9 30308.1 42326.5 30304.6 42335.2 30301.4 42344 30298.7 42353 30296.2 42362.1 30294.2 42371.3 30292.5 42380.5 30291.2 42389.9 30290.3 42399.2 30289.7 42408.6 30289.5 42418 M 30448.3 42640.3 30468.6 42649.9 30489.1 42659 30509.9 42667.6 30530.9 42675.7 30552 42683.4 30573.3 42690.5 30594.8 42697.1 30616.5 42703.2 30638.3 42708.8 30660.2 42713.8 30682.2 42718.4 30704.3 42722.4 30726.5 42725.9 30748.8 42728.8 30771.2 42731.2 30793.6 42733.1 30816 42734.4 30838.5 42735.2 30861 42735.5 M 30448.3 42640.3 30439.5 42637.1 30430.8 42633.5 30422.2 42629.6 30413.8 42625.3 30405.6 42620.7 30397.6 42615.8 30389.8 42610.6 30382.2 42605 30374.8 42599.2 30367.7 42593 30360.8 42586.6 30354.2 42579.9 30347.9 42573 30341.8 42565.8 30336 42558.4 30330.6 42550.7 30325.4 42542.9 30320.6 42534.8 30316.1 42526.6 30311.9 42518.1 30308.1 42509.5 30304.6 42500.8 30301.4 42492 30298.7 42483 30296.2 42473.9 30294.2 42464.7 30292.5 42455.5 30291.2 42446.1 30290.3 42436.8 30289.7 42427.4 30289.5 42418 M 30543.5 42164 31178.5 42672 M 33591.5 34671 33337.5 34353.5 M 33591.5 34671 32448.5 34671 M 32448.5 34353.5 32448.5 34988.5 M 35845.8 34988.6 35856.2 34988.4 35866.7 34987.8 35877.1 34986.9 35887.4 34985.6 35897.7 34983.8 35907.9 34981.8 35918.1 34979.3 35928.1 34976.5 35938.1 34973.3 35947.9 34969.7 35957.6 34965.8 35967.1 34961.6 35976.5 34957 35985.7 34952 35994.7 34946.8 36003.5 34941.2 36012.1 34935.2 36020.5 34929 36028.6 34922.5 36036.5 34915.7 36044.2 34908.5 36051.5 34901.2 36058.7 34893.5 36065.5 34885.6 36072 34877.5 36078.2 34869.1 36084.2 34860.5 36089.8 34851.7 36095 34842.7 36100 34833.5 36104.6 34824.1 36108.8 34814.6 36112.7 34804.9 36116.3 34795.1 36119.5 34785.1 36122.3 34775.1 36124.8 34764.9 36126.8 34754.7 36128.6 34744.4 36129.9 34734.1 36130.8 34723.7 36131.4 34713.2 36131.6 34702.8 M 36131.5 34702.8 36131.3 34691 36130.7 34679.1 36129.8 34667.3 36128.5 34655.6 36126.7 34643.9 36124.7 34632.2 36122.2 34620.6 36119.4 34609.1 36116.1 34597.8 36112.6 34586.5 36108.6 34575.3 36104.4 34564.3 36099.7 34553.4 36094.7 34542.6 36089.4 34532.1 36083.7 34521.7 36077.7 34511.5 36071.4 34501.5 36064.7 34491.7 36057.8 34482.1 36050.5 34472.8 36042.9 34463.7 36035.1 34454.8 36026.9 34446.2 36018.5 34437.9 36009.9 34429.8 36000.9 34422.1 35991.8 34414.6 35982.4 34407.4 35972.7 34400.5 35962.9 34394 35952.8 34387.7 35942.5 34381.8 35932.1 34376.2 35921.5 34371 35910.7 34366.1 35899.8 34361.6 35888.7 34357.4 35877.5 34353.6 M 35623.6 34893.3 35631.1 34900.9 35639 34908.4 35647.1 34915.5 35655.5 34922.4 35664.1 34928.9 35672.9 34935.1 35681.9 34941.1 35691.1 34946.7 35700.6 34952 35710.2 34956.9 35720 34961.5 35729.9 34965.8 35740 34969.7 35750.2 34973.2 35760.5 34976.4 35770.9 34979.2 35781.4 34981.7 35792.1 34983.8 35802.7 34985.5 35813.4 34986.8 35824.2 34987.7 35835 34988.3 35845.8 34988.5 M 35623.5 34893.3 34988.5 34353.5 34988.5 34988.5" fill="none" stroke-width="127"/><path d="M 40085.3 29560.9 40796.5 29560.9 40796.5 31161.1 40085.3 31161.1 M 40263.1 30449.9 40796.5 30449.9 M 39586.1 29560.9 38519.3 31161.1 M 39586.1 31161.1 38519.3 29560.9 M 37858.7 29560.9 37858.7 31161.1 37414.2 31161.1 37401 31160.9 37387.9 31160.3 37374.7 31159.3 37361.6 31158 37348.6 31156.2 37335.6 31154.1 37322.6 31151.6 37309.8 31148.7 37297 31145.4 37284.4 31141.7 37271.8 31137.7 37259.4 31133.3 37247.1 31128.5 37235 31123.4 37223 31117.9 37211.2 31112.1 37199.6 31105.9 37188.2 31099.3 37176.9 31092.5 37165.9 31085.3 37155.1 31077.8 37144.5 31069.9 37134.1 31061.8 37124 31053.3 37114.2 31044.6 37104.6 31035.5 37095.3 31026.2 37086.2 31016.6 37077.5 31006.8 37069 30996.7 37060.9 30986.3 37053 30975.7 37045.5 30964.9 37038.3 30953.9 37031.5 30942.6 37024.9 30931.2 37018.7 30919.6 37012.9 30907.8 37007.4 30895.8 37002.3 30883.7 36997.5 30871.4 36993.1 30859 36989.1 30846.4 36985.4 30833.8 36982.1 30821 36979.2 30808.2 36976.7 30795.2 36974.6 30782.2 36972.8 30769.2 36971.5 30756.1 36970.5 30742.9 36969.9 30729.8 36969.7 30716.6 36969.9 30703.4 36970.5 30690.3 36971.5 30677.1 36972.8 30664 36974.6 30651 36976.7 30638 36979.2 30625 36982.1 30612.2 36985.4 30599.4 36989.1 30586.8 36993.1 30574.2 36997.5 30561.8 37002.3 30549.5 37007.4 30537.4 37012.9 30525.4 37018.7 30513.6 37024.9 30502 37031.5 30490.6 37038.3 30479.3 37045.5 30468.3 37053 30457.5 37060.9 30446.9 37069 30436.5 37077.5 30426.4 37086.2 30416.6 37095.3 30407 37104.6 30397.7 37114.2 30388.6 37124 30379.9 37134.1 30371.4 37144.5 30363.3 37155.1 30355.4 37165.9 30347.9 37176.9 30340.7 37188.2 30333.9 37199.6 30327.3 37211.2 30321.1 37223 30315.3 37235 30309.8 37247.1 30304.7 37259.4 30299.9 37271.8 30295.5 37284.4 30291.5 37297 30287.8 37309.8 30284.5 37322.6 30281.6 37335.6 30279.1 37348.6 30277 37361.6 30275.2 37374.7 30273.9 37387.9 30272.9 37401 30272.3 37414.2 30272.1 37858.7 30272.1 M 36370.9 30805.5 35926.4 31161.1 35926.4 29560.9 M 36370.9 29560.9 35481.9 29560.9 M 34875.2 29383.1 34164 29383.1 M 33501.9 29560.9 33501.9 31161.1 M 33501.9 29560.9 32790.7 29560.9 M 31851.4 29560.9 31495.8 29560.9 M 31851.4 29560.9 31863 29561.1 31874.7 29561.7 31886.3 29562.6 31897.8 29563.9 31909.3 29565.6 31920.8 29567.7 31932.1 29570.2 31943.4 29573 31954.6 29576.2 31965.7 29579.8 31976.7 29583.7 31987.5 29588 31998.2 29592.6 32008.7 29597.6 32019 29602.9 32029.2 29608.5 32039.2 29614.5 32049 29620.8 32058.5 29627.5 32067.9 29634.4 32077 29641.6 32085.9 29649.1 32094.5 29657 32102.8 29665.1 32110.9 29673.4 32118.8 29682 32126.3 29690.9 32133.5 29700 32140.4 29709.4 32147.1 29718.9 32153.4 29728.7 32159.4 29738.7 32165 29748.9 32170.3 29759.2 32175.3 29769.7 32179.9 29780.4 32184.2 29791.2 32188.1 29802.2 32191.7 29813.3 32194.9 29824.5 32197.7 29835.8 32200.2 29847.1 32202.3 29858.6 32204 29870.1 32205.3 29881.6 32206.2 29893.2 32206.8 29904.9 32207 29916.5 32207 30805.5 32206.8 30817.1 32206.2 30828.8 32205.3 30840.4 32204 30851.9 32202.3 30863.4 32200.2 30874.9 32197.7 30886.2 32194.9 30897.5 32191.7 30908.7 32188.1 30919.8 32184.2 30930.8 32179.9 30941.6 32175.3 30952.3 32170.3 30962.8 32165 30973.1 32159.4 30983.3 32153.4 30993.3 32147.1 31003.1 32140.4 31012.6 32133.5 31022 32126.3 31031.1 32118.8 31040 32110.9 31048.6 32102.8 31056.9 32094.5 31065 32085.9 31072.9 32077 31080.4 32067.9 31087.6 32058.5 31094.5 32049 31101.2 32039.2 31107.5 32029.2 31113.5 32019 31119.1 32008.7 31124.4 31998.2 31129.4 31987.5 31134 31976.7 31138.3 31965.7 31142.2 31954.6 31145.8 31943.4 31149 31932.1 31151.8 31920.8 31154.3 31909.3 31156.4 31897.8 31158.1 31886.3 31159.4 31874.7 31160.3 31863 31160.9 31851.4 31161.1 31495.8 31161.1 M 30847.9 31161.1 30847.9 29560.9 M 30847.9 31161.1 30403.4 31161.1 30390.2 31160.9 30377.1 31160.3 30363.9 31159.3 30350.8 31158 30337.8 31156.2 30324.8 31154.1 30311.8 31151.6 30299 31148.7 30286.2 31145.4 30273.6 31141.7 30261 31137.7 30248.6 31133.3 30236.3 31128.5 30224.2 31123.4 30212.2 31117.9 30200.4 31112.1 30188.8 31105.9 30177.4 31099.3 30166.1 31092.5 30155.1 31085.3 30144.3 31077.8 30133.7 31069.9 30123.3 31061.8 30113.2 31053.3 30103.4 31044.6 30093.8 31035.5 30084.5 31026.2 30075.4 31016.6 30066.7 31006.8 30058.2 30996.7 30050.1 30986.3 30042.2 30975.7 30034.7 30964.9 30027.5 30953.9 30020.7 30942.6 30014.1 30931.2 30007.9 30919.6 30002.1 30907.8 29996.6 30895.8 29991.5 30883.7 29986.7 30871.4 29982.3 30859 29978.3 30846.4 29974.6 30833.8 29971.3 30821 29968.4 30808.2 29965.9 30795.2 29963.8 30782.2 29962 30769.2 29960.7 30756.1 29959.7 30742.9 29959.1 30729.8 29958.9 30716.6 29958.9 30005.4 29959.1 29992.2 29959.7 29979.1 29960.7 29965.9 29962 29952.8 29963.8 29939.8 29965.9 29926.8 29968.4 29913.8 29971.3 29901 29974.6 29888.2 29978.3 29875.6 29982.3 29863 29986.7 29850.6 29991.5 29838.3 29996.6 29826.2 30002.1 29814.2 30007.9 29802.4 30014.1 29790.8 30020.7 29779.4 30027.5 29768.1 30034.7 29757.1 30042.2 29746.3 30050.1 29735.7 30058.2 29725.3 30066.7 29715.2 30075.4 29705.4 30084.5 29695.8 30093.8 29686.5 30103.4 29677.4 30113.2 29668.7 30123.3 29660.2 30133.7 29652.1 30144.3 29644.2 30155.1 29636.7 30166.1 29629.5 30177.4 29622.7 30188.8 29616.1 30200.4 29609.9 30212.2 29604.1 30224.2 29598.6 30236.3 29593.5 30248.6 29588.7 30261 29584.3 30273.6 29580.3 30286.2 29576.6 30299 29573.3 30311.8 29570.4 30324.8 29567.9 30337.8 29565.8 30350.8 29564 30363.9 29562.7 30377.1 29561.7 30390.2 29561.1 30403.4 29560.9 30847.9 29560.9" fill="none" stroke-width="177.8"/><path d="M 5000 21200 35600 21200 35560 0 105000 0 105000 55000 5000 55000 5000 21200 M 44400 51792.7 44392.5 51678.4 44377.6 51564.8 44355.2 51452.4 44325.5 51341.7 44288.7 51233.2 44244.9 51127.4 44194.2 51024.6 44136.9 50925.4 44073.2 50830.1 44003.5 50739.2 43927.9 50653.1 43846.9 50572.1 43760.8 50496.5 43669.9 50426.8 43574.6 50363.1 43475.4 50305.8 43372.6 50255.1 43266.8 50211.3 43158.3 50174.5 43047.6 50144.8 42935.2 50122.5 42821.6 50107.5 42707.3 50100 42592.7 50100 42478.4 50107.5 42364.8 50122.5 42252.4 50144.8 42141.7 50174.5 42033.2 50211.3 41927.4 50255.1 41824.6 50305.8 41725.4 50363.1 41630.1 50426.8 41539.2 50496.5 41453.1 50572.1 41372.1 50653.1 41296.5 50739.2 41226.8 50830.1 41163.1 50925.4 41105.8 51024.6 41055.1 51127.4 41011.3 51233.2 40974.5 51341.7 40944.8 51452.4 40922.5 51564.8 40907.5 51678.4 40900 51792.7 40900 51907.3 40907.5 52021.6 40922.5 52135.2 40944.8 52247.6 40974.5 52358.3 41011.3 52466.8 41055.1 52572.6 41105.8 52675.4 41163.1 52774.6 41226.8 52869.9 41296.5 52960.8 41372.1 53046.9 41453.1 53127.9 41539.2 53203.5 41630.1 53273.2 41725.4 53336.9 41824.6 53394.2 41927.4 53444.9 42033.2 53488.7 42141.7 53525.5 42252.4 53555.2 42364.8 53577.6 42478.4 53592.5 42592.7 53600 42707.3 53600 42821.6 53592.5 42935.2 53577.6 43047.6 53555.2 43158.3 53525.5 43266.8 53488.7 43372.6 53444.9 43475.4 53394.2 43574.6 53336.9 43669.9 53273.2 43760.8 53203.5 43846.9 53127.9 43927.9 53046.9 44003.5 52960.8 44073.2 52869.9 44136.9 52774.6 44194.2 52675.4 44244.9 52572.6 44288.7 52466.8 44325.5 52358.3 44355.2 52247.6 44377.6 52135.2 44392.5 52021.6 44400 51907.3 44400 51792.7 M 44400 3092.7 44392.5 2978.4 44377.6 2864.8 44355.2 2752.4 44325.5 2641.7 44288.7 2533.2 44244.9 2427.4 44194.2 2324.6 44136.9 2225.4 44073.2 2130.1 44003.5 2039.2 43927.9 1953.1 43846.9 1872.1 43760.8 1796.5 43669.9 1726.8 43574.6 1663.1 43475.4 1605.8 43372.6 1555.1 43266.8 1511.3 43158.3 1474.5 43047.6 1444.8 42935.2 1422.5 42821.6 1407.5 42707.3 1400 42592.7 1400 42478.4 1407.5 42364.8 1422.5 42252.4 1444.8 42141.7 1474.5 42033.2 1511.3 41927.4 1555.1 41824.6 1605.8 41725.4 1663.1 41630.1 1726.8 41539.2 1796.5 41453.1 1872.1 41372.1 1953.1 41296.5 2039.2 41226.8 2130.1 41163.1 2225.4 41105.8 2324.6 41055.1 2427.4 41011.3 2533.2 40974.5 2641.7 40944.8 2752.4 40922.5 2864.8 40907.5 2978.4 40900 3092.7 40900 3207.3 40907.5 3321.6 40922.5 3435.2 40944.8 3547.6 40974.5 3658.3 41011.3 3766.8 41055.1 3872.6 41105.8 3975.4 41163.1 4074.6 41226.8 4169.9 41296.5 4260.8 41372.1 4346.9 41453.1 4427.9 41539.2 4503.5 41630.1 4573.2 41725.4 4636.9 41824.6 4694.2 41927.4 4744.9 42033.2 4788.7 42141.7 4825.5 42252.4 4855.2 42364.8 4877.6 42478.4 4892.5 42592.7 4900 42707.3 4900 42821.6 4892.5 42935.2 4877.6 43047.6 4855.2 43158.3 4825.5 43266.8 4788.7 43372.6 4744.9 43475.4 4694.2 43574.6 4636.9 43669.9 4573.2 43760.8 4503.5 43846.9 4427.9 43927.9 4346.9 44003.5 4260.8 44073.2 4169.9 44136.9 4074.6 44194.2 3975.4 44244.9 3872.6 44288.7 3766.8 44325.5 3658.3 44355.2 3547.6 44377.6 3435.2 44392.5 3321.6 44400 3207.3 44400 3092.7 M 101750 3092.7 101742.5 2978.4 101727.6 2864.8 101705.2 2752.4 101675.5 2641.7 101638.7 2533.2 101594.9 2427.4 101544.2 2324.6 101486.9 2225.4 101423.2 2130.1 101353.5 2039.2 101277.9 1953.1 101196.9 1872.1 101110.8 1796.5 101019.9 1726.8 100924.6 1663.1 100825.4 1605.8 100722.6 1555.1 100616.8 1511.3 100508.3 1474.5 100397.6 1444.8 100285.2 1422.5 100171.6 1407.5 100057.3 1400 99942.7 1400 99828.4 1407.5 99714.8 1422.5 99602.4 1444.8 99491.7 1474.5 99383.2 1511.3 99277.4 1555.1 99174.6 1605.8 99075.4 1663.1 98980.1 1726.8 98889.2 1796.5 98803.1 1872.1 98722.1 1953.1 98646.5 2039.2 98576.8 2130.1 98513.1 2225.4 98455.8 2324.6 98405.1 2427.4 98361.3 2533.2 98324.5 2641.7 98294.8 2752.4 98272.5 2864.8 98257.5 2978.4 98250 3092.7 98250 3207.3 98257.5 3321.6 98272.5 3435.2 98294.8 3547.6 98324.5 3658.3 98361.3 3766.8 98405.1 3872.6 98455.8 3975.4 98513.1 4074.6 98576.8 4169.9 98646.5 4260.8 98722.1 4346.9 98803.1 4427.9 98889.2 4503.5 98980.1 4573.2 99075.4 4636.9 99174.6 4694.2 99277.4 4744.9 99383.2 4788.7 99491.7 4825.5 99602.4 4855.2 99714.8 4877.6 99828.4 4892.5 99942.7 4900 100057.3 4900 100171.6 4892.5 100285.2 4877.6 100397.6 4855.2 100508.3 4825.5 100616.8 4788.7 100722.6 4744.9 100825.4 4694.2 100924.6 4636.9 101019.9 4573.2 101110.8 4503.5 101196.9 4427.9 101277.9 4346.9 101353.5 4260.8 101423.2 4169.9 101486.9 4074.6 101544.2 3975.4 101594.9 3872.6 101638.7 3766.8 101675.5 3658.3 101705.2 3547.6 101727.6 3435.2 101742.5 3321.6 101750 3207.3 101750 3092.7 M 101750 51792.7 101742.5 51678.4 101727.6 51564.8 101705.2 51452.4 101675.5 51341.7 101638.7 51233.2 101594.9 51127.4 101544.2 51024.6 101486.9 50925.4 101423.2 50830.1 101353.5 50739.2 101277.9 50653.1 101196.9 50572.1 101110.8 50496.5 101019.9 50426.8 100924.6 50363.1 100825.4 50305.8 100722.6 50255.1 100616.8 50211.3 100508.3 50174.5 100397.6 50144.8 100285.2 50122.5 100171.6 50107.5 100057.3 50100 99942.7 50100 99828.4 50107.5 99714.8 50122.5 99602.4 50144.8 99491.7 50174.5 99383.2 50211.3 99277.4 50255.1 99174.6 50305.8 99075.4 50363.1 98980.1 50426.8 98889.2 50496.5 98803.1 50572.1 98722.1 50653.1 98646.5 50739.2 98576.8 50830.1 98513.1 50925.4 98455.8 51024.6 98405.1 51127.4 98361.3 51233.2 98324.5 51341.7 98294.8 51452.4 98272.5 51564.8 98257.5 51678.4 98250 51792.7 98250 51907.3 98257.5 52021.6 98272.5 52135.2 98294.8 52247.6 98324.5 52358.3 98361.3 52466.8 98405.1 52572.6 98455.8 52675.4 98513.1 52774.6 98576.8 52869.9 98646.5 52960.8 98722.1 53046.9 98803.1 53127.9 98889.2 53203.5 98980.1 53273.2 99075.4 53336.9 99174.6 53394.2 99277.4 53444.9 99383.2 53488.7 99491.7 53525.5 99602.4 53555.2 99714.8 53577.6 99828.4 53592.5 99942.7 53600 100057.3 53600 100171.6 53592.5 100285.2 53577.6 100397.6 53555.2 100508.3 53525.5 100616.8 53488.7 100722.6 53444.9 100825.4 53394.2 100924.6 53336.9 101019.9 53273.2 101110.8 53203.5 101196.9 53127.9 101277.9 53046.9 101353.5 52960.8 101423.2 52869.9 101486.9 52774.6 101544.2 52675.4 101594.9 52572.6 101638.7 52466.8 101675.5 52358.3 101705.2 52247.6 101727.6 52135.2 101742.5 52021.6 101750 51907.3 101750 51792.7" fill="none" stroke-width="254"/></g></svg>